<?xml version="1.0" encoding="utf-8" standalone="no"?>
<!DOCTYPE svg PUBLIC "-//W3C//DTD SVG 1.1//EN"
  "http://www.w3.org/Graphics/SVG/1.1/DTD/svg11.dtd">
<svg xmlns:xlink="http://www.w3.org/1999/xlink" width="939.6864pt" height="354.24pt" viewBox="0 0 939.6864 354.24" xmlns="http://www.w3.org/2000/svg" version="1.1">
 <metadata>
  <rdf:RDF xmlns:dc="http://purl.org/dc/elements/1.1/" xmlns:cc="http://creativecommons.org/ns#" xmlns:rdf="http://www.w3.org/1999/02/22-rdf-syntax-ns#">
   <cc:Work>
    <dc:type rdf:resource="http://purl.org/dc/dcmitype/StillImage"/>
    <dc:date>2026-02-14T11:27:20.700791</dc:date>
    <dc:format>image/svg+xml</dc:format>
    <dc:creator>
     <cc:Agent>
      <dc:title>Matplotlib v3.10.3, https://matplotlib.org/</dc:title>
     </cc:Agent>
    </dc:creator>
   </cc:Work>
  </rdf:RDF>
 </metadata>
 <defs>
  <style type="text/css">*{stroke-linejoin: round; stroke-linecap: butt}</style>
 </defs>
 <g id="figure_1">
  <g id="patch_1">
   <path d="M 0 354.24 
L 939.6864 354.24 
L 939.6864 0 
L 0 0 
z
" style="fill: #ffffff"/>
  </g>
  <g id="axes_1">
   <g id="patch_2">
    <path d="M 229.67712 81.31968 
L 517.07808 81.31968 
Q 523.73088 81.31968 523.73088 87.97248 
L 523.73088 194.41728 
Q 523.73088 201.07008 517.07808 201.07008 
L 229.67712 201.07008 
Q 223.02432 201.07008 223.02432 194.41728 
L 223.02432 87.97248 
Q 223.02432 81.31968 229.67712 81.31968 
z
" clip-path="url(#p7e66987362)" style="fill: #fffdf5; stroke-dasharray: 5.18,2.24; stroke-dashoffset: 0; stroke: #f9a825; stroke-width: 1.4; stroke-linejoin: miter"/>
   </g>
   <g id="text_1">
    <!-- Self-Attention (1 head) -->
    <g style="fill: #f9a825" transform="translate(308.376038 93.392975) scale(0.1 -0.1)">
     <defs>
      <path id="DejaVuSans-Bold-53" d="M 3834 4519 
L 3834 3531 
Q 3450 3703 3084 3790 
Q 2719 3878 2394 3878 
Q 1963 3878 1756 3759 
Q 1550 3641 1550 3391 
Q 1550 3203 1689 3098 
Q 1828 2994 2194 2919 
L 2706 2816 
Q 3484 2659 3812 2340 
Q 4141 2022 4141 1434 
Q 4141 663 3683 286 
Q 3225 -91 2284 -91 
Q 1841 -91 1394 -6 
Q 947 78 500 244 
L 500 1259 
Q 947 1022 1364 901 
Q 1781 781 2169 781 
Q 2563 781 2772 912 
Q 2981 1044 2981 1288 
Q 2981 1506 2839 1625 
Q 2697 1744 2272 1838 
L 1806 1941 
Q 1106 2091 782 2419 
Q 459 2747 459 3303 
Q 459 4000 909 4375 
Q 1359 4750 2203 4750 
Q 2588 4750 2994 4692 
Q 3400 4634 3834 4519 
z
" transform="scale(0.015625)"/>
      <path id="DejaVuSans-Bold-65" d="M 4031 1759 
L 4031 1441 
L 1416 1441 
Q 1456 1047 1700 850 
Q 1944 653 2381 653 
Q 2734 653 3104 758 
Q 3475 863 3866 1075 
L 3866 213 
Q 3469 63 3072 -14 
Q 2675 -91 2278 -91 
Q 1328 -91 801 392 
Q 275 875 275 1747 
Q 275 2603 792 3093 
Q 1309 3584 2216 3584 
Q 3041 3584 3536 3087 
Q 4031 2591 4031 1759 
z
M 2881 2131 
Q 2881 2450 2695 2645 
Q 2509 2841 2209 2841 
Q 1884 2841 1681 2658 
Q 1478 2475 1428 2131 
L 2881 2131 
z
" transform="scale(0.015625)"/>
      <path id="DejaVuSans-Bold-6c" d="M 538 4863 
L 1656 4863 
L 1656 0 
L 538 0 
L 538 4863 
z
" transform="scale(0.015625)"/>
      <path id="DejaVuSans-Bold-66" d="M 2841 4863 
L 2841 4128 
L 2222 4128 
Q 1984 4128 1890 4042 
Q 1797 3956 1797 3744 
L 1797 3500 
L 2753 3500 
L 2753 2700 
L 1797 2700 
L 1797 0 
L 678 0 
L 678 2700 
L 122 2700 
L 122 3500 
L 678 3500 
L 678 3744 
Q 678 4316 997 4589 
Q 1316 4863 1984 4863 
L 2841 4863 
z
" transform="scale(0.015625)"/>
      <path id="DejaVuSans-Bold-2d" d="M 347 2297 
L 2309 2297 
L 2309 1388 
L 347 1388 
L 347 2297 
z
" transform="scale(0.015625)"/>
      <path id="DejaVuSans-Bold-41" d="M 3419 850 
L 1538 850 
L 1241 0 
L 31 0 
L 1759 4666 
L 3194 4666 
L 4922 0 
L 3713 0 
L 3419 850 
z
M 1838 1716 
L 3116 1716 
L 2478 3572 
L 1838 1716 
z
" transform="scale(0.015625)"/>
      <path id="DejaVuSans-Bold-74" d="M 1759 4494 
L 1759 3500 
L 2913 3500 
L 2913 2700 
L 1759 2700 
L 1759 1216 
Q 1759 972 1856 886 
Q 1953 800 2241 800 
L 2816 800 
L 2816 0 
L 1856 0 
Q 1194 0 917 276 
Q 641 553 641 1216 
L 641 2700 
L 84 2700 
L 84 3500 
L 641 3500 
L 641 4494 
L 1759 4494 
z
" transform="scale(0.015625)"/>
      <path id="DejaVuSans-Bold-6e" d="M 4056 2131 
L 4056 0 
L 2931 0 
L 2931 347 
L 2931 1631 
Q 2931 2084 2911 2256 
Q 2891 2428 2841 2509 
Q 2775 2619 2662 2680 
Q 2550 2741 2406 2741 
Q 2056 2741 1856 2470 
Q 1656 2200 1656 1722 
L 1656 0 
L 538 0 
L 538 3500 
L 1656 3500 
L 1656 2988 
Q 1909 3294 2193 3439 
Q 2478 3584 2822 3584 
Q 3428 3584 3742 3212 
Q 4056 2841 4056 2131 
z
" transform="scale(0.015625)"/>
      <path id="DejaVuSans-Bold-69" d="M 538 3500 
L 1656 3500 
L 1656 0 
L 538 0 
L 538 3500 
z
M 538 4863 
L 1656 4863 
L 1656 3950 
L 538 3950 
L 538 4863 
z
" transform="scale(0.015625)"/>
      <path id="DejaVuSans-Bold-6f" d="M 2203 2784 
Q 1831 2784 1636 2517 
Q 1441 2250 1441 1747 
Q 1441 1244 1636 976 
Q 1831 709 2203 709 
Q 2569 709 2762 976 
Q 2956 1244 2956 1747 
Q 2956 2250 2762 2517 
Q 2569 2784 2203 2784 
z
M 2203 3584 
Q 3106 3584 3614 3096 
Q 4122 2609 4122 1747 
Q 4122 884 3614 396 
Q 3106 -91 2203 -91 
Q 1297 -91 786 396 
Q 275 884 275 1747 
Q 275 2609 786 3096 
Q 1297 3584 2203 3584 
z
" transform="scale(0.015625)"/>
      <path id="DejaVuSans-Bold-20" transform="scale(0.015625)"/>
      <path id="DejaVuSans-Bold-28" d="M 2413 -844 
L 1484 -844 
Q 1006 -72 778 623 
Q 550 1319 550 2003 
Q 550 2688 779 3389 
Q 1009 4091 1484 4856 
L 2413 4856 
Q 2013 4116 1813 3408 
Q 1613 2700 1613 2009 
Q 1613 1319 1811 609 
Q 2009 -100 2413 -844 
z
" transform="scale(0.015625)"/>
      <path id="DejaVuSans-Bold-31" d="M 750 831 
L 1813 831 
L 1813 3847 
L 722 3622 
L 722 4441 
L 1806 4666 
L 2950 4666 
L 2950 831 
L 4013 831 
L 4013 0 
L 750 0 
L 750 831 
z
" transform="scale(0.015625)"/>
      <path id="DejaVuSans-Bold-68" d="M 4056 2131 
L 4056 0 
L 2931 0 
L 2931 347 
L 2931 1625 
Q 2931 2084 2911 2256 
Q 2891 2428 2841 2509 
Q 2775 2619 2662 2680 
Q 2550 2741 2406 2741 
Q 2056 2741 1856 2470 
Q 1656 2200 1656 1722 
L 1656 0 
L 538 0 
L 538 4863 
L 1656 4863 
L 1656 2988 
Q 1909 3294 2193 3439 
Q 2478 3584 2822 3584 
Q 3428 3584 3742 3212 
Q 4056 2841 4056 2131 
z
" transform="scale(0.015625)"/>
      <path id="DejaVuSans-Bold-61" d="M 2106 1575 
Q 1756 1575 1579 1456 
Q 1403 1338 1403 1106 
Q 1403 894 1545 773 
Q 1688 653 1941 653 
Q 2256 653 2472 879 
Q 2688 1106 2688 1447 
L 2688 1575 
L 2106 1575 
z
M 3816 1997 
L 3816 0 
L 2688 0 
L 2688 519 
Q 2463 200 2181 54 
Q 1900 -91 1497 -91 
Q 953 -91 614 226 
Q 275 544 275 1050 
Q 275 1666 698 1953 
Q 1122 2241 2028 2241 
L 2688 2241 
L 2688 2328 
Q 2688 2594 2478 2717 
Q 2269 2841 1825 2841 
Q 1466 2841 1156 2769 
Q 847 2697 581 2553 
L 581 3406 
Q 941 3494 1303 3539 
Q 1666 3584 2028 3584 
Q 2975 3584 3395 3211 
Q 3816 2838 3816 1997 
z
" transform="scale(0.015625)"/>
      <path id="DejaVuSans-Bold-64" d="M 2919 2988 
L 2919 4863 
L 4044 4863 
L 4044 0 
L 2919 0 
L 2919 506 
Q 2688 197 2409 53 
Q 2131 -91 1766 -91 
Q 1119 -91 703 423 
Q 288 938 288 1747 
Q 288 2556 703 3070 
Q 1119 3584 1766 3584 
Q 2128 3584 2408 3439 
Q 2688 3294 2919 2988 
z
M 2181 722 
Q 2541 722 2730 984 
Q 2919 1247 2919 1747 
Q 2919 2247 2730 2509 
Q 2541 2772 2181 2772 
Q 1825 2772 1636 2509 
Q 1447 2247 1447 1747 
Q 1447 1247 1636 984 
Q 1825 722 2181 722 
z
" transform="scale(0.015625)"/>
      <path id="DejaVuSans-Bold-29" d="M 513 -844 
Q 913 -100 1113 609 
Q 1313 1319 1313 2009 
Q 1313 2700 1113 3408 
Q 913 4116 513 4856 
L 1441 4856 
Q 1916 4091 2145 3389 
Q 2375 2688 2375 2003 
Q 2375 1319 2147 623 
Q 1919 -72 1441 -844 
L 513 -844 
z
" transform="scale(0.015625)"/>
     </defs>
     <use xlink:href="#DejaVuSans-Bold-53"/>
     <use xlink:href="#DejaVuSans-Bold-65" transform="translate(72.021484 0)"/>
     <use xlink:href="#DejaVuSans-Bold-6c" transform="translate(139.84375 0)"/>
     <use xlink:href="#DejaVuSans-Bold-66" transform="translate(174.121094 0)"/>
     <use xlink:href="#DejaVuSans-Bold-2d" transform="translate(215.876953 0)"/>
     <use xlink:href="#DejaVuSans-Bold-41" transform="translate(257.380859 0)"/>
     <use xlink:href="#DejaVuSans-Bold-74" transform="translate(334.773438 0)"/>
     <use xlink:href="#DejaVuSans-Bold-74" transform="translate(382.576172 0)"/>
     <use xlink:href="#DejaVuSans-Bold-65" transform="translate(430.378906 0)"/>
     <use xlink:href="#DejaVuSans-Bold-6e" transform="translate(498.201172 0)"/>
     <use xlink:href="#DejaVuSans-Bold-74" transform="translate(569.392578 0)"/>
     <use xlink:href="#DejaVuSans-Bold-69" transform="translate(617.195312 0)"/>
     <use xlink:href="#DejaVuSans-Bold-6f" transform="translate(651.472656 0)"/>
     <use xlink:href="#DejaVuSans-Bold-6e" transform="translate(720.173828 0)"/>
     <use xlink:href="#DejaVuSans-Bold-20" transform="translate(791.365234 0)"/>
     <use xlink:href="#DejaVuSans-Bold-28" transform="translate(826.179688 0)"/>
     <use xlink:href="#DejaVuSans-Bold-31" transform="translate(871.882812 0)"/>
     <use xlink:href="#DejaVuSans-Bold-20" transform="translate(941.462891 0)"/>
     <use xlink:href="#DejaVuSans-Bold-68" transform="translate(976.277344 0)"/>
     <use xlink:href="#DejaVuSans-Bold-65" transform="translate(1047.46875 0)"/>
     <use xlink:href="#DejaVuSans-Bold-61" transform="translate(1115.291016 0)"/>
     <use xlink:href="#DejaVuSans-Bold-64" transform="translate(1182.771484 0)"/>
     <use xlink:href="#DejaVuSans-Bold-29" transform="translate(1254.353516 0)"/>
    </g>
   </g>
   <g id="line2d_1">
    <path d="M 209.71872 162.48384 
L 209.71872 199.07424 
" style="fill: none; stroke-dasharray: 4.81,2.08; stroke-dashoffset: 0; stroke: #27ae60; stroke-width: 1.3"/>
   </g>
   <g id="line2d_2">
    <path d="M 209.71872 199.07424 
L 526.392 199.07424 
" style="fill: none; stroke-dasharray: 4.81,2.08; stroke-dashoffset: 0; stroke: #27ae60; stroke-width: 1.3"/>
   </g>
   <g id="line2d_3">
    <path d="M 526.392 162.48384 
L 526.392 199.07424 
" style="fill: none; stroke-dasharray: 4.81,2.08; stroke-dashoffset: 0; stroke: #27ae60; stroke-width: 1.3"/>
   </g>
   <g id="line2d_4">
    <path d="M 526.392 199.07424 
L 665.43552 199.07424 
" style="fill: none; stroke-dasharray: 4.81,2.08; stroke-dashoffset: 0; stroke: #27ae60; stroke-width: 1.3"/>
   </g>
   <g id="patch_3">
    <path d="M 35.41536 123.8976 
L 84.64608 123.8976 
Q 89.30304 123.8976 89.30304 128.55456 
L 89.30304 172.46304 
Q 89.30304 177.12 84.64608 177.12 
L 35.41536 177.12 
Q 30.7584 177.12 30.7584 172.46304 
L 30.7584 128.55456 
Q 30.7584 123.8976 35.41536 123.8976 
z
" clip-path="url(#p7e66987362)" style="fill: #e8f4fd; stroke: #34495e; stroke-width: 1.4; stroke-linejoin: miter"/>
   </g>
   <g id="patch_4">
    <path d="M 109.92672 103.27392 
L 177.12 103.27392 
Q 181.77696 103.27392 181.77696 107.93088 
L 181.77696 141.19488 
Q 181.77696 145.85184 177.12 145.85184 
L 109.92672 145.85184 
Q 105.26976 145.85184 105.26976 141.19488 
L 105.26976 107.93088 
Q 105.26976 103.27392 109.92672 103.27392 
z
" clip-path="url(#p7e66987362)" style="fill: #daeaf6; stroke: #34495e; stroke-width: 1.4; stroke-linejoin: miter"/>
   </g>
   <g id="patch_5">
    <path d="M 109.92672 155.16576 
L 177.12 155.16576 
Q 181.77696 155.16576 181.77696 159.82272 
L 181.77696 193.08672 
Q 181.77696 197.74368 177.12 197.74368 
L 109.92672 197.74368 
Q 105.26976 197.74368 105.26976 193.08672 
L 105.26976 159.82272 
Q 105.26976 155.16576 109.92672 155.16576 
z
" clip-path="url(#p7e66987362)" style="fill: #daeaf6; stroke: #34495e; stroke-width: 1.4; stroke-linejoin: miter"/>
   </g>
   <g id="patch_6">
    <path d="M 209.71872 138.53376 
C 212.894538 138.53376 215.94071 139.795526 218.186352 142.041168 
C 220.431994 144.28681 221.69376 147.332982 221.69376 150.5088 
C 221.69376 153.684618 220.431994 156.73079 218.186352 158.976432 
C 215.94071 161.222074 212.894538 162.48384 209.71872 162.48384 
C 206.542902 162.48384 203.49673 161.222074 201.251088 158.976432 
C 199.005446 156.73079 197.74368 153.684618 197.74368 150.5088 
C 197.74368 147.332982 199.005446 144.28681 201.251088 142.041168 
C 203.49673 139.795526 206.542902 138.53376 209.71872 138.53376 
z
" clip-path="url(#p7e66987362)" style="fill: #ffffff; stroke: #34495e; stroke-width: 1.4; stroke-linejoin: miter"/>
   </g>
   <g id="text_2">
    <!-- x : (B,T,C) = (8,8,2) -->
    <g style="fill: #777777" transform="translate(170.62372 96.1675) scale(0.08 -0.08)">
     <defs>
      <path id="DejaVuSans-78" d="M 3513 3500 
L 2247 1797 
L 3578 0 
L 2900 0 
L 1881 1375 
L 863 0 
L 184 0 
L 1544 1831 
L 300 3500 
L 978 3500 
L 1906 2253 
L 2834 3500 
L 3513 3500 
z
" transform="scale(0.015625)"/>
      <path id="DejaVuSans-20" transform="scale(0.015625)"/>
      <path id="DejaVuSans-3a" d="M 750 794 
L 1409 794 
L 1409 0 
L 750 0 
L 750 794 
z
M 750 3309 
L 1409 3309 
L 1409 2516 
L 750 2516 
L 750 3309 
z
" transform="scale(0.015625)"/>
      <path id="DejaVuSans-28" d="M 1984 4856 
Q 1566 4138 1362 3434 
Q 1159 2731 1159 2009 
Q 1159 1288 1364 580 
Q 1569 -128 1984 -844 
L 1484 -844 
Q 1016 -109 783 600 
Q 550 1309 550 2009 
Q 550 2706 781 3412 
Q 1013 4119 1484 4856 
L 1984 4856 
z
" transform="scale(0.015625)"/>
      <path id="DejaVuSans-42" d="M 1259 2228 
L 1259 519 
L 2272 519 
Q 2781 519 3026 730 
Q 3272 941 3272 1375 
Q 3272 1813 3026 2020 
Q 2781 2228 2272 2228 
L 1259 2228 
z
M 1259 4147 
L 1259 2741 
L 2194 2741 
Q 2656 2741 2882 2914 
Q 3109 3088 3109 3444 
Q 3109 3797 2882 3972 
Q 2656 4147 2194 4147 
L 1259 4147 
z
M 628 4666 
L 2241 4666 
Q 2963 4666 3353 4366 
Q 3744 4066 3744 3513 
Q 3744 3084 3544 2831 
Q 3344 2578 2956 2516 
Q 3422 2416 3680 2098 
Q 3938 1781 3938 1306 
Q 3938 681 3513 340 
Q 3088 0 2303 0 
L 628 0 
L 628 4666 
z
" transform="scale(0.015625)"/>
      <path id="DejaVuSans-2c" d="M 750 794 
L 1409 794 
L 1409 256 
L 897 -744 
L 494 -744 
L 750 256 
L 750 794 
z
" transform="scale(0.015625)"/>
      <path id="DejaVuSans-54" d="M -19 4666 
L 3928 4666 
L 3928 4134 
L 2272 4134 
L 2272 0 
L 1638 0 
L 1638 4134 
L -19 4134 
L -19 4666 
z
" transform="scale(0.015625)"/>
      <path id="DejaVuSans-43" d="M 4122 4306 
L 4122 3641 
Q 3803 3938 3442 4084 
Q 3081 4231 2675 4231 
Q 1875 4231 1450 3742 
Q 1025 3253 1025 2328 
Q 1025 1406 1450 917 
Q 1875 428 2675 428 
Q 3081 428 3442 575 
Q 3803 722 4122 1019 
L 4122 359 
Q 3791 134 3420 21 
Q 3050 -91 2638 -91 
Q 1578 -91 968 557 
Q 359 1206 359 2328 
Q 359 3453 968 4101 
Q 1578 4750 2638 4750 
Q 3056 4750 3426 4639 
Q 3797 4528 4122 4306 
z
" transform="scale(0.015625)"/>
      <path id="DejaVuSans-29" d="M 513 4856 
L 1013 4856 
Q 1481 4119 1714 3412 
Q 1947 2706 1947 2009 
Q 1947 1309 1714 600 
Q 1481 -109 1013 -844 
L 513 -844 
Q 928 -128 1133 580 
Q 1338 1288 1338 2009 
Q 1338 2731 1133 3434 
Q 928 4138 513 4856 
z
" transform="scale(0.015625)"/>
      <path id="DejaVuSans-3d" d="M 678 2906 
L 4684 2906 
L 4684 2381 
L 678 2381 
L 678 2906 
z
M 678 1631 
L 4684 1631 
L 4684 1100 
L 678 1100 
L 678 1631 
z
" transform="scale(0.015625)"/>
      <path id="DejaVuSans-38" d="M 2034 2216 
Q 1584 2216 1326 1975 
Q 1069 1734 1069 1313 
Q 1069 891 1326 650 
Q 1584 409 2034 409 
Q 2484 409 2743 651 
Q 3003 894 3003 1313 
Q 3003 1734 2745 1975 
Q 2488 2216 2034 2216 
z
M 1403 2484 
Q 997 2584 770 2862 
Q 544 3141 544 3541 
Q 544 4100 942 4425 
Q 1341 4750 2034 4750 
Q 2731 4750 3128 4425 
Q 3525 4100 3525 3541 
Q 3525 3141 3298 2862 
Q 3072 2584 2669 2484 
Q 3125 2378 3379 2068 
Q 3634 1759 3634 1313 
Q 3634 634 3220 271 
Q 2806 -91 2034 -91 
Q 1263 -91 848 271 
Q 434 634 434 1313 
Q 434 1759 690 2068 
Q 947 2378 1403 2484 
z
M 1172 3481 
Q 1172 3119 1398 2916 
Q 1625 2713 2034 2713 
Q 2441 2713 2670 2916 
Q 2900 3119 2900 3481 
Q 2900 3844 2670 4047 
Q 2441 4250 2034 4250 
Q 1625 4250 1398 4047 
Q 1172 3844 1172 3481 
z
" transform="scale(0.015625)"/>
      <path id="DejaVuSans-32" d="M 1228 531 
L 3431 531 
L 3431 0 
L 469 0 
L 469 531 
Q 828 903 1448 1529 
Q 2069 2156 2228 2338 
Q 2531 2678 2651 2914 
Q 2772 3150 2772 3378 
Q 2772 3750 2511 3984 
Q 2250 4219 1831 4219 
Q 1534 4219 1204 4116 
Q 875 4013 500 3803 
L 500 4441 
Q 881 4594 1212 4672 
Q 1544 4750 1819 4750 
Q 2544 4750 2975 4387 
Q 3406 4025 3406 3419 
Q 3406 3131 3298 2873 
Q 3191 2616 2906 2266 
Q 2828 2175 2409 1742 
Q 1991 1309 1228 531 
z
" transform="scale(0.015625)"/>
     </defs>
     <use xlink:href="#DejaVuSans-78"/>
     <use xlink:href="#DejaVuSans-20" transform="translate(59.179688 0)"/>
     <use xlink:href="#DejaVuSans-3a" transform="translate(90.966797 0)"/>
     <use xlink:href="#DejaVuSans-20" transform="translate(124.658203 0)"/>
     <use xlink:href="#DejaVuSans-28" transform="translate(156.445312 0)"/>
     <use xlink:href="#DejaVuSans-42" transform="translate(195.458984 0)"/>
     <use xlink:href="#DejaVuSans-2c" transform="translate(264.0625 0)"/>
     <use xlink:href="#DejaVuSans-54" transform="translate(295.849609 0)"/>
     <use xlink:href="#DejaVuSans-2c" transform="translate(356.933594 0)"/>
     <use xlink:href="#DejaVuSans-43" transform="translate(388.720703 0)"/>
     <use xlink:href="#DejaVuSans-29" transform="translate(458.544922 0)"/>
     <use xlink:href="#DejaVuSans-20" transform="translate(497.558594 0)"/>
     <use xlink:href="#DejaVuSans-3d" transform="translate(529.345703 0)"/>
     <use xlink:href="#DejaVuSans-20" transform="translate(613.134766 0)"/>
     <use xlink:href="#DejaVuSans-28" transform="translate(644.921875 0)"/>
     <use xlink:href="#DejaVuSans-38" transform="translate(683.935547 0)"/>
     <use xlink:href="#DejaVuSans-2c" transform="translate(747.558594 0)"/>
     <use xlink:href="#DejaVuSans-38" transform="translate(779.345703 0)"/>
     <use xlink:href="#DejaVuSans-2c" transform="translate(842.96875 0)"/>
     <use xlink:href="#DejaVuSans-32" transform="translate(874.755859 0)"/>
     <use xlink:href="#DejaVuSans-29" transform="translate(938.378906 0)"/>
    </g>
   </g>
   <g id="patch_7">
    <path d="M 242.31744 101.27808 
L 276.912 101.27808 
Q 281.56896 101.27808 281.56896 105.93504 
L 281.56896 125.89344 
Q 281.56896 130.5504 276.912 130.5504 
L 242.31744 130.5504 
Q 237.66048 130.5504 237.66048 125.89344 
L 237.66048 105.93504 
Q 237.66048 101.27808 242.31744 101.27808 
z
" clip-path="url(#p7e66987362)" style="fill: #fff8e1; stroke: #34495e; stroke-width: 1.4; stroke-linejoin: miter"/>
   </g>
   <g id="patch_8">
    <path d="M 242.31744 135.87264 
L 276.912 135.87264 
Q 281.56896 135.87264 281.56896 140.5296 
L 281.56896 160.488 
Q 281.56896 165.14496 276.912 165.14496 
L 242.31744 165.14496 
Q 237.66048 165.14496 237.66048 160.488 
L 237.66048 140.5296 
Q 237.66048 135.87264 242.31744 135.87264 
z
" clip-path="url(#p7e66987362)" style="fill: #fff8e1; stroke: #34495e; stroke-width: 1.4; stroke-linejoin: miter"/>
   </g>
   <g id="patch_9">
    <path d="M 242.31744 170.4672 
L 276.912 170.4672 
Q 281.56896 170.4672 281.56896 175.12416 
L 281.56896 195.08256 
Q 281.56896 199.73952 276.912 199.73952 
L 242.31744 199.73952 
Q 237.66048 199.73952 237.66048 195.08256 
L 237.66048 175.12416 
Q 237.66048 170.4672 242.31744 170.4672 
z
" clip-path="url(#p7e66987362)" style="fill: #fff8e1; stroke: #34495e; stroke-width: 1.4; stroke-linejoin: miter"/>
   </g>
   <g id="patch_10">
    <path d="M 302.19264 123.8976 
L 346.10112 123.8976 
Q 350.75808 123.8976 350.75808 128.55456 
L 350.75808 172.46304 
Q 350.75808 177.12 346.10112 177.12 
L 302.19264 177.12 
Q 297.53568 177.12 297.53568 172.46304 
L 297.53568 128.55456 
Q 297.53568 123.8976 302.19264 123.8976 
z
" clip-path="url(#p7e66987362)" style="fill: #fff8e1; stroke: #34495e; stroke-width: 1.4; stroke-linejoin: miter"/>
   </g>
   <g id="patch_11">
    <path d="M 371.38176 123.8976 
L 421.94304 123.8976 
Q 426.6 123.8976 426.6 128.55456 
L 426.6 172.46304 
Q 426.6 177.12 421.94304 177.12 
L 371.38176 177.12 
Q 366.7248 177.12 366.7248 172.46304 
L 366.7248 128.55456 
Q 366.7248 123.8976 371.38176 123.8976 
z
" clip-path="url(#p7e66987362)" style="fill: #fff8e1; stroke: #34495e; stroke-width: 1.4; stroke-linejoin: miter"/>
   </g>
   <g id="patch_12">
    <path d="M 447.22368 123.8976 
L 489.8016 123.8976 
Q 494.45856 123.8976 494.45856 128.55456 
L 494.45856 172.46304 
Q 494.45856 177.12 489.8016 177.12 
L 447.22368 177.12 
Q 442.56672 177.12 442.56672 172.46304 
L 442.56672 128.55456 
Q 442.56672 123.8976 447.22368 123.8976 
z
" clip-path="url(#p7e66987362)" style="fill: #fff8e1; stroke: #34495e; stroke-width: 1.4; stroke-linejoin: miter"/>
   </g>
   <g id="patch_13">
    <path d="M 526.392 138.53376 
C 529.567818 138.53376 532.61399 139.795526 534.859632 142.041168 
C 537.105274 144.28681 538.36704 147.332982 538.36704 150.5088 
C 538.36704 153.684618 537.105274 156.73079 534.859632 158.976432 
C 532.61399 161.222074 529.567818 162.48384 526.392 162.48384 
C 523.216182 162.48384 520.17001 161.222074 517.924368 158.976432 
C 515.678726 156.73079 514.41696 153.684618 514.41696 150.5088 
C 514.41696 147.332982 515.678726 144.28681 517.924368 142.041168 
C 520.17001 139.795526 523.216182 138.53376 526.392 138.53376 
z
" clip-path="url(#p7e66987362)" style="fill: #ffffff; stroke: #34495e; stroke-width: 1.4; stroke-linejoin: miter"/>
   </g>
   <g id="patch_14">
    <path d="M 558.99072 123.8976 
L 632.8368 123.8976 
Q 637.49376 123.8976 637.49376 128.55456 
L 637.49376 172.46304 
Q 637.49376 177.12 632.8368 177.12 
L 558.99072 177.12 
Q 554.33376 177.12 554.33376 172.46304 
L 554.33376 128.55456 
Q 554.33376 123.8976 558.99072 123.8976 
z
" clip-path="url(#p7e66987362)" style="fill: #fadbd8; stroke: #34495e; stroke-width: 1.4; stroke-linejoin: miter"/>
   </g>
   <g id="patch_15">
    <path d="M 665.43552 138.53376 
C 668.611338 138.53376 671.65751 139.795526 673.903152 142.041168 
C 676.148794 144.28681 677.41056 147.332982 677.41056 150.5088 
C 677.41056 153.684618 676.148794 156.73079 673.903152 158.976432 
C 671.65751 161.222074 668.611338 162.48384 665.43552 162.48384 
C 662.259702 162.48384 659.21353 161.222074 656.967888 158.976432 
C 654.722246 156.73079 653.46048 153.684618 653.46048 150.5088 
C 653.46048 147.332982 654.722246 144.28681 656.967888 142.041168 
C 659.21353 139.795526 662.259702 138.53376 665.43552 138.53376 
z
" clip-path="url(#p7e66987362)" style="fill: #ffffff; stroke: #34495e; stroke-width: 1.4; stroke-linejoin: miter"/>
   </g>
   <g id="patch_16">
    <path d="M 698.03424 123.8976 
L 747.26496 123.8976 
Q 751.92192 123.8976 751.92192 128.55456 
L 751.92192 172.46304 
Q 751.92192 177.12 747.26496 177.12 
L 698.03424 177.12 
Q 693.37728 177.12 693.37728 172.46304 
L 693.37728 128.55456 
Q 693.37728 123.8976 698.03424 123.8976 
z
" clip-path="url(#p7e66987362)" style="fill: #d5f5e3; stroke: #34495e; stroke-width: 1.4; stroke-linejoin: miter"/>
   </g>
   <g id="patch_17">
    <path d="M 772.5456 123.8976 
L 813.79296 123.8976 
Q 818.44992 123.8976 818.44992 128.55456 
L 818.44992 172.46304 
Q 818.44992 177.12 813.79296 177.12 
L 772.5456 177.12 
Q 767.88864 177.12 767.88864 172.46304 
L 767.88864 128.55456 
Q 767.88864 123.8976 772.5456 123.8976 
z
" clip-path="url(#p7e66987362)" style="fill: #d5f5e3; stroke: #34495e; stroke-width: 1.4; stroke-linejoin: miter"/>
   </g>
   <g id="patch_18">
    <path d="M 839.0736 123.8976 
L 890.96544 123.8976 
Q 895.6224 123.8976 895.6224 128.55456 
L 895.6224 172.46304 
Q 895.6224 177.12 890.96544 177.12 
L 839.0736 177.12 
Q 834.41664 177.12 834.41664 172.46304 
L 834.41664 128.55456 
Q 834.41664 123.8976 839.0736 123.8976 
z
" clip-path="url(#p7e66987362)" style="fill: #d5f5e3; stroke: #34495e; stroke-width: 1.4; stroke-linejoin: miter"/>
   </g>
   <g id="text_3">
    <!-- Notation -->
    <g style="fill: #34495e" transform="translate(839.0736 32.654676) scale(0.095 -0.095)">
     <defs>
      <path id="DejaVuSans-Bold-4e" d="M 588 4666 
L 1931 4666 
L 3628 1466 
L 3628 4666 
L 4769 4666 
L 4769 0 
L 3425 0 
L 1728 3200 
L 1728 0 
L 588 0 
L 588 4666 
z
" transform="scale(0.015625)"/>
     </defs>
     <use xlink:href="#DejaVuSans-Bold-4e"/>
     <use xlink:href="#DejaVuSans-Bold-6f" transform="translate(83.691406 0)"/>
     <use xlink:href="#DejaVuSans-Bold-74" transform="translate(152.392578 0)"/>
     <use xlink:href="#DejaVuSans-Bold-61" transform="translate(200.195312 0)"/>
     <use xlink:href="#DejaVuSans-Bold-74" transform="translate(267.675781 0)"/>
     <use xlink:href="#DejaVuSans-Bold-69" transform="translate(315.478516 0)"/>
     <use xlink:href="#DejaVuSans-Bold-6f" transform="translate(349.755859 0)"/>
     <use xlink:href="#DejaVuSans-Bold-6e" transform="translate(418.457031 0)"/>
    </g>
   </g>
   <g id="text_4">
    <!-- B = 8  (batch) -->
    <g style="fill: #555555" transform="translate(839.0736 43.48995) scale(0.08 -0.08)">
     <defs>
      <path id="DejaVuSans-62" d="M 3116 1747 
Q 3116 2381 2855 2742 
Q 2594 3103 2138 3103 
Q 1681 3103 1420 2742 
Q 1159 2381 1159 1747 
Q 1159 1113 1420 752 
Q 1681 391 2138 391 
Q 2594 391 2855 752 
Q 3116 1113 3116 1747 
z
M 1159 2969 
Q 1341 3281 1617 3432 
Q 1894 3584 2278 3584 
Q 2916 3584 3314 3078 
Q 3713 2572 3713 1747 
Q 3713 922 3314 415 
Q 2916 -91 2278 -91 
Q 1894 -91 1617 61 
Q 1341 213 1159 525 
L 1159 0 
L 581 0 
L 581 4863 
L 1159 4863 
L 1159 2969 
z
" transform="scale(0.015625)"/>
      <path id="DejaVuSans-61" d="M 2194 1759 
Q 1497 1759 1228 1600 
Q 959 1441 959 1056 
Q 959 750 1161 570 
Q 1363 391 1709 391 
Q 2188 391 2477 730 
Q 2766 1069 2766 1631 
L 2766 1759 
L 2194 1759 
z
M 3341 1997 
L 3341 0 
L 2766 0 
L 2766 531 
Q 2569 213 2275 61 
Q 1981 -91 1556 -91 
Q 1019 -91 701 211 
Q 384 513 384 1019 
Q 384 1609 779 1909 
Q 1175 2209 1959 2209 
L 2766 2209 
L 2766 2266 
Q 2766 2663 2505 2880 
Q 2244 3097 1772 3097 
Q 1472 3097 1187 3025 
Q 903 2953 641 2809 
L 641 3341 
Q 956 3463 1253 3523 
Q 1550 3584 1831 3584 
Q 2591 3584 2966 3190 
Q 3341 2797 3341 1997 
z
" transform="scale(0.015625)"/>
      <path id="DejaVuSans-74" d="M 1172 4494 
L 1172 3500 
L 2356 3500 
L 2356 3053 
L 1172 3053 
L 1172 1153 
Q 1172 725 1289 603 
Q 1406 481 1766 481 
L 2356 481 
L 2356 0 
L 1766 0 
Q 1100 0 847 248 
Q 594 497 594 1153 
L 594 3053 
L 172 3053 
L 172 3500 
L 594 3500 
L 594 4494 
L 1172 4494 
z
" transform="scale(0.015625)"/>
      <path id="DejaVuSans-63" d="M 3122 3366 
L 3122 2828 
Q 2878 2963 2633 3030 
Q 2388 3097 2138 3097 
Q 1578 3097 1268 2742 
Q 959 2388 959 1747 
Q 959 1106 1268 751 
Q 1578 397 2138 397 
Q 2388 397 2633 464 
Q 2878 531 3122 666 
L 3122 134 
Q 2881 22 2623 -34 
Q 2366 -91 2075 -91 
Q 1284 -91 818 406 
Q 353 903 353 1747 
Q 353 2603 823 3093 
Q 1294 3584 2113 3584 
Q 2378 3584 2631 3529 
Q 2884 3475 3122 3366 
z
" transform="scale(0.015625)"/>
      <path id="DejaVuSans-68" d="M 3513 2113 
L 3513 0 
L 2938 0 
L 2938 2094 
Q 2938 2591 2744 2837 
Q 2550 3084 2163 3084 
Q 1697 3084 1428 2787 
Q 1159 2491 1159 1978 
L 1159 0 
L 581 0 
L 581 4863 
L 1159 4863 
L 1159 2956 
Q 1366 3272 1645 3428 
Q 1925 3584 2291 3584 
Q 2894 3584 3203 3211 
Q 3513 2838 3513 2113 
z
" transform="scale(0.015625)"/>
     </defs>
     <use xlink:href="#DejaVuSans-42"/>
     <use xlink:href="#DejaVuSans-20" transform="translate(68.603516 0)"/>
     <use xlink:href="#DejaVuSans-3d" transform="translate(100.390625 0)"/>
     <use xlink:href="#DejaVuSans-20" transform="translate(184.179688 0)"/>
     <use xlink:href="#DejaVuSans-38" transform="translate(215.966797 0)"/>
     <use xlink:href="#DejaVuSans-20" transform="translate(279.589844 0)"/>
     <use xlink:href="#DejaVuSans-20" transform="translate(311.376953 0)"/>
     <use xlink:href="#DejaVuSans-28" transform="translate(343.164062 0)"/>
     <use xlink:href="#DejaVuSans-62" transform="translate(382.177734 0)"/>
     <use xlink:href="#DejaVuSans-61" transform="translate(445.654297 0)"/>
     <use xlink:href="#DejaVuSans-74" transform="translate(506.933594 0)"/>
     <use xlink:href="#DejaVuSans-63" transform="translate(546.142578 0)"/>
     <use xlink:href="#DejaVuSans-68" transform="translate(601.123047 0)"/>
     <use xlink:href="#DejaVuSans-29" transform="translate(664.501953 0)"/>
    </g>
   </g>
   <g id="text_5">
    <!-- T = 8  (sequence) -->
    <g style="fill: #555555" transform="translate(839.0736 53.46915) scale(0.08 -0.08)">
     <defs>
      <path id="DejaVuSans-73" d="M 2834 3397 
L 2834 2853 
Q 2591 2978 2328 3040 
Q 2066 3103 1784 3103 
Q 1356 3103 1142 2972 
Q 928 2841 928 2578 
Q 928 2378 1081 2264 
Q 1234 2150 1697 2047 
L 1894 2003 
Q 2506 1872 2764 1633 
Q 3022 1394 3022 966 
Q 3022 478 2636 193 
Q 2250 -91 1575 -91 
Q 1294 -91 989 -36 
Q 684 19 347 128 
L 347 722 
Q 666 556 975 473 
Q 1284 391 1588 391 
Q 1994 391 2212 530 
Q 2431 669 2431 922 
Q 2431 1156 2273 1281 
Q 2116 1406 1581 1522 
L 1381 1569 
Q 847 1681 609 1914 
Q 372 2147 372 2553 
Q 372 3047 722 3315 
Q 1072 3584 1716 3584 
Q 2034 3584 2315 3537 
Q 2597 3491 2834 3397 
z
" transform="scale(0.015625)"/>
      <path id="DejaVuSans-65" d="M 3597 1894 
L 3597 1613 
L 953 1613 
Q 991 1019 1311 708 
Q 1631 397 2203 397 
Q 2534 397 2845 478 
Q 3156 559 3463 722 
L 3463 178 
Q 3153 47 2828 -22 
Q 2503 -91 2169 -91 
Q 1331 -91 842 396 
Q 353 884 353 1716 
Q 353 2575 817 3079 
Q 1281 3584 2069 3584 
Q 2775 3584 3186 3129 
Q 3597 2675 3597 1894 
z
M 3022 2063 
Q 3016 2534 2758 2815 
Q 2500 3097 2075 3097 
Q 1594 3097 1305 2825 
Q 1016 2553 972 2059 
L 3022 2063 
z
" transform="scale(0.015625)"/>
      <path id="DejaVuSans-71" d="M 947 1747 
Q 947 1113 1208 752 
Q 1469 391 1925 391 
Q 2381 391 2643 752 
Q 2906 1113 2906 1747 
Q 2906 2381 2643 2742 
Q 2381 3103 1925 3103 
Q 1469 3103 1208 2742 
Q 947 2381 947 1747 
z
M 2906 525 
Q 2725 213 2448 61 
Q 2172 -91 1784 -91 
Q 1150 -91 751 415 
Q 353 922 353 1747 
Q 353 2572 751 3078 
Q 1150 3584 1784 3584 
Q 2172 3584 2448 3432 
Q 2725 3281 2906 2969 
L 2906 3500 
L 3481 3500 
L 3481 -1331 
L 2906 -1331 
L 2906 525 
z
" transform="scale(0.015625)"/>
      <path id="DejaVuSans-75" d="M 544 1381 
L 544 3500 
L 1119 3500 
L 1119 1403 
Q 1119 906 1312 657 
Q 1506 409 1894 409 
Q 2359 409 2629 706 
Q 2900 1003 2900 1516 
L 2900 3500 
L 3475 3500 
L 3475 0 
L 2900 0 
L 2900 538 
Q 2691 219 2414 64 
Q 2138 -91 1772 -91 
Q 1169 -91 856 284 
Q 544 659 544 1381 
z
M 1991 3584 
L 1991 3584 
z
" transform="scale(0.015625)"/>
      <path id="DejaVuSans-6e" d="M 3513 2113 
L 3513 0 
L 2938 0 
L 2938 2094 
Q 2938 2591 2744 2837 
Q 2550 3084 2163 3084 
Q 1697 3084 1428 2787 
Q 1159 2491 1159 1978 
L 1159 0 
L 581 0 
L 581 3500 
L 1159 3500 
L 1159 2956 
Q 1366 3272 1645 3428 
Q 1925 3584 2291 3584 
Q 2894 3584 3203 3211 
Q 3513 2838 3513 2113 
z
" transform="scale(0.015625)"/>
     </defs>
     <use xlink:href="#DejaVuSans-54"/>
     <use xlink:href="#DejaVuSans-20" transform="translate(61.083984 0)"/>
     <use xlink:href="#DejaVuSans-3d" transform="translate(92.871094 0)"/>
     <use xlink:href="#DejaVuSans-20" transform="translate(176.660156 0)"/>
     <use xlink:href="#DejaVuSans-38" transform="translate(208.447266 0)"/>
     <use xlink:href="#DejaVuSans-20" transform="translate(272.070312 0)"/>
     <use xlink:href="#DejaVuSans-20" transform="translate(303.857422 0)"/>
     <use xlink:href="#DejaVuSans-28" transform="translate(335.644531 0)"/>
     <use xlink:href="#DejaVuSans-73" transform="translate(374.658203 0)"/>
     <use xlink:href="#DejaVuSans-65" transform="translate(426.757812 0)"/>
     <use xlink:href="#DejaVuSans-71" transform="translate(488.28125 0)"/>
     <use xlink:href="#DejaVuSans-75" transform="translate(551.757812 0)"/>
     <use xlink:href="#DejaVuSans-65" transform="translate(615.136719 0)"/>
     <use xlink:href="#DejaVuSans-6e" transform="translate(676.660156 0)"/>
     <use xlink:href="#DejaVuSans-63" transform="translate(740.039062 0)"/>
     <use xlink:href="#DejaVuSans-65" transform="translate(795.019531 0)"/>
     <use xlink:href="#DejaVuSans-29" transform="translate(856.542969 0)"/>
    </g>
   </g>
   <g id="text_6">
    <!-- C = 2  (n_embd) -->
    <g style="fill: #555555" transform="translate(839.0736 63.44835) scale(0.08 -0.08)">
     <defs>
      <path id="DejaVuSans-5f" d="M 3263 -1063 
L 3263 -1509 
L -63 -1509 
L -63 -1063 
L 3263 -1063 
z
" transform="scale(0.015625)"/>
      <path id="DejaVuSans-6d" d="M 3328 2828 
Q 3544 3216 3844 3400 
Q 4144 3584 4550 3584 
Q 5097 3584 5394 3201 
Q 5691 2819 5691 2113 
L 5691 0 
L 5113 0 
L 5113 2094 
Q 5113 2597 4934 2840 
Q 4756 3084 4391 3084 
Q 3944 3084 3684 2787 
Q 3425 2491 3425 1978 
L 3425 0 
L 2847 0 
L 2847 2094 
Q 2847 2600 2669 2842 
Q 2491 3084 2119 3084 
Q 1678 3084 1418 2786 
Q 1159 2488 1159 1978 
L 1159 0 
L 581 0 
L 581 3500 
L 1159 3500 
L 1159 2956 
Q 1356 3278 1631 3431 
Q 1906 3584 2284 3584 
Q 2666 3584 2933 3390 
Q 3200 3197 3328 2828 
z
" transform="scale(0.015625)"/>
      <path id="DejaVuSans-64" d="M 2906 2969 
L 2906 4863 
L 3481 4863 
L 3481 0 
L 2906 0 
L 2906 525 
Q 2725 213 2448 61 
Q 2172 -91 1784 -91 
Q 1150 -91 751 415 
Q 353 922 353 1747 
Q 353 2572 751 3078 
Q 1150 3584 1784 3584 
Q 2172 3584 2448 3432 
Q 2725 3281 2906 2969 
z
M 947 1747 
Q 947 1113 1208 752 
Q 1469 391 1925 391 
Q 2381 391 2643 752 
Q 2906 1113 2906 1747 
Q 2906 2381 2643 2742 
Q 2381 3103 1925 3103 
Q 1469 3103 1208 2742 
Q 947 2381 947 1747 
z
" transform="scale(0.015625)"/>
     </defs>
     <use xlink:href="#DejaVuSans-43"/>
     <use xlink:href="#DejaVuSans-20" transform="translate(69.824219 0)"/>
     <use xlink:href="#DejaVuSans-3d" transform="translate(101.611328 0)"/>
     <use xlink:href="#DejaVuSans-20" transform="translate(185.400391 0)"/>
     <use xlink:href="#DejaVuSans-32" transform="translate(217.1875 0)"/>
     <use xlink:href="#DejaVuSans-20" transform="translate(280.810547 0)"/>
     <use xlink:href="#DejaVuSans-20" transform="translate(312.597656 0)"/>
     <use xlink:href="#DejaVuSans-28" transform="translate(344.384766 0)"/>
     <use xlink:href="#DejaVuSans-6e" transform="translate(383.398438 0)"/>
     <use xlink:href="#DejaVuSans-5f" transform="translate(446.777344 0)"/>
     <use xlink:href="#DejaVuSans-65" transform="translate(496.777344 0)"/>
     <use xlink:href="#DejaVuSans-6d" transform="translate(558.300781 0)"/>
     <use xlink:href="#DejaVuSans-62" transform="translate(655.712891 0)"/>
     <use xlink:href="#DejaVuSans-64" transform="translate(719.189453 0)"/>
     <use xlink:href="#DejaVuSans-29" transform="translate(782.666016 0)"/>
    </g>
   </g>
   <g id="text_7">
    <!-- d_k = 2  (head size) -->
    <g style="fill: #555555" transform="translate(839.0736 73.42755) scale(0.08 -0.08)">
     <defs>
      <path id="DejaVuSans-6b" d="M 581 4863 
L 1159 4863 
L 1159 1991 
L 2875 3500 
L 3609 3500 
L 1753 1863 
L 3688 0 
L 2938 0 
L 1159 1709 
L 1159 0 
L 581 0 
L 581 4863 
z
" transform="scale(0.015625)"/>
      <path id="DejaVuSans-69" d="M 603 3500 
L 1178 3500 
L 1178 0 
L 603 0 
L 603 3500 
z
M 603 4863 
L 1178 4863 
L 1178 4134 
L 603 4134 
L 603 4863 
z
" transform="scale(0.015625)"/>
      <path id="DejaVuSans-7a" d="M 353 3500 
L 3084 3500 
L 3084 2975 
L 922 459 
L 3084 459 
L 3084 0 
L 275 0 
L 275 525 
L 2438 3041 
L 353 3041 
L 353 3500 
z
" transform="scale(0.015625)"/>
     </defs>
     <use xlink:href="#DejaVuSans-64"/>
     <use xlink:href="#DejaVuSans-5f" transform="translate(63.476562 0)"/>
     <use xlink:href="#DejaVuSans-6b" transform="translate(113.476562 0)"/>
     <use xlink:href="#DejaVuSans-20" transform="translate(171.386719 0)"/>
     <use xlink:href="#DejaVuSans-3d" transform="translate(203.173828 0)"/>
     <use xlink:href="#DejaVuSans-20" transform="translate(286.962891 0)"/>
     <use xlink:href="#DejaVuSans-32" transform="translate(318.75 0)"/>
     <use xlink:href="#DejaVuSans-20" transform="translate(382.373047 0)"/>
     <use xlink:href="#DejaVuSans-20" transform="translate(414.160156 0)"/>
     <use xlink:href="#DejaVuSans-28" transform="translate(445.947266 0)"/>
     <use xlink:href="#DejaVuSans-68" transform="translate(484.960938 0)"/>
     <use xlink:href="#DejaVuSans-65" transform="translate(548.339844 0)"/>
     <use xlink:href="#DejaVuSans-61" transform="translate(609.863281 0)"/>
     <use xlink:href="#DejaVuSans-64" transform="translate(671.142578 0)"/>
     <use xlink:href="#DejaVuSans-20" transform="translate(734.619141 0)"/>
     <use xlink:href="#DejaVuSans-73" transform="translate(766.40625 0)"/>
     <use xlink:href="#DejaVuSans-69" transform="translate(818.505859 0)"/>
     <use xlink:href="#DejaVuSans-7a" transform="translate(846.289062 0)"/>
     <use xlink:href="#DejaVuSans-65" transform="translate(898.779297 0)"/>
     <use xlink:href="#DejaVuSans-29" transform="translate(960.302734 0)"/>
    </g>
   </g>
   <g id="text_8">
    <!-- vocab = 12 -->
    <g style="fill: #555555" transform="translate(839.0736 83.40675) scale(0.08 -0.08)">
     <defs>
      <path id="DejaVuSans-76" d="M 191 3500 
L 800 3500 
L 1894 563 
L 2988 3500 
L 3597 3500 
L 2284 0 
L 1503 0 
L 191 3500 
z
" transform="scale(0.015625)"/>
      <path id="DejaVuSans-6f" d="M 1959 3097 
Q 1497 3097 1228 2736 
Q 959 2375 959 1747 
Q 959 1119 1226 758 
Q 1494 397 1959 397 
Q 2419 397 2687 759 
Q 2956 1122 2956 1747 
Q 2956 2369 2687 2733 
Q 2419 3097 1959 3097 
z
M 1959 3584 
Q 2709 3584 3137 3096 
Q 3566 2609 3566 1747 
Q 3566 888 3137 398 
Q 2709 -91 1959 -91 
Q 1206 -91 779 398 
Q 353 888 353 1747 
Q 353 2609 779 3096 
Q 1206 3584 1959 3584 
z
" transform="scale(0.015625)"/>
      <path id="DejaVuSans-31" d="M 794 531 
L 1825 531 
L 1825 4091 
L 703 3866 
L 703 4441 
L 1819 4666 
L 2450 4666 
L 2450 531 
L 3481 531 
L 3481 0 
L 794 0 
L 794 531 
z
" transform="scale(0.015625)"/>
     </defs>
     <use xlink:href="#DejaVuSans-76"/>
     <use xlink:href="#DejaVuSans-6f" transform="translate(59.179688 0)"/>
     <use xlink:href="#DejaVuSans-63" transform="translate(120.361328 0)"/>
     <use xlink:href="#DejaVuSans-61" transform="translate(175.341797 0)"/>
     <use xlink:href="#DejaVuSans-62" transform="translate(236.621094 0)"/>
     <use xlink:href="#DejaVuSans-20" transform="translate(300.097656 0)"/>
     <use xlink:href="#DejaVuSans-3d" transform="translate(331.884766 0)"/>
     <use xlink:href="#DejaVuSans-20" transform="translate(415.673828 0)"/>
     <use xlink:href="#DejaVuSans-31" transform="translate(447.460938 0)"/>
     <use xlink:href="#DejaVuSans-32" transform="translate(511.083984 0)"/>
    </g>
   </g>
   <g id="patch_19">
    <path d="M 32.75424 321.48576 
L 38.07648 321.48576 
Q 40.07232 321.48576 40.07232 323.4816 
L 40.07232 328.80384 
Q 40.07232 330.79968 38.07648 330.79968 
L 32.75424 330.79968 
Q 30.7584 330.79968 30.7584 328.80384 
L 30.7584 323.4816 
Q 30.7584 321.48576 32.75424 321.48576 
z
" clip-path="url(#p7e66987362)" style="fill: #daeaf6; stroke: #34495e; stroke-width: 0.8; stroke-linejoin: miter"/>
   </g>
   <g id="patch_20">
    <path d="M 112.58784 321.48576 
L 117.91008 321.48576 
Q 119.90592 321.48576 119.90592 323.4816 
L 119.90592 328.80384 
Q 119.90592 330.79968 117.91008 330.79968 
L 112.58784 330.79968 
Q 110.592 330.79968 110.592 328.80384 
L 110.592 323.4816 
Q 110.592 321.48576 112.58784 321.48576 
z
" clip-path="url(#p7e66987362)" style="fill: #fff8e1; stroke: #34495e; stroke-width: 0.8; stroke-linejoin: miter"/>
   </g>
   <g id="patch_21">
    <path d="M 192.42144 321.48576 
L 197.74368 321.48576 
Q 199.73952 321.48576 199.73952 323.4816 
L 199.73952 328.80384 
Q 199.73952 330.79968 197.74368 330.79968 
L 192.42144 330.79968 
Q 190.4256 330.79968 190.4256 328.80384 
L 190.4256 323.4816 
Q 190.4256 321.48576 192.42144 321.48576 
z
" clip-path="url(#p7e66987362)" style="fill: #fadbd8; stroke: #34495e; stroke-width: 0.8; stroke-linejoin: miter"/>
   </g>
   <g id="patch_22">
    <path d="M 272.25504 321.48576 
L 277.57728 321.48576 
Q 279.57312 321.48576 279.57312 323.4816 
L 279.57312 328.80384 
Q 279.57312 330.79968 277.57728 330.79968 
L 272.25504 330.79968 
Q 270.2592 330.79968 270.2592 328.80384 
L 270.2592 323.4816 
Q 270.2592 321.48576 272.25504 321.48576 
z
" clip-path="url(#p7e66987362)" style="fill: #d5f5e3; stroke: #34495e; stroke-width: 0.8; stroke-linejoin: miter"/>
   </g>
   <g id="text_9">
    <!-- Input -->
    <g style="fill: #34495e" transform="translate(44.335681 143.194096) scale(0.105 -0.105)">
     <defs>
      <path id="DejaVuSans-Bold-49" d="M 588 4666 
L 1791 4666 
L 1791 0 
L 588 0 
L 588 4666 
z
" transform="scale(0.015625)"/>
      <path id="DejaVuSans-Bold-70" d="M 1656 506 
L 1656 -1331 
L 538 -1331 
L 538 3500 
L 1656 3500 
L 1656 2988 
Q 1888 3294 2169 3439 
Q 2450 3584 2816 3584 
Q 3463 3584 3878 3070 
Q 4294 2556 4294 1747 
Q 4294 938 3878 423 
Q 3463 -91 2816 -91 
Q 2450 -91 2169 54 
Q 1888 200 1656 506 
z
M 2400 2772 
Q 2041 2772 1848 2508 
Q 1656 2244 1656 1747 
Q 1656 1250 1848 986 
Q 2041 722 2400 722 
Q 2759 722 2948 984 
Q 3138 1247 3138 1747 
Q 3138 2247 2948 2509 
Q 2759 2772 2400 2772 
z
" transform="scale(0.015625)"/>
      <path id="DejaVuSans-Bold-75" d="M 500 1363 
L 500 3500 
L 1625 3500 
L 1625 3150 
Q 1625 2866 1622 2436 
Q 1619 2006 1619 1863 
Q 1619 1441 1641 1255 
Q 1663 1069 1716 984 
Q 1784 875 1895 815 
Q 2006 756 2150 756 
Q 2500 756 2700 1025 
Q 2900 1294 2900 1772 
L 2900 3500 
L 4019 3500 
L 4019 0 
L 2900 0 
L 2900 506 
Q 2647 200 2364 54 
Q 2081 -91 1741 -91 
Q 1134 -91 817 281 
Q 500 653 500 1363 
z
" transform="scale(0.015625)"/>
     </defs>
     <use xlink:href="#DejaVuSans-Bold-49"/>
     <use xlink:href="#DejaVuSans-Bold-6e" transform="translate(37.207031 0)"/>
     <use xlink:href="#DejaVuSans-Bold-70" transform="translate(108.398438 0)"/>
     <use xlink:href="#DejaVuSans-Bold-75" transform="translate(179.980469 0)"/>
     <use xlink:href="#DejaVuSans-Bold-74" transform="translate(251.171875 0)"/>
    </g>
   </g>
   <g id="text_10">
    <!-- Tokens -->
    <g style="fill: #34495e" transform="translate(39.761618 152.973712) scale(0.105 -0.105)">
     <defs>
      <path id="DejaVuSans-Bold-54" d="M 31 4666 
L 4331 4666 
L 4331 3756 
L 2784 3756 
L 2784 0 
L 1581 0 
L 1581 3756 
L 31 3756 
L 31 4666 
z
" transform="scale(0.015625)"/>
      <path id="DejaVuSans-Bold-6b" d="M 538 4863 
L 1656 4863 
L 1656 2216 
L 2944 3500 
L 4244 3500 
L 2534 1894 
L 4378 0 
L 3022 0 
L 1656 1459 
L 1656 0 
L 538 0 
L 538 4863 
z
" transform="scale(0.015625)"/>
      <path id="DejaVuSans-Bold-73" d="M 3272 3391 
L 3272 2541 
Q 2913 2691 2578 2766 
Q 2244 2841 1947 2841 
Q 1628 2841 1473 2761 
Q 1319 2681 1319 2516 
Q 1319 2381 1436 2309 
Q 1553 2238 1856 2203 
L 2053 2175 
Q 2913 2066 3209 1816 
Q 3506 1566 3506 1031 
Q 3506 472 3093 190 
Q 2681 -91 1863 -91 
Q 1516 -91 1145 -36 
Q 775 19 384 128 
L 384 978 
Q 719 816 1070 734 
Q 1422 653 1784 653 
Q 2113 653 2278 743 
Q 2444 834 2444 1013 
Q 2444 1163 2330 1236 
Q 2216 1309 1875 1350 
L 1678 1375 
Q 931 1469 631 1722 
Q 331 1975 331 2491 
Q 331 3047 712 3315 
Q 1094 3584 1881 3584 
Q 2191 3584 2531 3537 
Q 2872 3491 3272 3391 
z
" transform="scale(0.015625)"/>
     </defs>
     <use xlink:href="#DejaVuSans-Bold-54"/>
     <use xlink:href="#DejaVuSans-Bold-6f" transform="translate(54.962891 0)"/>
     <use xlink:href="#DejaVuSans-Bold-6b" transform="translate(123.664062 0)"/>
     <use xlink:href="#DejaVuSans-Bold-65" transform="translate(187.542969 0)"/>
     <use xlink:href="#DejaVuSans-Bold-6e" transform="translate(255.365234 0)"/>
     <use xlink:href="#DejaVuSans-Bold-73" transform="translate(326.556641 0)"/>
    </g>
   </g>
   <g id="text_11">
    <!-- (8, 8) -->
    <g style="fill: #666666" transform="translate(48.604861 163.066317) scale(0.085 -0.085)">
     <use xlink:href="#DejaVuSans-28"/>
     <use xlink:href="#DejaVuSans-38" transform="translate(39.013672 0)"/>
     <use xlink:href="#DejaVuSans-2c" transform="translate(102.636719 0)"/>
     <use xlink:href="#DejaVuSans-20" transform="translate(134.423828 0)"/>
     <use xlink:href="#DejaVuSans-38" transform="translate(166.210938 0)"/>
     <use xlink:href="#DejaVuSans-29" transform="translate(229.833984 0)"/>
    </g>
   </g>
   <g id="text_12">
    <!-- Token Emb -->
    <g style="fill: #34495e" transform="translate(111.736251 122.137984) scale(0.105 -0.105)">
     <defs>
      <path id="DejaVuSans-Bold-45" d="M 588 4666 
L 3834 4666 
L 3834 3756 
L 1791 3756 
L 1791 2888 
L 3713 2888 
L 3713 1978 
L 1791 1978 
L 1791 909 
L 3903 909 
L 3903 0 
L 588 0 
L 588 4666 
z
" transform="scale(0.015625)"/>
      <path id="DejaVuSans-Bold-6d" d="M 3781 2919 
Q 3994 3244 4286 3414 
Q 4578 3584 4928 3584 
Q 5531 3584 5847 3212 
Q 6163 2841 6163 2131 
L 6163 0 
L 5038 0 
L 5038 1825 
Q 5041 1866 5042 1909 
Q 5044 1953 5044 2034 
Q 5044 2406 4934 2573 
Q 4825 2741 4581 2741 
Q 4263 2741 4089 2478 
Q 3916 2216 3909 1719 
L 3909 0 
L 2784 0 
L 2784 1825 
Q 2784 2406 2684 2573 
Q 2584 2741 2328 2741 
Q 2006 2741 1831 2477 
Q 1656 2213 1656 1722 
L 1656 0 
L 531 0 
L 531 3500 
L 1656 3500 
L 1656 2988 
Q 1863 3284 2130 3434 
Q 2397 3584 2719 3584 
Q 3081 3584 3359 3409 
Q 3638 3234 3781 2919 
z
" transform="scale(0.015625)"/>
      <path id="DejaVuSans-Bold-62" d="M 2400 722 
Q 2759 722 2948 984 
Q 3138 1247 3138 1747 
Q 3138 2247 2948 2509 
Q 2759 2772 2400 2772 
Q 2041 2772 1848 2508 
Q 1656 2244 1656 1747 
Q 1656 1250 1848 986 
Q 2041 722 2400 722 
z
M 1656 2988 
Q 1888 3294 2169 3439 
Q 2450 3584 2816 3584 
Q 3463 3584 3878 3070 
Q 4294 2556 4294 1747 
Q 4294 938 3878 423 
Q 3463 -91 2816 -91 
Q 2450 -91 2169 54 
Q 1888 200 1656 506 
L 1656 0 
L 538 0 
L 538 4863 
L 1656 4863 
L 1656 2988 
z
" transform="scale(0.015625)"/>
     </defs>
     <use xlink:href="#DejaVuSans-Bold-54"/>
     <use xlink:href="#DejaVuSans-Bold-6f" transform="translate(54.962891 0)"/>
     <use xlink:href="#DejaVuSans-Bold-6b" transform="translate(123.664062 0)"/>
     <use xlink:href="#DejaVuSans-Bold-65" transform="translate(187.542969 0)"/>
     <use xlink:href="#DejaVuSans-Bold-6e" transform="translate(255.365234 0)"/>
     <use xlink:href="#DejaVuSans-Bold-20" transform="translate(326.556641 0)"/>
     <use xlink:href="#DejaVuSans-Bold-45" transform="translate(361.371094 0)"/>
     <use xlink:href="#DejaVuSans-Bold-6d" transform="translate(429.681641 0)"/>
     <use xlink:href="#DejaVuSans-Bold-62" transform="translate(533.880859 0)"/>
    </g>
   </g>
   <g id="text_13">
    <!-- (12, 2) -->
    <g style="fill: #666666" transform="translate(129.393438 132.230589) scale(0.085 -0.085)">
     <use xlink:href="#DejaVuSans-28"/>
     <use xlink:href="#DejaVuSans-31" transform="translate(39.013672 0)"/>
     <use xlink:href="#DejaVuSans-32" transform="translate(102.636719 0)"/>
     <use xlink:href="#DejaVuSans-2c" transform="translate(166.259766 0)"/>
     <use xlink:href="#DejaVuSans-20" transform="translate(198.046875 0)"/>
     <use xlink:href="#DejaVuSans-32" transform="translate(229.833984 0)"/>
     <use xlink:href="#DejaVuSans-29" transform="translate(293.457031 0)"/>
    </g>
   </g>
   <g id="text_14">
    <!-- Position Emb -->
    <g style="fill: #34495e" transform="translate(104.848087 174.029824) scale(0.105 -0.105)">
     <defs>
      <path id="DejaVuSans-Bold-50" d="M 588 4666 
L 2584 4666 
Q 3475 4666 3951 4270 
Q 4428 3875 4428 3144 
Q 4428 2409 3951 2014 
Q 3475 1619 2584 1619 
L 1791 1619 
L 1791 0 
L 588 0 
L 588 4666 
z
M 1791 3794 
L 1791 2491 
L 2456 2491 
Q 2806 2491 2997 2661 
Q 3188 2831 3188 3144 
Q 3188 3456 2997 3625 
Q 2806 3794 2456 3794 
L 1791 3794 
z
" transform="scale(0.015625)"/>
     </defs>
     <use xlink:href="#DejaVuSans-Bold-50"/>
     <use xlink:href="#DejaVuSans-Bold-6f" transform="translate(73.291016 0)"/>
     <use xlink:href="#DejaVuSans-Bold-73" transform="translate(141.992188 0)"/>
     <use xlink:href="#DejaVuSans-Bold-69" transform="translate(201.513672 0)"/>
     <use xlink:href="#DejaVuSans-Bold-74" transform="translate(235.791016 0)"/>
     <use xlink:href="#DejaVuSans-Bold-69" transform="translate(283.59375 0)"/>
     <use xlink:href="#DejaVuSans-Bold-6f" transform="translate(317.871094 0)"/>
     <use xlink:href="#DejaVuSans-Bold-6e" transform="translate(386.572266 0)"/>
     <use xlink:href="#DejaVuSans-Bold-20" transform="translate(457.763672 0)"/>
     <use xlink:href="#DejaVuSans-Bold-45" transform="translate(492.578125 0)"/>
     <use xlink:href="#DejaVuSans-Bold-6d" transform="translate(560.888672 0)"/>
     <use xlink:href="#DejaVuSans-Bold-62" transform="translate(665.087891 0)"/>
    </g>
   </g>
   <g id="text_15">
    <!-- (8, 2) -->
    <g style="fill: #666666" transform="translate(132.097501 184.122429) scale(0.085 -0.085)">
     <use xlink:href="#DejaVuSans-28"/>
     <use xlink:href="#DejaVuSans-38" transform="translate(39.013672 0)"/>
     <use xlink:href="#DejaVuSans-2c" transform="translate(102.636719 0)"/>
     <use xlink:href="#DejaVuSans-20" transform="translate(134.423828 0)"/>
     <use xlink:href="#DejaVuSans-32" transform="translate(166.210938 0)"/>
     <use xlink:href="#DejaVuSans-29" transform="translate(229.833984 0)"/>
    </g>
   </g>
   <g id="text_16">
    <!-- + -->
    <g style="fill: #34495e" transform="translate(203.433954 154.647863) scale(0.15 -0.15)">
     <defs>
      <path id="DejaVuSans-Bold-2b" d="M 3053 4013 
L 3053 2375 
L 4684 2375 
L 4684 1638 
L 3053 1638 
L 3053 0 
L 2309 0 
L 2309 1638 
L 678 1638 
L 678 2375 
L 2309 2375 
L 2309 4013 
L 3053 4013 
z
" transform="scale(0.015625)"/>
     </defs>
     <use xlink:href="#DejaVuSans-Bold-2b"/>
    </g>
   </g>
   <g id="text_17">
    <!-- W_Q -->
    <g style="fill: #34495e" transform="translate(247.349095 113.124031) scale(0.1 -0.1)">
     <defs>
      <path id="DejaVuSans-Bold-57" d="M 191 4666 
L 1344 4666 
L 2150 1275 
L 2950 4666 
L 4109 4666 
L 4909 1275 
L 5716 4666 
L 6859 4666 
L 5759 0 
L 4372 0 
L 3525 3547 
L 2688 0 
L 1300 0 
L 191 4666 
z
" transform="scale(0.015625)"/>
      <path id="DejaVuSans-Bold-5f" d="M 3200 -916 
L 3200 -1509 
L 0 -1509 
L 0 -916 
L 3200 -916 
z
" transform="scale(0.015625)"/>
      <path id="DejaVuSans-Bold-51" d="M 2847 -84 
L 2753 -84 
Q 1600 -84 959 553 
Q 319 1191 319 2328 
Q 319 3463 958 4106 
Q 1597 4750 2719 4750 
Q 3853 4750 4486 4112 
Q 5119 3475 5119 2328 
Q 5119 1541 4783 972 
Q 4447 403 3816 116 
L 4756 -934 
L 3609 -934 
L 2847 -84 
z
M 2719 3878 
Q 2169 3878 1866 3472 
Q 1563 3066 1563 2328 
Q 1563 1578 1859 1179 
Q 2156 781 2719 781 
Q 3272 781 3575 1187 
Q 3878 1594 3878 2328 
Q 3878 3066 3575 3472 
Q 3272 3878 2719 3878 
z
" transform="scale(0.015625)"/>
     </defs>
     <use xlink:href="#DejaVuSans-Bold-57"/>
     <use xlink:href="#DejaVuSans-Bold-5f" transform="translate(110.302734 0)"/>
     <use xlink:href="#DejaVuSans-Bold-51" transform="translate(160.302734 0)"/>
    </g>
   </g>
   <g id="text_18">
    <!-- 22 -->
    <g style="fill: #666666" transform="translate(251.172845 123.44398) scale(0.08 -0.08)">
     <defs>
      <path id="DejaVuSans-2192" d="M 5050 2147 
L 5050 1866 
L 3822 638 
L 3447 1013 
L 4175 1741 
L 366 1741 
L 366 2272 
L 4175 2272 
L 3447 3000 
L 3822 3375 
L 5050 2147 
z
" transform="scale(0.015625)"/>
     </defs>
     <use xlink:href="#DejaVuSans-32"/>
     <use xlink:href="#DejaVuSans-2192" transform="translate(63.623047 0)"/>
     <use xlink:href="#DejaVuSans-32" transform="translate(147.412109 0)"/>
    </g>
   </g>
   <g id="text_19">
    <!-- W_K -->
    <g style="fill: #34495e" transform="translate(247.725658 147.66781) scale(0.1 -0.1)">
     <defs>
      <path id="DejaVuSans-Bold-4b" d="M 588 4666 
L 1791 4666 
L 1791 2963 
L 3525 4666 
L 4922 4666 
L 2675 2456 
L 5153 0 
L 3647 0 
L 1791 1838 
L 1791 0 
L 588 0 
L 588 4666 
z
" transform="scale(0.015625)"/>
     </defs>
     <use xlink:href="#DejaVuSans-Bold-57"/>
     <use xlink:href="#DejaVuSans-Bold-5f" transform="translate(110.302734 0)"/>
     <use xlink:href="#DejaVuSans-Bold-4b" transform="translate(160.302734 0)"/>
    </g>
   </g>
   <g id="text_20">
    <!-- 22 -->
    <g style="fill: #666666" transform="translate(251.172845 158.03854) scale(0.08 -0.08)">
     <use xlink:href="#DejaVuSans-32"/>
     <use xlink:href="#DejaVuSans-2192" transform="translate(63.623047 0)"/>
     <use xlink:href="#DejaVuSans-32" transform="translate(147.412109 0)"/>
    </g>
   </g>
   <g id="text_21">
    <!-- W_V -->
    <g style="fill: #34495e" transform="translate(247.730345 182.26237) scale(0.1 -0.1)">
     <defs>
      <path id="DejaVuSans-Bold-56" d="M 31 4666 
L 1241 4666 
L 2478 1222 
L 3713 4666 
L 4922 4666 
L 3194 0 
L 1759 0 
L 31 4666 
z
" transform="scale(0.015625)"/>
     </defs>
     <use xlink:href="#DejaVuSans-Bold-57"/>
     <use xlink:href="#DejaVuSans-Bold-5f" transform="translate(110.302734 0)"/>
     <use xlink:href="#DejaVuSans-Bold-56" transform="translate(160.302734 0)"/>
    </g>
   </g>
   <g id="text_22">
    <!-- 22 -->
    <g style="fill: #666666" transform="translate(251.172845 192.6331) scale(0.08 -0.08)">
     <use xlink:href="#DejaVuSans-32"/>
     <use xlink:href="#DejaVuSans-2192" transform="translate(63.623047 0)"/>
     <use xlink:href="#DejaVuSans-32" transform="translate(147.412109 0)"/>
    </g>
   </g>
   <g id="text_23">
    <!-- QK / d -->
    <g style="fill: #34495e" transform="translate(299.214849 153.343175) scale(0.1 -0.1)">
     <defs>
      <path id="DejaVuSans-Bold-1d40" d="M 19 4700 
L 2728 4700 
L 2728 4191 
L 1753 4191 
L 1753 2088 
L 997 2088 
L 997 4191 
L 19 4191 
L 19 4700 
z
" transform="scale(0.015625)"/>
      <path id="DejaVuSans-Bold-2f" d="M 1644 4666 
L 2338 4666 
L 691 -594 
L 0 -594 
L 1644 4666 
z
" transform="scale(0.015625)"/>
      <path id="DejaVuSans-Bold-221a" d="M 3609 5356 
L 4281 5356 
L 4281 4891 
L 3981 4891 
L 2138 -128 
L 1766 -128 
L 806 2516 
L 353 2344 
L 238 2747 
L 1363 3144 
L 2059 1159 
L 3609 5356 
z
" transform="scale(0.015625)"/>
      <path id="DejaVuSans-Bold-2096" d="M 341 2697 
L 1047 2697 
L 1047 1216 
L 1856 1935 
L 2675 1935 
L 1600 1035 
L 2759 -24 
L 1906 -24 
L 1047 794 
L 1047 -24 
L 341 -24 
L 341 2697 
z
" transform="scale(0.015625)"/>
     </defs>
     <use xlink:href="#DejaVuSans-Bold-51"/>
     <use xlink:href="#DejaVuSans-Bold-4b" transform="translate(85.009766 0)"/>
     <use xlink:href="#DejaVuSans-Bold-1d40" transform="translate(162.5 0)"/>
     <use xlink:href="#DejaVuSans-Bold-20" transform="translate(205.46875 0)"/>
     <use xlink:href="#DejaVuSans-Bold-2f" transform="translate(240.283203 0)"/>
     <use xlink:href="#DejaVuSans-Bold-20" transform="translate(276.806641 0)"/>
     <use xlink:href="#DejaVuSans-Bold-221a" transform="translate(311.621094 0)"/>
     <use xlink:href="#DejaVuSans-Bold-64" transform="translate(378.320312 0)"/>
     <use xlink:href="#DejaVuSans-Bold-2096" transform="translate(449.902344 0)"/>
    </g>
   </g>
   <g id="text_24">
    <!-- Causal Mask -->
    <g style="fill: #34495e" transform="translate(363.356736 148.706094) scale(0.095 -0.095)">
     <defs>
      <path id="DejaVuSans-Bold-43" d="M 4288 256 
Q 3956 84 3597 -3 
Q 3238 -91 2847 -91 
Q 1681 -91 1000 561 
Q 319 1213 319 2328 
Q 319 3447 1000 4098 
Q 1681 4750 2847 4750 
Q 3238 4750 3597 4662 
Q 3956 4575 4288 4403 
L 4288 3438 
Q 3953 3666 3628 3772 
Q 3303 3878 2944 3878 
Q 2300 3878 1931 3465 
Q 1563 3053 1563 2328 
Q 1563 1606 1931 1193 
Q 2300 781 2944 781 
Q 3303 781 3628 887 
Q 3953 994 4288 1222 
L 4288 256 
z
" transform="scale(0.015625)"/>
      <path id="DejaVuSans-Bold-4d" d="M 588 4666 
L 2119 4666 
L 3181 2169 
L 4250 4666 
L 5778 4666 
L 5778 0 
L 4641 0 
L 4641 3413 
L 3566 897 
L 2803 897 
L 1728 3413 
L 1728 0 
L 588 0 
L 588 4666 
z
" transform="scale(0.015625)"/>
     </defs>
     <use xlink:href="#DejaVuSans-Bold-43"/>
     <use xlink:href="#DejaVuSans-Bold-61" transform="translate(73.388672 0)"/>
     <use xlink:href="#DejaVuSans-Bold-75" transform="translate(140.869141 0)"/>
     <use xlink:href="#DejaVuSans-Bold-73" transform="translate(212.060547 0)"/>
     <use xlink:href="#DejaVuSans-Bold-61" transform="translate(271.582031 0)"/>
     <use xlink:href="#DejaVuSans-Bold-6c" transform="translate(339.0625 0)"/>
     <use xlink:href="#DejaVuSans-Bold-20" transform="translate(373.339844 0)"/>
     <use xlink:href="#DejaVuSans-Bold-4d" transform="translate(408.154297 0)"/>
     <use xlink:href="#DejaVuSans-Bold-61" transform="translate(507.666016 0)"/>
     <use xlink:href="#DejaVuSans-Bold-73" transform="translate(575.146484 0)"/>
     <use xlink:href="#DejaVuSans-Bold-6b" transform="translate(634.667969 0)"/>
    </g>
   </g>
   <g id="text_25">
    <!-- + Softmax -->
    <g style="fill: #34495e" transform="translate(368.788806 157.554318) scale(0.095 -0.095)">
     <defs>
      <path id="DejaVuSans-Bold-78" d="M 1422 1791 
L 159 3500 
L 1344 3500 
L 2059 2463 
L 2784 3500 
L 3969 3500 
L 2706 1797 
L 4031 0 
L 2847 0 
L 2059 1106 
L 1281 0 
L 97 0 
L 1422 1791 
z
" transform="scale(0.015625)"/>
     </defs>
     <use xlink:href="#DejaVuSans-Bold-2b"/>
     <use xlink:href="#DejaVuSans-Bold-20" transform="translate(83.789062 0)"/>
     <use xlink:href="#DejaVuSans-Bold-53" transform="translate(118.603516 0)"/>
     <use xlink:href="#DejaVuSans-Bold-6f" transform="translate(190.625 0)"/>
     <use xlink:href="#DejaVuSans-Bold-66" transform="translate(259.326172 0)"/>
     <use xlink:href="#DejaVuSans-Bold-74" transform="translate(302.832031 0)"/>
     <use xlink:href="#DejaVuSans-Bold-6d" transform="translate(350.634766 0)"/>
     <use xlink:href="#DejaVuSans-Bold-61" transform="translate(454.833984 0)"/>
     <use xlink:href="#DejaVuSans-Bold-78" transform="translate(522.314453 0)"/>
    </g>
   </g>
   <g id="text_26">
    <!-- Attn  V -->
    <g style="fill: #34495e" transform="translate(443.57596 153.406144) scale(0.105 -0.105)">
     <defs>
      <path id="DejaVuSans-Bold-d7" d="M 4563 3359 
L 3206 2003 
L 4563 653 
L 4038 128 
L 2681 1478 
L 1325 128 
L 800 653 
L 2156 2003 
L 800 3359 
L 1325 3884 
L 2681 2528 
L 4038 3884 
L 4563 3359 
z
" transform="scale(0.015625)"/>
     </defs>
     <use xlink:href="#DejaVuSans-Bold-41"/>
     <use xlink:href="#DejaVuSans-Bold-74" transform="translate(77.392578 0)"/>
     <use xlink:href="#DejaVuSans-Bold-74" transform="translate(125.195312 0)"/>
     <use xlink:href="#DejaVuSans-Bold-6e" transform="translate(172.998047 0)"/>
     <use xlink:href="#DejaVuSans-Bold-20" transform="translate(244.189453 0)"/>
     <use xlink:href="#DejaVuSans-Bold-d7" transform="translate(279.003906 0)"/>
     <use xlink:href="#DejaVuSans-Bold-20" transform="translate(362.792969 0)"/>
     <use xlink:href="#DejaVuSans-Bold-56" transform="translate(397.607422 0)"/>
    </g>
   </g>
   <g id="text_27">
    <!-- + -->
    <g style="fill: #34495e" transform="translate(520.107234 154.647863) scale(0.15 -0.15)">
     <use xlink:href="#DejaVuSans-Bold-2b"/>
    </g>
   </g>
   <g id="text_28">
    <!-- x (skip around attention) -->
    <g style="fill: #27ae60" transform="translate(318.30411 209.2651) scale(0.08 -0.08)">
     <defs>
      <path id="DejaVuSans-Oblique-78" d="M 3841 3500 
L 2234 1784 
L 3219 0 
L 2559 0 
L 1819 1388 
L 531 0 
L -166 0 
L 1556 1844 
L 641 3500 
L 1300 3500 
L 1972 2234 
L 3144 3500 
L 3841 3500 
z
" transform="scale(0.015625)"/>
      <path id="DejaVuSans-Oblique-20" transform="scale(0.015625)"/>
      <path id="DejaVuSans-Oblique-28" d="M 2731 4856 
Q 1903 3822 1495 2892 
Q 1088 1963 1088 1100 
Q 1088 606 1206 120 
Q 1325 -366 1563 -844 
L 1063 -844 
Q 775 -306 634 201 
Q 494 709 494 1197 
Q 494 2125 923 3036 
Q 1353 3947 2222 4856 
L 2731 4856 
z
" transform="scale(0.015625)"/>
      <path id="DejaVuSans-Oblique-73" d="M 3200 3397 
L 3091 2853 
Q 2863 2978 2609 3040 
Q 2356 3103 2088 3103 
Q 1634 3103 1373 2948 
Q 1113 2794 1113 2528 
Q 1113 2219 1719 2053 
Q 1766 2041 1788 2034 
L 1972 1978 
Q 2547 1819 2739 1644 
Q 2931 1469 2931 1166 
Q 2931 609 2489 259 
Q 2047 -91 1331 -91 
Q 1053 -91 747 -37 
Q 441 16 72 128 
L 184 722 
Q 500 559 806 475 
Q 1113 391 1394 391 
Q 1816 391 2080 572 
Q 2344 753 2344 1031 
Q 2344 1331 1650 1516 
L 1591 1531 
L 1394 1581 
Q 956 1697 753 1886 
Q 550 2075 550 2369 
Q 550 2928 970 3256 
Q 1391 3584 2113 3584 
Q 2397 3584 2667 3537 
Q 2938 3491 3200 3397 
z
" transform="scale(0.015625)"/>
      <path id="DejaVuSans-Oblique-6b" d="M 1172 4863 
L 1747 4863 
L 1197 2028 
L 3169 3500 
L 3916 3500 
L 1716 1825 
L 3322 0 
L 2625 0 
L 1131 1709 
L 800 0 
L 225 0 
L 1172 4863 
z
" transform="scale(0.015625)"/>
      <path id="DejaVuSans-Oblique-69" d="M 1172 4863 
L 1747 4863 
L 1606 4134 
L 1031 4134 
L 1172 4863 
z
M 909 3500 
L 1484 3500 
L 800 0 
L 225 0 
L 909 3500 
z
" transform="scale(0.015625)"/>
      <path id="DejaVuSans-Oblique-70" d="M 3175 2156 
Q 3175 2616 2975 2859 
Q 2775 3103 2400 3103 
Q 2144 3103 1911 2972 
Q 1678 2841 1497 2591 
Q 1319 2344 1212 1994 
Q 1106 1644 1106 1300 
Q 1106 863 1306 627 
Q 1506 391 1875 391 
Q 2147 391 2380 519 
Q 2613 647 2778 891 
Q 2956 1147 3065 1494 
Q 3175 1841 3175 2156 
z
M 1394 2969 
Q 1625 3272 1939 3428 
Q 2253 3584 2638 3584 
Q 3175 3584 3472 3232 
Q 3769 2881 3769 2247 
Q 3769 1728 3584 1258 
Q 3400 788 3053 416 
Q 2822 169 2531 39 
Q 2241 -91 1919 -91 
Q 1547 -91 1294 64 
Q 1041 219 916 525 
L 556 -1331 
L -19 -1331 
L 922 3500 
L 1497 3500 
L 1394 2969 
z
" transform="scale(0.015625)"/>
      <path id="DejaVuSans-Oblique-61" d="M 3438 1997 
L 3047 0 
L 2472 0 
L 2578 531 
Q 2325 219 2001 64 
Q 1678 -91 1281 -91 
Q 834 -91 548 182 
Q 263 456 263 884 
Q 263 1497 752 1853 
Q 1241 2209 2100 2209 
L 2900 2209 
L 2931 2363 
Q 2938 2388 2941 2417 
Q 2944 2447 2944 2509 
Q 2944 2788 2717 2942 
Q 2491 3097 2081 3097 
Q 1800 3097 1504 3025 
Q 1209 2953 897 2809 
L 997 3341 
Q 1322 3463 1633 3523 
Q 1944 3584 2234 3584 
Q 2853 3584 3176 3315 
Q 3500 3047 3500 2534 
Q 3500 2431 3484 2292 
Q 3469 2153 3438 1997 
z
M 2816 1759 
L 2241 1759 
Q 1534 1759 1195 1570 
Q 856 1381 856 984 
Q 856 709 1029 553 
Q 1203 397 1509 397 
Q 1978 397 2328 733 
Q 2678 1069 2791 1631 
L 2816 1759 
z
" transform="scale(0.015625)"/>
      <path id="DejaVuSans-Oblique-72" d="M 2853 2969 
Q 2766 3016 2653 3041 
Q 2541 3066 2413 3066 
Q 1953 3066 1609 2717 
Q 1266 2369 1153 1784 
L 800 0 
L 225 0 
L 909 3500 
L 1484 3500 
L 1375 2956 
Q 1603 3259 1920 3421 
Q 2238 3584 2597 3584 
Q 2691 3584 2781 3573 
Q 2872 3563 2963 3538 
L 2853 2969 
z
" transform="scale(0.015625)"/>
      <path id="DejaVuSans-Oblique-6f" d="M 1625 -91 
Q 1009 -91 651 289 
Q 294 669 294 1325 
Q 294 1706 417 2101 
Q 541 2497 738 2766 
Q 1047 3184 1428 3384 
Q 1809 3584 2291 3584 
Q 2888 3584 3255 3212 
Q 3622 2841 3622 2241 
Q 3622 1825 3500 1412 
Q 3378 1000 3181 728 
Q 2875 309 2494 109 
Q 2113 -91 1625 -91 
z
M 891 1344 
Q 891 869 1089 633 
Q 1288 397 1691 397 
Q 2269 397 2648 901 
Q 3028 1406 3028 2181 
Q 3028 2634 2825 2865 
Q 2622 3097 2228 3097 
Q 1903 3097 1650 2945 
Q 1397 2794 1197 2484 
Q 1050 2253 970 1956 
Q 891 1659 891 1344 
z
" transform="scale(0.015625)"/>
      <path id="DejaVuSans-Oblique-75" d="M 428 1388 
L 838 3500 
L 1416 3500 
L 1006 1409 
Q 975 1256 961 1147 
Q 947 1038 947 966 
Q 947 700 1109 554 
Q 1272 409 1569 409 
Q 2031 409 2368 721 
Q 2706 1034 2809 1563 
L 3194 3500 
L 3769 3500 
L 3091 0 
L 2516 0 
L 2631 550 
Q 2388 244 2052 76 
Q 1716 -91 1338 -91 
Q 878 -91 622 161 
Q 366 413 366 863 
Q 366 956 381 1097 
Q 397 1238 428 1388 
z
" transform="scale(0.015625)"/>
      <path id="DejaVuSans-Oblique-6e" d="M 3566 2113 
L 3156 0 
L 2578 0 
L 2988 2091 
Q 3016 2238 3031 2350 
Q 3047 2463 3047 2528 
Q 3047 2791 2881 2937 
Q 2716 3084 2419 3084 
Q 1956 3084 1622 2776 
Q 1288 2469 1184 1941 
L 800 0 
L 225 0 
L 903 3500 
L 1478 3500 
L 1363 2950 
Q 1603 3253 1940 3418 
Q 2278 3584 2650 3584 
Q 3113 3584 3367 3334 
Q 3622 3084 3622 2631 
Q 3622 2519 3608 2391 
Q 3594 2263 3566 2113 
z
" transform="scale(0.015625)"/>
      <path id="DejaVuSans-Oblique-64" d="M 2675 525 
Q 2444 222 2128 65 
Q 1813 -91 1428 -91 
Q 903 -91 598 267 
Q 294 625 294 1247 
Q 294 1766 478 2236 
Q 663 2706 1013 3078 
Q 1244 3325 1534 3454 
Q 1825 3584 2144 3584 
Q 2481 3584 2739 3421 
Q 2997 3259 3138 2956 
L 3513 4863 
L 4091 4863 
L 3144 0 
L 2566 0 
L 2675 525 
z
M 891 1350 
Q 891 897 1095 644 
Q 1300 391 1663 391 
Q 1931 391 2161 520 
Q 2391 650 2566 903 
Q 2750 1166 2856 1509 
Q 2963 1853 2963 2188 
Q 2963 2622 2758 2865 
Q 2553 3109 2194 3109 
Q 1922 3109 1687 2981 
Q 1453 2853 1288 2613 
Q 1106 2353 998 2009 
Q 891 1666 891 1350 
z
" transform="scale(0.015625)"/>
      <path id="DejaVuSans-Oblique-74" d="M 2706 3500 
L 2619 3053 
L 1472 3053 
L 1100 1153 
Q 1081 1047 1072 975 
Q 1063 903 1063 863 
Q 1063 663 1183 572 
Q 1303 481 1569 481 
L 2150 481 
L 2053 0 
L 1503 0 
Q 991 0 739 200 
Q 488 400 488 806 
Q 488 878 497 964 
Q 506 1050 525 1153 
L 897 3053 
L 409 3053 
L 500 3500 
L 978 3500 
L 1172 4494 
L 1747 4494 
L 1556 3500 
L 2706 3500 
z
" transform="scale(0.015625)"/>
      <path id="DejaVuSans-Oblique-65" d="M 3078 2063 
Q 3088 2113 3092 2166 
Q 3097 2219 3097 2272 
Q 3097 2653 2873 2875 
Q 2650 3097 2266 3097 
Q 1838 3097 1509 2826 
Q 1181 2556 1013 2059 
L 3078 2063 
z
M 3578 1613 
L 903 1613 
Q 884 1494 878 1425 
Q 872 1356 872 1306 
Q 872 872 1139 634 
Q 1406 397 1894 397 
Q 2269 397 2603 481 
Q 2938 566 3225 728 
L 3116 159 
Q 2806 34 2476 -28 
Q 2147 -91 1806 -91 
Q 1078 -91 686 257 
Q 294 606 294 1247 
Q 294 1794 489 2264 
Q 684 2734 1063 3103 
Q 1306 3334 1642 3459 
Q 1978 3584 2356 3584 
Q 2950 3584 3301 3228 
Q 3653 2872 3653 2272 
Q 3653 2128 3634 1964 
Q 3616 1800 3578 1613 
z
" transform="scale(0.015625)"/>
      <path id="DejaVuSans-Oblique-29" d="M -397 -844 
Q 434 191 840 1120 
Q 1247 2050 1247 2913 
Q 1247 3406 1130 3892 
Q 1013 4378 775 4856 
L 1275 4856 
Q 1563 4316 1703 3812 
Q 1844 3309 1844 2822 
Q 1844 1891 1411 973 
Q 978 56 116 -844 
L -397 -844 
z
" transform="scale(0.015625)"/>
     </defs>
     <use xlink:href="#DejaVuSans-Oblique-78"/>
     <use xlink:href="#DejaVuSans-Oblique-20" transform="translate(59.179688 0)"/>
     <use xlink:href="#DejaVuSans-Oblique-28" transform="translate(90.966797 0)"/>
     <use xlink:href="#DejaVuSans-Oblique-73" transform="translate(129.980469 0)"/>
     <use xlink:href="#DejaVuSans-Oblique-6b" transform="translate(182.080078 0)"/>
     <use xlink:href="#DejaVuSans-Oblique-69" transform="translate(239.990234 0)"/>
     <use xlink:href="#DejaVuSans-Oblique-70" transform="translate(267.773438 0)"/>
     <use xlink:href="#DejaVuSans-Oblique-20" transform="translate(331.25 0)"/>
     <use xlink:href="#DejaVuSans-Oblique-61" transform="translate(363.037109 0)"/>
     <use xlink:href="#DejaVuSans-Oblique-72" transform="translate(424.316406 0)"/>
     <use xlink:href="#DejaVuSans-Oblique-6f" transform="translate(465.429688 0)"/>
     <use xlink:href="#DejaVuSans-Oblique-75" transform="translate(526.611328 0)"/>
     <use xlink:href="#DejaVuSans-Oblique-6e" transform="translate(589.990234 0)"/>
     <use xlink:href="#DejaVuSans-Oblique-64" transform="translate(653.369141 0)"/>
     <use xlink:href="#DejaVuSans-Oblique-20" transform="translate(716.845703 0)"/>
     <use xlink:href="#DejaVuSans-Oblique-61" transform="translate(748.632812 0)"/>
     <use xlink:href="#DejaVuSans-Oblique-74" transform="translate(809.912109 0)"/>
     <use xlink:href="#DejaVuSans-Oblique-74" transform="translate(849.121094 0)"/>
     <use xlink:href="#DejaVuSans-Oblique-65" transform="translate(888.330078 0)"/>
     <use xlink:href="#DejaVuSans-Oblique-6e" transform="translate(949.853516 0)"/>
     <use xlink:href="#DejaVuSans-Oblique-74" transform="translate(1013.232422 0)"/>
     <use xlink:href="#DejaVuSans-Oblique-69" transform="translate(1052.441406 0)"/>
     <use xlink:href="#DejaVuSans-Oblique-6f" transform="translate(1080.224609 0)"/>
     <use xlink:href="#DejaVuSans-Oblique-6e" transform="translate(1141.40625 0)"/>
     <use xlink:href="#DejaVuSans-Oblique-29" transform="translate(1204.785156 0)"/>
    </g>
   </g>
   <g id="text_29">
    <!-- Feed-Forward -->
    <g style="fill: #34495e" transform="translate(555.166377 144.624448) scale(0.105 -0.105)">
     <defs>
      <path id="DejaVuSans-Bold-46" d="M 588 4666 
L 3834 4666 
L 3834 3756 
L 1791 3756 
L 1791 2888 
L 3713 2888 
L 3713 1978 
L 1791 1978 
L 1791 0 
L 588 0 
L 588 4666 
z
" transform="scale(0.015625)"/>
      <path id="DejaVuSans-Bold-72" d="M 3138 2547 
Q 2991 2616 2845 2648 
Q 2700 2681 2553 2681 
Q 2122 2681 1889 2404 
Q 1656 2128 1656 1613 
L 1656 0 
L 538 0 
L 538 3500 
L 1656 3500 
L 1656 2925 
Q 1872 3269 2151 3426 
Q 2431 3584 2822 3584 
Q 2878 3584 2943 3579 
Q 3009 3575 3134 3559 
L 3138 2547 
z
" transform="scale(0.015625)"/>
      <path id="DejaVuSans-Bold-77" d="M 225 3500 
L 1313 3500 
L 1900 1088 
L 2491 3500 
L 3425 3500 
L 4013 1113 
L 4603 3500 
L 5691 3500 
L 4769 0 
L 3547 0 
L 2956 2406 
L 2369 0 
L 1147 0 
L 225 3500 
z
" transform="scale(0.015625)"/>
     </defs>
     <use xlink:href="#DejaVuSans-Bold-46"/>
     <use xlink:href="#DejaVuSans-Bold-65" transform="translate(64.310547 0)"/>
     <use xlink:href="#DejaVuSans-Bold-65" transform="translate(132.132812 0)"/>
     <use xlink:href="#DejaVuSans-Bold-64" transform="translate(199.955078 0)"/>
     <use xlink:href="#DejaVuSans-Bold-2d" transform="translate(271.537109 0)"/>
     <use xlink:href="#DejaVuSans-Bold-46" transform="translate(313.041016 0)"/>
     <use xlink:href="#DejaVuSans-Bold-6f" transform="translate(377.351562 0)"/>
     <use xlink:href="#DejaVuSans-Bold-72" transform="translate(446.052734 0)"/>
     <use xlink:href="#DejaVuSans-Bold-77" transform="translate(495.369141 0)"/>
     <use xlink:href="#DejaVuSans-Bold-61" transform="translate(587.751953 0)"/>
     <use xlink:href="#DejaVuSans-Bold-72" transform="translate(655.232422 0)"/>
     <use xlink:href="#DejaVuSans-Bold-64" transform="translate(704.548828 0)"/>
    </g>
   </g>
   <g id="text_30">
    <!-- Linear(2,32) -->
    <g style="fill: #666666" transform="translate(571.454385 154.579084) scale(0.08 -0.08)">
     <defs>
      <path id="DejaVuSans-4c" d="M 628 4666 
L 1259 4666 
L 1259 531 
L 3531 531 
L 3531 0 
L 628 0 
L 628 4666 
z
" transform="scale(0.015625)"/>
      <path id="DejaVuSans-72" d="M 2631 2963 
Q 2534 3019 2420 3045 
Q 2306 3072 2169 3072 
Q 1681 3072 1420 2755 
Q 1159 2438 1159 1844 
L 1159 0 
L 581 0 
L 581 3500 
L 1159 3500 
L 1159 2956 
Q 1341 3275 1631 3429 
Q 1922 3584 2338 3584 
Q 2397 3584 2469 3576 
Q 2541 3569 2628 3553 
L 2631 2963 
z
" transform="scale(0.015625)"/>
      <path id="DejaVuSans-33" d="M 2597 2516 
Q 3050 2419 3304 2112 
Q 3559 1806 3559 1356 
Q 3559 666 3084 287 
Q 2609 -91 1734 -91 
Q 1441 -91 1130 -33 
Q 819 25 488 141 
L 488 750 
Q 750 597 1062 519 
Q 1375 441 1716 441 
Q 2309 441 2620 675 
Q 2931 909 2931 1356 
Q 2931 1769 2642 2001 
Q 2353 2234 1838 2234 
L 1294 2234 
L 1294 2753 
L 1863 2753 
Q 2328 2753 2575 2939 
Q 2822 3125 2822 3475 
Q 2822 3834 2567 4026 
Q 2313 4219 1838 4219 
Q 1578 4219 1281 4162 
Q 984 4106 628 3988 
L 628 4550 
Q 988 4650 1302 4700 
Q 1616 4750 1894 4750 
Q 2613 4750 3031 4423 
Q 3450 4097 3450 3541 
Q 3450 3153 3228 2886 
Q 3006 2619 2597 2516 
z
" transform="scale(0.015625)"/>
     </defs>
     <use xlink:href="#DejaVuSans-4c"/>
     <use xlink:href="#DejaVuSans-69" transform="translate(55.712891 0)"/>
     <use xlink:href="#DejaVuSans-6e" transform="translate(83.496094 0)"/>
     <use xlink:href="#DejaVuSans-65" transform="translate(146.875 0)"/>
     <use xlink:href="#DejaVuSans-61" transform="translate(208.398438 0)"/>
     <use xlink:href="#DejaVuSans-72" transform="translate(269.677734 0)"/>
     <use xlink:href="#DejaVuSans-28" transform="translate(310.791016 0)"/>
     <use xlink:href="#DejaVuSans-32" transform="translate(349.804688 0)"/>
     <use xlink:href="#DejaVuSans-2c" transform="translate(413.427734 0)"/>
     <use xlink:href="#DejaVuSans-33" transform="translate(445.214844 0)"/>
     <use xlink:href="#DejaVuSans-32" transform="translate(508.837891 0)"/>
     <use xlink:href="#DejaVuSans-29" transform="translate(572.460938 0)"/>
    </g>
   </g>
   <g id="text_31">
    <!-- ReLU  Linear(32,2) -->
    <g style="fill: #666666" transform="translate(555.543135 161.497996) scale(0.08 -0.08)">
     <defs>
      <path id="DejaVuSans-52" d="M 2841 2188 
Q 3044 2119 3236 1894 
Q 3428 1669 3622 1275 
L 4263 0 
L 3584 0 
L 2988 1197 
Q 2756 1666 2539 1819 
Q 2322 1972 1947 1972 
L 1259 1972 
L 1259 0 
L 628 0 
L 628 4666 
L 2053 4666 
Q 2853 4666 3247 4331 
Q 3641 3997 3641 3322 
Q 3641 2881 3436 2590 
Q 3231 2300 2841 2188 
z
M 1259 4147 
L 1259 2491 
L 2053 2491 
Q 2509 2491 2742 2702 
Q 2975 2913 2975 3322 
Q 2975 3731 2742 3939 
Q 2509 4147 2053 4147 
L 1259 4147 
z
" transform="scale(0.015625)"/>
      <path id="DejaVuSans-55" d="M 556 4666 
L 1191 4666 
L 1191 1831 
Q 1191 1081 1462 751 
Q 1734 422 2344 422 
Q 2950 422 3222 751 
Q 3494 1081 3494 1831 
L 3494 4666 
L 4128 4666 
L 4128 1753 
Q 4128 841 3676 375 
Q 3225 -91 2344 -91 
Q 1459 -91 1007 375 
Q 556 841 556 1753 
L 556 4666 
z
" transform="scale(0.015625)"/>
     </defs>
     <use xlink:href="#DejaVuSans-52"/>
     <use xlink:href="#DejaVuSans-65" transform="translate(64.982422 0)"/>
     <use xlink:href="#DejaVuSans-4c" transform="translate(126.505859 0)"/>
     <use xlink:href="#DejaVuSans-55" transform="translate(177.21875 0)"/>
     <use xlink:href="#DejaVuSans-20" transform="translate(250.412109 0)"/>
     <use xlink:href="#DejaVuSans-2192" transform="translate(282.199219 0)"/>
     <use xlink:href="#DejaVuSans-20" transform="translate(365.988281 0)"/>
     <use xlink:href="#DejaVuSans-4c" transform="translate(397.775391 0)"/>
     <use xlink:href="#DejaVuSans-69" transform="translate(453.488281 0)"/>
     <use xlink:href="#DejaVuSans-6e" transform="translate(481.271484 0)"/>
     <use xlink:href="#DejaVuSans-65" transform="translate(544.650391 0)"/>
     <use xlink:href="#DejaVuSans-61" transform="translate(606.173828 0)"/>
     <use xlink:href="#DejaVuSans-72" transform="translate(667.453125 0)"/>
     <use xlink:href="#DejaVuSans-28" transform="translate(708.566406 0)"/>
     <use xlink:href="#DejaVuSans-33" transform="translate(747.580078 0)"/>
     <use xlink:href="#DejaVuSans-32" transform="translate(811.203125 0)"/>
     <use xlink:href="#DejaVuSans-2c" transform="translate(874.826172 0)"/>
     <use xlink:href="#DejaVuSans-32" transform="translate(906.613281 0)"/>
     <use xlink:href="#DejaVuSans-29" transform="translate(970.236328 0)"/>
    </g>
   </g>
   <g id="text_32">
    <!-- + -->
    <g style="fill: #34495e" transform="translate(659.150754 154.647863) scale(0.15 -0.15)">
     <use xlink:href="#DejaVuSans-Bold-2b"/>
    </g>
   </g>
   <g id="text_33">
    <!-- x (skip around FFN) -->
    <g style="fill: #27ae60" transform="translate(556.814385 209.2651) scale(0.08 -0.08)">
     <defs>
      <path id="DejaVuSans-Oblique-46" d="M 1081 4666 
L 3756 4666 
L 3653 4134 
L 1606 4134 
L 1338 2759 
L 3188 2759 
L 3084 2228 
L 1234 2228 
L 800 0 
L 172 0 
L 1081 4666 
z
" transform="scale(0.015625)"/>
      <path id="DejaVuSans-Oblique-4e" d="M 1081 4666 
L 1931 4666 
L 3219 666 
L 4000 4666 
L 4616 4666 
L 3706 0 
L 2853 0 
L 1569 4025 
L 788 0 
L 172 0 
L 1081 4666 
z
" transform="scale(0.015625)"/>
     </defs>
     <use xlink:href="#DejaVuSans-Oblique-78"/>
     <use xlink:href="#DejaVuSans-Oblique-20" transform="translate(59.179688 0)"/>
     <use xlink:href="#DejaVuSans-Oblique-28" transform="translate(90.966797 0)"/>
     <use xlink:href="#DejaVuSans-Oblique-73" transform="translate(129.980469 0)"/>
     <use xlink:href="#DejaVuSans-Oblique-6b" transform="translate(182.080078 0)"/>
     <use xlink:href="#DejaVuSans-Oblique-69" transform="translate(239.990234 0)"/>
     <use xlink:href="#DejaVuSans-Oblique-70" transform="translate(267.773438 0)"/>
     <use xlink:href="#DejaVuSans-Oblique-20" transform="translate(331.25 0)"/>
     <use xlink:href="#DejaVuSans-Oblique-61" transform="translate(363.037109 0)"/>
     <use xlink:href="#DejaVuSans-Oblique-72" transform="translate(424.316406 0)"/>
     <use xlink:href="#DejaVuSans-Oblique-6f" transform="translate(465.429688 0)"/>
     <use xlink:href="#DejaVuSans-Oblique-75" transform="translate(526.611328 0)"/>
     <use xlink:href="#DejaVuSans-Oblique-6e" transform="translate(589.990234 0)"/>
     <use xlink:href="#DejaVuSans-Oblique-64" transform="translate(653.369141 0)"/>
     <use xlink:href="#DejaVuSans-Oblique-20" transform="translate(716.845703 0)"/>
     <use xlink:href="#DejaVuSans-Oblique-46" transform="translate(748.632812 0)"/>
     <use xlink:href="#DejaVuSans-Oblique-46" transform="translate(806.152344 0)"/>
     <use xlink:href="#DejaVuSans-Oblique-4e" transform="translate(863.671875 0)"/>
     <use xlink:href="#DejaVuSans-Oblique-29" transform="translate(938.476562 0)"/>
    </g>
   </g>
   <g id="text_34">
    <!-- LM Head -->
    <g style="fill: #34495e" transform="translate(696.996787 148.083904) scale(0.105 -0.105)">
     <defs>
      <path id="DejaVuSans-Bold-4c" d="M 588 4666 
L 1791 4666 
L 1791 909 
L 3903 909 
L 3903 0 
L 588 0 
L 588 4666 
z
" transform="scale(0.015625)"/>
      <path id="DejaVuSans-Bold-48" d="M 588 4666 
L 1791 4666 
L 1791 2888 
L 3566 2888 
L 3566 4666 
L 4769 4666 
L 4769 0 
L 3566 0 
L 3566 1978 
L 1791 1978 
L 1791 0 
L 588 0 
L 588 4666 
z
" transform="scale(0.015625)"/>
     </defs>
     <use xlink:href="#DejaVuSans-Bold-4c"/>
     <use xlink:href="#DejaVuSans-Bold-4d" transform="translate(63.720703 0)"/>
     <use xlink:href="#DejaVuSans-Bold-20" transform="translate(163.232422 0)"/>
     <use xlink:href="#DejaVuSans-Bold-48" transform="translate(198.046875 0)"/>
     <use xlink:href="#DejaVuSans-Bold-65" transform="translate(281.738281 0)"/>
     <use xlink:href="#DejaVuSans-Bold-61" transform="translate(349.560547 0)"/>
     <use xlink:href="#DejaVuSans-Bold-64" transform="translate(417.041016 0)"/>
    </g>
   </g>
   <g id="text_35">
    <!-- Linear(2, 12) -->
    <g style="fill: #666666" transform="translate(695.310811 158.176509) scale(0.085 -0.085)">
     <use xlink:href="#DejaVuSans-4c"/>
     <use xlink:href="#DejaVuSans-69" transform="translate(55.712891 0)"/>
     <use xlink:href="#DejaVuSans-6e" transform="translate(83.496094 0)"/>
     <use xlink:href="#DejaVuSans-65" transform="translate(146.875 0)"/>
     <use xlink:href="#DejaVuSans-61" transform="translate(208.398438 0)"/>
     <use xlink:href="#DejaVuSans-72" transform="translate(269.677734 0)"/>
     <use xlink:href="#DejaVuSans-28" transform="translate(310.791016 0)"/>
     <use xlink:href="#DejaVuSans-32" transform="translate(349.804688 0)"/>
     <use xlink:href="#DejaVuSans-2c" transform="translate(413.427734 0)"/>
     <use xlink:href="#DejaVuSans-20" transform="translate(445.214844 0)"/>
     <use xlink:href="#DejaVuSans-31" transform="translate(477.001953 0)"/>
     <use xlink:href="#DejaVuSans-32" transform="translate(540.625 0)"/>
     <use xlink:href="#DejaVuSans-29" transform="translate(604.248047 0)"/>
    </g>
   </g>
   <g id="text_36">
    <!-- Softmax -->
    <g style="fill: #34495e" transform="translate(768.588616 153.406144) scale(0.105 -0.105)">
     <use xlink:href="#DejaVuSans-Bold-53"/>
     <use xlink:href="#DejaVuSans-Bold-6f" transform="translate(72.021484 0)"/>
     <use xlink:href="#DejaVuSans-Bold-66" transform="translate(140.722656 0)"/>
     <use xlink:href="#DejaVuSans-Bold-74" transform="translate(184.228516 0)"/>
     <use xlink:href="#DejaVuSans-Bold-6d" transform="translate(232.03125 0)"/>
     <use xlink:href="#DejaVuSans-Bold-61" transform="translate(336.230469 0)"/>
     <use xlink:href="#DejaVuSans-Bold-78" transform="translate(403.710938 0)"/>
    </g>
   </g>
   <g id="text_37">
    <!-- P(next) -->
    <g style="fill: #34495e" transform="translate(843.1787 148.083904) scale(0.105 -0.105)">
     <use xlink:href="#DejaVuSans-Bold-50"/>
     <use xlink:href="#DejaVuSans-Bold-28" transform="translate(73.291016 0)"/>
     <use xlink:href="#DejaVuSans-Bold-6e" transform="translate(118.994141 0)"/>
     <use xlink:href="#DejaVuSans-Bold-65" transform="translate(190.185547 0)"/>
     <use xlink:href="#DejaVuSans-Bold-78" transform="translate(258.007812 0)"/>
     <use xlink:href="#DejaVuSans-Bold-74" transform="translate(322.509766 0)"/>
     <use xlink:href="#DejaVuSans-Bold-29" transform="translate(370.3125 0)"/>
    </g>
   </g>
   <g id="text_38">
    <!-- (8,8,12) -->
    <g style="fill: #666666" transform="translate(848.185536 158.176509) scale(0.085 -0.085)">
     <use xlink:href="#DejaVuSans-28"/>
     <use xlink:href="#DejaVuSans-38" transform="translate(39.013672 0)"/>
     <use xlink:href="#DejaVuSans-2c" transform="translate(102.636719 0)"/>
     <use xlink:href="#DejaVuSans-38" transform="translate(134.423828 0)"/>
     <use xlink:href="#DejaVuSans-2c" transform="translate(198.046875 0)"/>
     <use xlink:href="#DejaVuSans-31" transform="translate(229.833984 0)"/>
     <use xlink:href="#DejaVuSans-32" transform="translate(293.457031 0)"/>
     <use xlink:href="#DejaVuSans-29" transform="translate(357.080078 0)"/>
    </g>
   </g>
   <g id="text_39">
    <!-- Embedding -->
    <g style="fill: #34495e" transform="translate(44.064 328.488189) scale(0.085 -0.085)">
     <defs>
      <path id="DejaVuSans-45" d="M 628 4666 
L 3578 4666 
L 3578 4134 
L 1259 4134 
L 1259 2753 
L 3481 2753 
L 3481 2222 
L 1259 2222 
L 1259 531 
L 3634 531 
L 3634 0 
L 628 0 
L 628 4666 
z
" transform="scale(0.015625)"/>
      <path id="DejaVuSans-67" d="M 2906 1791 
Q 2906 2416 2648 2759 
Q 2391 3103 1925 3103 
Q 1463 3103 1205 2759 
Q 947 2416 947 1791 
Q 947 1169 1205 825 
Q 1463 481 1925 481 
Q 2391 481 2648 825 
Q 2906 1169 2906 1791 
z
M 3481 434 
Q 3481 -459 3084 -895 
Q 2688 -1331 1869 -1331 
Q 1566 -1331 1297 -1286 
Q 1028 -1241 775 -1147 
L 775 -588 
Q 1028 -725 1275 -790 
Q 1522 -856 1778 -856 
Q 2344 -856 2625 -561 
Q 2906 -266 2906 331 
L 2906 616 
Q 2728 306 2450 153 
Q 2172 0 1784 0 
Q 1141 0 747 490 
Q 353 981 353 1791 
Q 353 2603 747 3093 
Q 1141 3584 1784 3584 
Q 2172 3584 2450 3431 
Q 2728 3278 2906 2969 
L 2906 3500 
L 3481 3500 
L 3481 434 
z
" transform="scale(0.015625)"/>
     </defs>
     <use xlink:href="#DejaVuSans-45"/>
     <use xlink:href="#DejaVuSans-6d" transform="translate(63.183594 0)"/>
     <use xlink:href="#DejaVuSans-62" transform="translate(160.595703 0)"/>
     <use xlink:href="#DejaVuSans-65" transform="translate(224.072266 0)"/>
     <use xlink:href="#DejaVuSans-64" transform="translate(285.595703 0)"/>
     <use xlink:href="#DejaVuSans-64" transform="translate(349.072266 0)"/>
     <use xlink:href="#DejaVuSans-69" transform="translate(412.548828 0)"/>
     <use xlink:href="#DejaVuSans-6e" transform="translate(440.332031 0)"/>
     <use xlink:href="#DejaVuSans-67" transform="translate(503.710938 0)"/>
    </g>
   </g>
   <g id="text_40">
    <!-- Attention -->
    <g style="fill: #34495e" transform="translate(123.8976 328.488189) scale(0.085 -0.085)">
     <defs>
      <path id="DejaVuSans-41" d="M 2188 4044 
L 1331 1722 
L 3047 1722 
L 2188 4044 
z
M 1831 4666 
L 2547 4666 
L 4325 0 
L 3669 0 
L 3244 1197 
L 1141 1197 
L 716 0 
L 50 0 
L 1831 4666 
z
" transform="scale(0.015625)"/>
     </defs>
     <use xlink:href="#DejaVuSans-41"/>
     <use xlink:href="#DejaVuSans-74" transform="translate(66.658203 0)"/>
     <use xlink:href="#DejaVuSans-74" transform="translate(105.867188 0)"/>
     <use xlink:href="#DejaVuSans-65" transform="translate(145.076172 0)"/>
     <use xlink:href="#DejaVuSans-6e" transform="translate(206.599609 0)"/>
     <use xlink:href="#DejaVuSans-74" transform="translate(269.978516 0)"/>
     <use xlink:href="#DejaVuSans-69" transform="translate(309.1875 0)"/>
     <use xlink:href="#DejaVuSans-6f" transform="translate(336.970703 0)"/>
     <use xlink:href="#DejaVuSans-6e" transform="translate(398.152344 0)"/>
    </g>
   </g>
   <g id="text_41">
    <!-- Feed-Forward -->
    <g style="fill: #34495e" transform="translate(203.7312 328.488189) scale(0.085 -0.085)">
     <defs>
      <path id="DejaVuSans-46" d="M 628 4666 
L 3309 4666 
L 3309 4134 
L 1259 4134 
L 1259 2759 
L 3109 2759 
L 3109 2228 
L 1259 2228 
L 1259 0 
L 628 0 
L 628 4666 
z
" transform="scale(0.015625)"/>
      <path id="DejaVuSans-2d" d="M 313 2009 
L 1997 2009 
L 1997 1497 
L 313 1497 
L 313 2009 
z
" transform="scale(0.015625)"/>
      <path id="DejaVuSans-77" d="M 269 3500 
L 844 3500 
L 1563 769 
L 2278 3500 
L 2956 3500 
L 3675 769 
L 4391 3500 
L 4966 3500 
L 4050 0 
L 3372 0 
L 2619 2869 
L 1863 0 
L 1184 0 
L 269 3500 
z
" transform="scale(0.015625)"/>
     </defs>
     <use xlink:href="#DejaVuSans-46"/>
     <use xlink:href="#DejaVuSans-65" transform="translate(52.019531 0)"/>
     <use xlink:href="#DejaVuSans-65" transform="translate(113.542969 0)"/>
     <use xlink:href="#DejaVuSans-64" transform="translate(175.066406 0)"/>
     <use xlink:href="#DejaVuSans-2d" transform="translate(238.542969 0)"/>
     <use xlink:href="#DejaVuSans-46" transform="translate(274.626953 0)"/>
     <use xlink:href="#DejaVuSans-6f" transform="translate(328.521484 0)"/>
     <use xlink:href="#DejaVuSans-72" transform="translate(389.703125 0)"/>
     <use xlink:href="#DejaVuSans-77" transform="translate(430.816406 0)"/>
     <use xlink:href="#DejaVuSans-61" transform="translate(512.603516 0)"/>
     <use xlink:href="#DejaVuSans-72" transform="translate(573.882812 0)"/>
     <use xlink:href="#DejaVuSans-64" transform="translate(613.246094 0)"/>
    </g>
   </g>
   <g id="text_42">
    <!-- Output -->
    <g style="fill: #34495e" transform="translate(283.5648 328.488189) scale(0.085 -0.085)">
     <defs>
      <path id="DejaVuSans-4f" d="M 2522 4238 
Q 1834 4238 1429 3725 
Q 1025 3213 1025 2328 
Q 1025 1447 1429 934 
Q 1834 422 2522 422 
Q 3209 422 3611 934 
Q 4013 1447 4013 2328 
Q 4013 3213 3611 3725 
Q 3209 4238 2522 4238 
z
M 2522 4750 
Q 3503 4750 4090 4092 
Q 4678 3434 4678 2328 
Q 4678 1225 4090 567 
Q 3503 -91 2522 -91 
Q 1538 -91 948 565 
Q 359 1222 359 2328 
Q 359 3434 948 4092 
Q 1538 4750 2522 4750 
z
" transform="scale(0.015625)"/>
      <path id="DejaVuSans-70" d="M 1159 525 
L 1159 -1331 
L 581 -1331 
L 581 3500 
L 1159 3500 
L 1159 2969 
Q 1341 3281 1617 3432 
Q 1894 3584 2278 3584 
Q 2916 3584 3314 3078 
Q 3713 2572 3713 1747 
Q 3713 922 3314 415 
Q 2916 -91 2278 -91 
Q 1894 -91 1617 61 
Q 1341 213 1159 525 
z
M 3116 1747 
Q 3116 2381 2855 2742 
Q 2594 3103 2138 3103 
Q 1681 3103 1420 2742 
Q 1159 2381 1159 1747 
Q 1159 1113 1420 752 
Q 1681 391 2138 391 
Q 2594 391 2855 752 
Q 3116 1113 3116 1747 
z
" transform="scale(0.015625)"/>
     </defs>
     <use xlink:href="#DejaVuSans-4f"/>
     <use xlink:href="#DejaVuSans-75" transform="translate(78.710938 0)"/>
     <use xlink:href="#DejaVuSans-74" transform="translate(142.089844 0)"/>
     <use xlink:href="#DejaVuSans-70" transform="translate(181.298828 0)"/>
     <use xlink:href="#DejaVuSans-75" transform="translate(244.775391 0)"/>
     <use xlink:href="#DejaVuSans-74" transform="translate(308.154297 0)"/>
    </g>
   </g>
   <g id="patch_23">
    <path d="M 89.96767 141.777731 
Q 97.287157 133.543308 103.641029 126.395203 
" style="fill: none; stroke: #34495e; stroke-width: 1.3; stroke-linecap: round"/>
    <path d="M 99.488755 128.056112 
L 103.641029 126.395203 
L 102.478392 130.713568 
" style="fill: none; stroke: #34495e; stroke-width: 1.3; stroke-linecap: round"/>
   </g>
   <g id="patch_24">
    <path d="M 89.96767 159.239869 
Q 97.287157 167.474292 103.641029 174.622397 
" style="fill: none; stroke: #34495e; stroke-width: 1.3; stroke-linecap: round"/>
    <path d="M 102.478392 170.304032 
L 103.641029 174.622397 
L 99.488755 172.961488 
" style="fill: none; stroke: #34495e; stroke-width: 1.3; stroke-linecap: round"/>
   </g>
   <g id="patch_25">
    <path d="M 182.363628 125.369548 
Q 189.759833 135.539331 196.301164 144.533661 
" style="fill: none; stroke: #34495e; stroke-width: 1.3; stroke-linecap: round"/>
    <path d="M 195.565949 140.122373 
L 196.301164 144.533661 
L 192.331005 142.47506 
" style="fill: none; stroke: #34495e; stroke-width: 1.3; stroke-linecap: round"/>
   </g>
   <g id="patch_26">
    <path d="M 182.363628 175.648052 
Q 189.759833 165.478269 196.301164 156.483939 
" style="fill: none; stroke: #34495e; stroke-width: 1.3; stroke-linecap: round"/>
    <path d="M 192.331005 158.54254 
L 196.301164 156.483939 
L 195.565949 160.895227 
" style="fill: none; stroke: #34495e; stroke-width: 1.3; stroke-linecap: round"/>
   </g>
   <g id="line2d_5">
    <path d="M 221.69376 150.5088 
L 229.67712 150.5088 
" clip-path="url(#p7e66987362)" style="fill: none; stroke: #34495e; stroke-width: 1.3; stroke-linecap: round"/>
   </g>
   <g id="line2d_6">
    <path d="M 229.67712 150.5088 
L 229.67712 115.91424 
" clip-path="url(#p7e66987362)" style="fill: none; stroke: #34495e; stroke-width: 1.3; stroke-linecap: round"/>
   </g>
   <g id="patch_27">
    <path d="M 230.678938 115.91424 
Q 233.670297 115.91424 235.208212 115.91424 
" style="fill: none; stroke: #34495e; stroke-width: 1.3; stroke-linecap: round"/>
    <path d="M 231.208212 113.91424 
L 235.208212 115.91424 
L 231.208212 117.91424 
" style="fill: none; stroke: #34495e; stroke-width: 1.3; stroke-linecap: round"/>
   </g>
   <g id="line2d_7">
    <path d="M 229.67712 150.5088 
L 229.67712 150.5088 
" clip-path="url(#p7e66987362)" style="fill: none; stroke: #34495e; stroke-width: 1.3; stroke-linecap: round"/>
   </g>
   <g id="patch_28">
    <path d="M 230.678938 150.5088 
Q 233.670297 150.5088 235.208212 150.5088 
" style="fill: none; stroke: #34495e; stroke-width: 1.3; stroke-linecap: round"/>
    <path d="M 231.208212 148.5088 
L 235.208212 150.5088 
L 231.208212 152.5088 
" style="fill: none; stroke: #34495e; stroke-width: 1.3; stroke-linecap: round"/>
   </g>
   <g id="line2d_8">
    <path d="M 229.67712 150.5088 
L 229.67712 185.10336 
" clip-path="url(#p7e66987362)" style="fill: none; stroke: #34495e; stroke-width: 1.3; stroke-linecap: round"/>
   </g>
   <g id="patch_29">
    <path d="M 230.678938 185.10336 
Q 233.670297 185.10336 235.208212 185.10336 
" style="fill: none; stroke: #34495e; stroke-width: 1.3; stroke-linecap: round"/>
    <path d="M 231.208212 183.10336 
L 235.208212 185.10336 
L 231.208212 187.10336 
" style="fill: none; stroke: #34495e; stroke-width: 1.3; stroke-linecap: round"/>
   </g>
   <g id="patch_30">
    <path d="M 282.081563 116.768579 
Q 289.551116 129.217833 296.272878 140.420769 
" style="fill: none; stroke: #34495e; stroke-width: 1.3; stroke-linecap: round"/>
    <path d="M 295.929881 135.961806 
L 296.272878 140.420769 
L 292.499909 138.019789 
" style="fill: none; stroke: #34495e; stroke-width: 1.3; stroke-linecap: round"/>
   </g>
   <g id="patch_31">
    <path d="M 282.461631 150.955135 
Q 289.551512 154.500076 295.341394 157.395017 
" style="fill: none; stroke: #34495e; stroke-width: 1.3; stroke-linecap: round"/>
    <path d="M 292.658113 153.817308 
L 295.341394 157.395017 
L 290.869258 157.395017 
" style="fill: none; stroke: #34495e; stroke-width: 1.3; stroke-linecap: round"/>
   </g>
   <g id="patch_32">
    <path d="M 351.759898 150.5088 
Q 358.743641 150.5088 364.273939 150.5088 
" style="fill: none; stroke: #34495e; stroke-width: 1.3; stroke-linecap: round"/>
    <path d="M 360.273939 148.5088 
L 364.273939 150.5088 
L 360.273939 152.5088 
" style="fill: none; stroke: #34495e; stroke-width: 1.3; stroke-linecap: round"/>
   </g>
   <g id="patch_33">
    <path d="M 427.547244 150.193052 
Q 434.582123 147.848092 440.238144 145.962752 
" style="fill: none; stroke: #34495e; stroke-width: 1.3; stroke-linecap: round"/>
    <path d="M 435.810955 145.330296 
L 440.238144 145.962752 
L 437.075866 149.12503 
" style="fill: none; stroke: #34495e; stroke-width: 1.3; stroke-linecap: round"/>
   </g>
   <g id="line2d_9">
    <path d="M 281.56896 185.10336 
L 288.22176 185.10336 
" clip-path="url(#p7e66987362)" style="fill: none; stroke: #34495e; stroke-width: 1.3; stroke-linecap: round"/>
   </g>
   <g id="line2d_10">
    <path d="M 288.22176 185.10336 
L 288.22176 186.43392 
" clip-path="url(#p7e66987362)" style="fill: none; stroke: #34495e; stroke-width: 1.3; stroke-linecap: round"/>
   </g>
   <g id="line2d_11">
    <path d="M 288.22176 186.43392 
L 468.51264 186.43392 
" clip-path="url(#p7e66987362)" style="fill: none; stroke: #34495e; stroke-width: 1.3; stroke-linecap: round"/>
   </g>
   <g id="patch_34">
    <path d="M 468.51264 185.437949 
Q 468.51264 181.78057 468.51264 179.576634 
" style="fill: none; stroke: #34495e; stroke-width: 1.3; stroke-linecap: round"/>
    <path d="M 466.51264 183.576634 
L 468.51264 179.576634 
L 470.51264 183.576634 
" style="fill: none; stroke: #34495e; stroke-width: 1.3; stroke-linecap: round"/>
   </g>
   <g id="patch_35">
    <path d="M 495.457455 150.5088 
Q 504.434984 150.5088 511.959069 150.5088 
" style="fill: none; stroke: #34495e; stroke-width: 1.3; stroke-linecap: round"/>
    <path d="M 507.959069 148.5088 
L 511.959069 150.5088 
L 507.959069 152.5088 
" style="fill: none; stroke: #34495e; stroke-width: 1.3; stroke-linecap: round"/>
   </g>
   <g id="patch_36">
    <path d="M 526.392 198.078188 
Q 526.392 180.782863 526.392 164.940982 
" style="fill: none; stroke: #27ae60; stroke-width: 1.3; stroke-linecap: round"/>
    <path d="M 524.392 168.940982 
L 526.392 164.940982 
L 528.392 168.940982 
" style="fill: none; stroke: #27ae60; stroke-width: 1.3; stroke-linecap: round"/>
   </g>
   <g id="patch_37">
    <path d="M 539.368858 150.5088 
Q 546.352601 150.5088 551.882899 150.5088 
" style="fill: none; stroke: #34495e; stroke-width: 1.3; stroke-linecap: round"/>
    <path d="M 547.882899 148.5088 
L 551.882899 150.5088 
L 547.882899 152.5088 
" style="fill: none; stroke: #34495e; stroke-width: 1.3; stroke-linecap: round"/>
   </g>
   <g id="patch_38">
    <path d="M 638.495578 150.5088 
Q 645.479321 150.5088 651.009619 150.5088 
" style="fill: none; stroke: #34495e; stroke-width: 1.3; stroke-linecap: round"/>
    <path d="M 647.009619 148.5088 
L 651.009619 150.5088 
L 647.009619 152.5088 
" style="fill: none; stroke: #34495e; stroke-width: 1.3; stroke-linecap: round"/>
   </g>
   <g id="patch_39">
    <path d="M 665.43552 198.078188 
Q 665.43552 180.782863 665.43552 164.940982 
" style="fill: none; stroke: #27ae60; stroke-width: 1.3; stroke-linecap: round"/>
    <path d="M 663.43552 168.940982 
L 665.43552 164.940982 
L 667.43552 168.940982 
" style="fill: none; stroke: #27ae60; stroke-width: 1.3; stroke-linecap: round"/>
   </g>
   <g id="patch_40">
    <path d="M 678.412378 150.5088 
Q 685.396121 150.5088 690.926419 150.5088 
" style="fill: none; stroke: #34495e; stroke-width: 1.3; stroke-linecap: round"/>
    <path d="M 686.926419 148.5088 
L 690.926419 150.5088 
L 686.926419 152.5088 
" style="fill: none; stroke: #34495e; stroke-width: 1.3; stroke-linecap: round"/>
   </g>
   <g id="patch_41">
    <path d="M 752.923738 150.5088 
Q 759.907481 150.5088 765.437779 150.5088 
" style="fill: none; stroke: #34495e; stroke-width: 1.3; stroke-linecap: round"/>
    <path d="M 761.437779 148.5088 
L 765.437779 150.5088 
L 761.437779 152.5088 
" style="fill: none; stroke: #34495e; stroke-width: 1.3; stroke-linecap: round"/>
   </g>
   <g id="patch_42">
    <path d="M 819.451738 150.5088 
Q 826.435481 150.5088 831.965779 150.5088 
" style="fill: none; stroke: #34495e; stroke-width: 1.3; stroke-linecap: round"/>
    <path d="M 827.965779 148.5088 
L 831.965779 150.5088 
L 827.965779 152.5088 
" style="fill: none; stroke: #34495e; stroke-width: 1.3; stroke-linecap: round"/>
   </g>
   <g id="text_43">
    <!-- V -->
    <g style="fill: #34495e" transform="translate(374.884622 195.570158) scale(0.09 -0.09)">
     <use xlink:href="#DejaVuSans-Bold-56"/>
    </g>
   </g>
  </g>
 </g>
 <defs>
  <clipPath id="p7e66987362">
   <rect x="10.8" y="10.8" width="918.0864" height="332.64"/>
  </clipPath>
 </defs>
</svg>
