<?xml version="1.0" encoding="utf-8" standalone="no"?>
<!DOCTYPE svg PUBLIC "-//W3C//DTD SVG 1.1//EN"
  "http://www.w3.org/Graphics/SVG/1.1/DTD/svg11.dtd">
<svg xmlns:xlink="http://www.w3.org/1999/xlink" width="412.2pt" height="520.56pt" viewBox="0 0 412.2 520.56" xmlns="http://www.w3.org/2000/svg" version="1.1">
 <metadata>
  <rdf:RDF xmlns:dc="http://purl.org/dc/elements/1.1/" xmlns:cc="http://creativecommons.org/ns#" xmlns:rdf="http://www.w3.org/1999/02/22-rdf-syntax-ns#">
   <cc:Work>
    <dc:type rdf:resource="http://purl.org/dc/dcmitype/StillImage"/>
    <dc:date>2026-02-23T14:24:59.742035</dc:date>
    <dc:format>image/svg+xml</dc:format>
    <dc:creator>
     <cc:Agent>
      <dc:title>Matplotlib v3.10.7, https://matplotlib.org/</dc:title>
     </cc:Agent>
    </dc:creator>
   </cc:Work>
  </rdf:RDF>
 </metadata>
 <defs>
  <style type="text/css">*{stroke-linejoin: round; stroke-linecap: butt}</style>
 </defs>
 <g id="figure_1">
  <g id="patch_1">
   <path d="M 0 520.56 
L 412.2 520.56 
L 412.2 0 
L 0 0 
z
" style="fill: #ffffff"/>
  </g>
  <g id="axes_1">
   <g id="line2d_1">
    <path d="M 193.08 93.111194 
L 49.86 93.111194 
" style="fill: none; stroke-dasharray: 6.66,2.88; stroke-dashoffset: 0; stroke: #27ae60; stroke-width: 1.8"/>
   </g>
   <g id="line2d_2">
    <path d="M 49.86 93.111194 
L 49.86 192.972017 
" style="fill: none; stroke-dasharray: 6.66,2.88; stroke-dashoffset: 0; stroke: #27ae60; stroke-width: 1.8"/>
   </g>
   <g id="line2d_3">
    <path d="M 193.08 192.972017 
L 49.86 192.972017 
" style="fill: none; stroke-dasharray: 6.66,2.88; stroke-dashoffset: 0; stroke: #27ae60; stroke-width: 1.8"/>
   </g>
   <g id="line2d_4">
    <path d="M 49.86 192.972017 
L 49.86 259.93589 
" style="fill: none; stroke-dasharray: 6.66,2.88; stroke-dashoffset: 0; stroke: #27ae60; stroke-width: 1.8"/>
   </g>
   <g id="patch_2">
    <path d="M 161.46 24.564414 
L 250.74 24.564414 
Q 257.25 24.564414 257.25 26.973186 
L 257.25 42.114041 
Q 257.25 44.522814 250.74 44.522814 
L 161.46 44.522814 
Q 154.95 44.522814 154.95 42.114041 
L 154.95 26.973186 
Q 154.95 24.564414 161.46 24.564414 
z
" clip-path="url(#pfe9ac5c817)" style="fill: #e8f4fd; stroke: #34495e; stroke-width: 1.4; stroke-linejoin: miter"/>
   </g>
   <g id="patch_3">
    <path d="M 128.91 60.489534 
L 190.29 60.489534 
Q 196.8 60.489534 196.8 62.898306 
L 196.8 73.909837 
Q 196.8 76.31861 190.29 76.31861 
L 128.91 76.31861 
Q 122.4 76.31861 122.4 73.909837 
L 122.4 62.898306 
Q 122.4 60.489534 128.91 60.489534 
z
" clip-path="url(#pfe9ac5c817)" style="fill: #daeaf6; stroke: #34495e; stroke-width: 1.4; stroke-linejoin: miter"/>
   </g>
   <g id="patch_4">
    <path d="M 221.91 60.489534 
L 283.29 60.489534 
Q 289.8 60.489534 289.8 62.898306 
L 289.8 73.909837 
Q 289.8 76.31861 283.29 76.31861 
L 221.91 76.31861 
Q 215.4 76.31861 215.4 73.909837 
L 215.4 62.898306 
Q 215.4 60.489534 221.91 60.489534 
z
" clip-path="url(#pfe9ac5c817)" style="fill: #daeaf6; stroke: #34495e; stroke-width: 1.4; stroke-linejoin: miter"/>
   </g>
   <g id="patch_5">
    <path d="M 206.1 88.29365 
C 209.552944 88.29365 212.86493 88.801257 215.30653 89.704676 
C 217.748131 90.608095 219.12 91.833567 219.12 93.111194 
C 219.12 94.388822 217.748131 95.614294 215.30653 96.517713 
C 212.86493 97.421132 209.552944 97.928739 206.1 97.928739 
C 202.647056 97.928739 199.33507 97.421132 196.89347 96.517713 
C 194.451869 95.614294 193.08 94.388822 193.08 93.111194 
C 193.08 91.833567 194.451869 90.608095 196.89347 89.704676 
C 199.33507 88.801257 202.647056 88.29365 206.1 88.29365 
z
" clip-path="url(#pfe9ac5c817)" style="fill: #ffffff; stroke: #34495e; stroke-width: 1.6; stroke-linejoin: miter"/>
   </g>
   <g id="text_1">
    <!-- x: (4,8,2) -->
    <g style="fill: #555555" transform="translate(226.56 94.463288) scale(0.049 -0.049)">
     <defs>
      <path id="DejaVuSans-78" d="M 3513 3500 
L 2247 1797 
L 3578 0 
L 2900 0 
L 1881 1375 
L 863 0 
L 184 0 
L 1544 1831 
L 300 3500 
L 978 3500 
L 1906 2253 
L 2834 3500 
L 3513 3500 
z
" transform="scale(0.015625)"/>
      <path id="DejaVuSans-3a" d="M 750 794 
L 1409 794 
L 1409 0 
L 750 0 
L 750 794 
z
M 750 3309 
L 1409 3309 
L 1409 2516 
L 750 2516 
L 750 3309 
z
" transform="scale(0.015625)"/>
      <path id="DejaVuSans-20" transform="scale(0.015625)"/>
      <path id="DejaVuSans-28" d="M 1984 4856 
Q 1566 4138 1362 3434 
Q 1159 2731 1159 2009 
Q 1159 1288 1364 580 
Q 1569 -128 1984 -844 
L 1484 -844 
Q 1016 -109 783 600 
Q 550 1309 550 2009 
Q 550 2706 781 3412 
Q 1013 4119 1484 4856 
L 1984 4856 
z
" transform="scale(0.015625)"/>
      <path id="DejaVuSans-34" d="M 2419 4116 
L 825 1625 
L 2419 1625 
L 2419 4116 
z
M 2253 4666 
L 3047 4666 
L 3047 1625 
L 3713 1625 
L 3713 1100 
L 3047 1100 
L 3047 0 
L 2419 0 
L 2419 1100 
L 313 1100 
L 313 1709 
L 2253 4666 
z
" transform="scale(0.015625)"/>
      <path id="DejaVuSans-2c" d="M 750 794 
L 1409 794 
L 1409 256 
L 897 -744 
L 494 -744 
L 750 256 
L 750 794 
z
" transform="scale(0.015625)"/>
      <path id="DejaVuSans-38" d="M 2034 2216 
Q 1584 2216 1326 1975 
Q 1069 1734 1069 1313 
Q 1069 891 1326 650 
Q 1584 409 2034 409 
Q 2484 409 2743 651 
Q 3003 894 3003 1313 
Q 3003 1734 2745 1975 
Q 2488 2216 2034 2216 
z
M 1403 2484 
Q 997 2584 770 2862 
Q 544 3141 544 3541 
Q 544 4100 942 4425 
Q 1341 4750 2034 4750 
Q 2731 4750 3128 4425 
Q 3525 4100 3525 3541 
Q 3525 3141 3298 2862 
Q 3072 2584 2669 2484 
Q 3125 2378 3379 2068 
Q 3634 1759 3634 1313 
Q 3634 634 3220 271 
Q 2806 -91 2034 -91 
Q 1263 -91 848 271 
Q 434 634 434 1313 
Q 434 1759 690 2068 
Q 947 2378 1403 2484 
z
M 1172 3481 
Q 1172 3119 1398 2916 
Q 1625 2713 2034 2713 
Q 2441 2713 2670 2916 
Q 2900 3119 2900 3481 
Q 2900 3844 2670 4047 
Q 2441 4250 2034 4250 
Q 1625 4250 1398 4047 
Q 1172 3844 1172 3481 
z
" transform="scale(0.015625)"/>
      <path id="DejaVuSans-32" d="M 1228 531 
L 3431 531 
L 3431 0 
L 469 0 
L 469 531 
Q 828 903 1448 1529 
Q 2069 2156 2228 2338 
Q 2531 2678 2651 2914 
Q 2772 3150 2772 3378 
Q 2772 3750 2511 3984 
Q 2250 4219 1831 4219 
Q 1534 4219 1204 4116 
Q 875 4013 500 3803 
L 500 4441 
Q 881 4594 1212 4672 
Q 1544 4750 1819 4750 
Q 2544 4750 2975 4387 
Q 3406 4025 3406 3419 
Q 3406 3131 3298 2873 
Q 3191 2616 2906 2266 
Q 2828 2175 2409 1742 
Q 1991 1309 1228 531 
z
" transform="scale(0.015625)"/>
      <path id="DejaVuSans-29" d="M 513 4856 
L 1013 4856 
Q 1481 4119 1714 3412 
Q 1947 2706 1947 2009 
Q 1947 1309 1714 600 
Q 1481 -109 1013 -844 
L 513 -844 
Q 928 -128 1133 580 
Q 1338 1288 1338 2009 
Q 1338 2731 1133 3434 
Q 928 4138 513 4856 
z
" transform="scale(0.015625)"/>
     </defs>
     <use xlink:href="#DejaVuSans-78"/>
     <use xlink:href="#DejaVuSans-3a" transform="translate(59.179688 0)"/>
     <use xlink:href="#DejaVuSans-20" transform="translate(92.871094 0)"/>
     <use xlink:href="#DejaVuSans-28" transform="translate(124.658203 0)"/>
     <use xlink:href="#DejaVuSans-34" transform="translate(163.671875 0)"/>
     <use xlink:href="#DejaVuSans-2c" transform="translate(227.294922 0)"/>
     <use xlink:href="#DejaVuSans-38" transform="translate(259.082031 0)"/>
     <use xlink:href="#DejaVuSans-2c" transform="translate(322.705078 0)"/>
     <use xlink:href="#DejaVuSans-32" transform="translate(354.492188 0)"/>
     <use xlink:href="#DejaVuSans-29" transform="translate(418.115234 0)"/>
    </g>
   </g>
   <g id="patch_6">
    <path d="M 110.31 119.882979 
L 145.65 119.882979 
Q 152.16 119.882979 152.16 122.291752 
L 152.16 129.173959 
Q 152.16 131.582731 145.65 131.582731 
L 110.31 131.582731 
Q 103.8 131.582731 103.8 129.173959 
L 103.8 122.291752 
Q 103.8 119.882979 110.31 119.882979 
z
" clip-path="url(#pfe9ac5c817)" style="fill: #fff8e1; stroke: #34495e; stroke-width: 1.4; stroke-linejoin: miter"/>
   </g>
   <g id="patch_7">
    <path d="M 188.43 119.882979 
L 223.77 119.882979 
Q 230.28 119.882979 230.28 122.291752 
L 230.28 129.173959 
Q 230.28 131.582731 223.77 131.582731 
L 188.43 131.582731 
Q 181.92 131.582731 181.92 129.173959 
L 181.92 122.291752 
Q 181.92 119.882979 188.43 119.882979 
z
" clip-path="url(#pfe9ac5c817)" style="fill: #fff8e1; stroke: #34495e; stroke-width: 1.4; stroke-linejoin: miter"/>
   </g>
   <g id="patch_8">
    <path d="M 266.55 119.882979 
L 301.89 119.882979 
Q 308.4 119.882979 308.4 122.291752 
L 308.4 129.173959 
Q 308.4 131.582731 301.89 131.582731 
L 266.55 131.582731 
Q 260.04 131.582731 260.04 129.173959 
L 260.04 122.291752 
Q 260.04 119.882979 266.55 119.882979 
z
" clip-path="url(#pfe9ac5c817)" style="fill: #fff8e1; stroke: #34495e; stroke-width: 1.4; stroke-linejoin: miter"/>
   </g>
   <g id="patch_9">
    <path d="M 128.91 137.776717 
L 283.29 137.776717 
Q 289.8 137.776717 289.8 140.18549 
L 289.8 147.755917 
Q 289.8 150.16469 283.29 150.16469 
L 128.91 150.16469 
Q 122.4 150.16469 122.4 147.755917 
L 122.4 140.18549 
Q 122.4 137.776717 128.91 137.776717 
z
" clip-path="url(#pfe9ac5c817)" style="fill: #fff8e1; stroke: #34495e; stroke-width: 1.4; stroke-linejoin: miter"/>
   </g>
   <g id="patch_10">
    <path d="M 166.11 159.799779 
L 246.09 159.799779 
Q 252.6 159.799779 252.6 162.208552 
L 252.6 169.778979 
Q 252.6 172.187752 246.09 172.187752 
L 166.11 172.187752 
Q 159.6 172.187752 159.6 169.778979 
L 159.6 162.208552 
Q 159.6 159.799779 166.11 159.799779 
z
" clip-path="url(#pfe9ac5c817)" style="fill: #fff8e1; stroke: #34495e; stroke-width: 1.4; stroke-linejoin: miter"/>
   </g>
   <g id="patch_11">
    <path d="M 206.1 188.154472 
C 209.552944 188.154472 212.86493 188.662079 215.30653 189.565498 
C 217.748131 190.468917 219.12 191.694389 219.12 192.972017 
C 219.12 194.249644 217.748131 195.475116 215.30653 196.378535 
C 212.86493 197.281954 209.552944 197.789561 206.1 197.789561 
C 202.647056 197.789561 199.33507 197.281954 196.89347 196.378535 
C 194.451869 195.475116 193.08 194.249644 193.08 192.972017 
C 193.08 191.694389 194.451869 190.468917 196.89347 189.565498 
C 199.33507 188.662079 202.647056 188.154472 206.1 188.154472 
z
" clip-path="url(#pfe9ac5c817)" style="fill: #ffffff; stroke: #34495e; stroke-width: 1.6; stroke-linejoin: miter"/>
   </g>
   <g id="patch_12">
    <path d="M 147.51 214.754201 
L 264.69 214.754201 
Q 271.2 214.754201 271.2 217.162974 
L 271.2 235.744932 
Q 271.2 238.153705 264.69 238.153705 
L 147.51 238.153705 
Q 141 238.153705 141 235.744932 
L 141 217.162974 
Q 141 214.754201 147.51 214.754201 
z
" clip-path="url(#pfe9ac5c817)" style="fill: #fadbd8; stroke: #34495e; stroke-width: 1.4; stroke-linejoin: miter"/>
   </g>
   <g id="patch_13">
    <path d="M 206.1 255.118345 
C 209.552944 255.118345 212.86493 255.625952 215.30653 256.529371 
C 217.748131 257.43279 219.12 258.658262 219.12 259.93589 
C 219.12 261.213517 217.748131 262.438989 215.30653 263.342408 
C 212.86493 264.245828 209.552944 264.753434 206.1 264.753434 
C 202.647056 264.753434 199.33507 264.245828 196.89347 263.342408 
C 194.451869 262.438989 193.08 261.213517 193.08 259.93589 
C 193.08 258.658262 194.451869 257.43279 196.89347 256.529371 
C 199.33507 255.625952 202.647056 255.118345 206.1 255.118345 
z
" clip-path="url(#pfe9ac5c817)" style="fill: #ffffff; stroke: #34495e; stroke-width: 1.6; stroke-linejoin: miter"/>
   </g>
   <g id="patch_14">
    <path d="M 166.11 281.718074 
L 246.09 281.718074 
Q 252.6 281.718074 252.6 284.126847 
L 252.6 301.332364 
Q 252.6 303.741137 246.09 303.741137 
L 166.11 303.741137 
Q 159.6 303.741137 159.6 301.332364 
L 159.6 284.126847 
Q 159.6 281.718074 166.11 281.718074 
z
" clip-path="url(#pfe9ac5c817)" style="fill: #d5f5e3; stroke: #34495e; stroke-width: 1.4; stroke-linejoin: miter"/>
   </g>
   <g id="patch_15">
    <path d="M 151.23 313.720337 
L 194.01 313.720337 
Q 200.52 313.720337 200.52 316.129109 
L 200.52 331.269964 
Q 200.52 333.678737 194.01 333.678737 
L 151.23 333.678737 
Q 144.72 333.678737 144.72 331.269964 
L 144.72 316.129109 
Q 144.72 313.720337 151.23 313.720337 
z
" clip-path="url(#pfe9ac5c817)" style="fill: #d5f5e3; stroke: #34495e; stroke-width: 1.4; stroke-linejoin: miter"/>
   </g>
   <g id="patch_16">
    <path d="M 218.19 313.720337 
L 260.97 313.720337 
Q 267.48 313.720337 267.48 316.129109 
L 267.48 331.269964 
Q 267.48 333.678737 260.97 333.678737 
L 218.19 333.678737 
Q 211.68 333.678737 211.68 331.269964 
L 211.68 316.129109 
Q 211.68 313.720337 218.19 313.720337 
z
" clip-path="url(#pfe9ac5c817)" style="fill: #d5f5e3; stroke: #34495e; stroke-width: 1.4; stroke-linejoin: miter"/>
   </g>
   <g id="text_2">
    <!-- Notation -->
    <g style="fill: #34495e" transform="translate(364.680125 21.937332) scale(0.056 -0.056)">
     <defs>
      <path id="DejaVuSans-Bold-4e" d="M 588 4666 
L 1931 4666 
L 3628 1466 
L 3628 4666 
L 4769 4666 
L 4769 0 
L 3425 0 
L 1728 3200 
L 1728 0 
L 588 0 
L 588 4666 
z
" transform="scale(0.015625)"/>
      <path id="DejaVuSans-Bold-6f" d="M 2203 2784 
Q 1831 2784 1636 2517 
Q 1441 2250 1441 1747 
Q 1441 1244 1636 976 
Q 1831 709 2203 709 
Q 2569 709 2762 976 
Q 2956 1244 2956 1747 
Q 2956 2250 2762 2517 
Q 2569 2784 2203 2784 
z
M 2203 3584 
Q 3106 3584 3614 3096 
Q 4122 2609 4122 1747 
Q 4122 884 3614 396 
Q 3106 -91 2203 -91 
Q 1297 -91 786 396 
Q 275 884 275 1747 
Q 275 2609 786 3096 
Q 1297 3584 2203 3584 
z
" transform="scale(0.015625)"/>
      <path id="DejaVuSans-Bold-74" d="M 1759 4494 
L 1759 3500 
L 2913 3500 
L 2913 2700 
L 1759 2700 
L 1759 1216 
Q 1759 972 1856 886 
Q 1953 800 2241 800 
L 2816 800 
L 2816 0 
L 1856 0 
Q 1194 0 917 276 
Q 641 553 641 1216 
L 641 2700 
L 84 2700 
L 84 3500 
L 641 3500 
L 641 4494 
L 1759 4494 
z
" transform="scale(0.015625)"/>
      <path id="DejaVuSans-Bold-61" d="M 2106 1575 
Q 1756 1575 1579 1456 
Q 1403 1338 1403 1106 
Q 1403 894 1545 773 
Q 1688 653 1941 653 
Q 2256 653 2472 879 
Q 2688 1106 2688 1447 
L 2688 1575 
L 2106 1575 
z
M 3816 1997 
L 3816 0 
L 2688 0 
L 2688 519 
Q 2463 200 2181 54 
Q 1900 -91 1497 -91 
Q 953 -91 614 226 
Q 275 544 275 1050 
Q 275 1666 698 1953 
Q 1122 2241 2028 2241 
L 2688 2241 
L 2688 2328 
Q 2688 2594 2478 2717 
Q 2269 2841 1825 2841 
Q 1466 2841 1156 2769 
Q 847 2697 581 2553 
L 581 3406 
Q 941 3494 1303 3539 
Q 1666 3584 2028 3584 
Q 2975 3584 3395 3211 
Q 3816 2838 3816 1997 
z
" transform="scale(0.015625)"/>
      <path id="DejaVuSans-Bold-69" d="M 538 3500 
L 1656 3500 
L 1656 0 
L 538 0 
L 538 3500 
z
M 538 4863 
L 1656 4863 
L 1656 3950 
L 538 3950 
L 538 4863 
z
" transform="scale(0.015625)"/>
      <path id="DejaVuSans-Bold-6e" d="M 4056 2131 
L 4056 0 
L 2931 0 
L 2931 347 
L 2931 1631 
Q 2931 2084 2911 2256 
Q 2891 2428 2841 2509 
Q 2775 2619 2662 2680 
Q 2550 2741 2406 2741 
Q 2056 2741 1856 2470 
Q 1656 2200 1656 1722 
L 1656 0 
L 538 0 
L 538 3500 
L 1656 3500 
L 1656 2988 
Q 1909 3294 2193 3439 
Q 2478 3584 2822 3584 
Q 3428 3584 3742 3212 
Q 4056 2841 4056 2131 
z
" transform="scale(0.015625)"/>
     </defs>
     <use xlink:href="#DejaVuSans-Bold-4e"/>
     <use xlink:href="#DejaVuSans-Bold-6f" transform="translate(83.691406 0)"/>
     <use xlink:href="#DejaVuSans-Bold-74" transform="translate(152.392578 0)"/>
     <use xlink:href="#DejaVuSans-Bold-61" transform="translate(200.195312 0)"/>
     <use xlink:href="#DejaVuSans-Bold-74" transform="translate(267.675781 0)"/>
     <use xlink:href="#DejaVuSans-Bold-69" transform="translate(315.478516 0)"/>
     <use xlink:href="#DejaVuSans-Bold-6f" transform="translate(349.755859 0)"/>
     <use xlink:href="#DejaVuSans-Bold-6e" transform="translate(418.457031 0)"/>
    </g>
   </g>
   <g id="text_3">
    <!-- B=4 -->
    <g style="fill: #555555" transform="translate(381.514469 26.222986) scale(0.049 -0.049)">
     <defs>
      <path id="DejaVuSans-42" d="M 1259 2228 
L 1259 519 
L 2272 519 
Q 2781 519 3026 730 
Q 3272 941 3272 1375 
Q 3272 1813 3026 2020 
Q 2781 2228 2272 2228 
L 1259 2228 
z
M 1259 4147 
L 1259 2741 
L 2194 2741 
Q 2656 2741 2882 2914 
Q 3109 3088 3109 3444 
Q 3109 3797 2882 3972 
Q 2656 4147 2194 4147 
L 1259 4147 
z
M 628 4666 
L 2241 4666 
Q 2963 4666 3353 4366 
Q 3744 4066 3744 3513 
Q 3744 3084 3544 2831 
Q 3344 2578 2956 2516 
Q 3422 2416 3680 2098 
Q 3938 1781 3938 1306 
Q 3938 681 3513 340 
Q 3088 0 2303 0 
L 628 0 
L 628 4666 
z
" transform="scale(0.015625)"/>
      <path id="DejaVuSans-3d" d="M 678 2906 
L 4684 2906 
L 4684 2381 
L 678 2381 
L 678 2906 
z
M 678 1631 
L 4684 1631 
L 4684 1100 
L 678 1100 
L 678 1631 
z
" transform="scale(0.015625)"/>
     </defs>
     <use xlink:href="#DejaVuSans-42"/>
     <use xlink:href="#DejaVuSans-3d" transform="translate(68.603516 0)"/>
     <use xlink:href="#DejaVuSans-34" transform="translate(152.392578 0)"/>
    </g>
   </g>
   <g id="text_4">
    <!-- T=8 -->
    <g style="fill: #555555" transform="translate(381.8835 31.040531) scale(0.049 -0.049)">
     <defs>
      <path id="DejaVuSans-54" d="M -19 4666 
L 3928 4666 
L 3928 4134 
L 2272 4134 
L 2272 0 
L 1638 0 
L 1638 4134 
L -19 4134 
L -19 4666 
z
" transform="scale(0.015625)"/>
     </defs>
     <use xlink:href="#DejaVuSans-54"/>
     <use xlink:href="#DejaVuSans-3d" transform="translate(61.083984 0)"/>
     <use xlink:href="#DejaVuSans-38" transform="translate(144.873047 0)"/>
    </g>
   </g>
   <g id="text_5">
    <!-- C=2 -->
    <g style="fill: #555555" transform="translate(381.45475 35.858076) scale(0.049 -0.049)">
     <defs>
      <path id="DejaVuSans-43" d="M 4122 4306 
L 4122 3641 
Q 3803 3938 3442 4084 
Q 3081 4231 2675 4231 
Q 1875 4231 1450 3742 
Q 1025 3253 1025 2328 
Q 1025 1406 1450 917 
Q 1875 428 2675 428 
Q 3081 428 3442 575 
Q 3803 722 4122 1019 
L 4122 359 
Q 3791 134 3420 21 
Q 3050 -91 2638 -91 
Q 1578 -91 968 557 
Q 359 1206 359 2328 
Q 359 3453 968 4101 
Q 1578 4750 2638 4750 
Q 3056 4750 3426 4639 
Q 3797 4528 4122 4306 
z
" transform="scale(0.015625)"/>
     </defs>
     <use xlink:href="#DejaVuSans-43"/>
     <use xlink:href="#DejaVuSans-3d" transform="translate(69.824219 0)"/>
     <use xlink:href="#DejaVuSans-32" transform="translate(153.613281 0)"/>
    </g>
   </g>
   <g id="text_6">
    <!-- d_k=2 -->
    <g style="fill: #555555" transform="translate(376.478188 40.675621) scale(0.049 -0.049)">
     <defs>
      <path id="DejaVuSans-64" d="M 2906 2969 
L 2906 4863 
L 3481 4863 
L 3481 0 
L 2906 0 
L 2906 525 
Q 2725 213 2448 61 
Q 2172 -91 1784 -91 
Q 1150 -91 751 415 
Q 353 922 353 1747 
Q 353 2572 751 3078 
Q 1150 3584 1784 3584 
Q 2172 3584 2448 3432 
Q 2725 3281 2906 2969 
z
M 947 1747 
Q 947 1113 1208 752 
Q 1469 391 1925 391 
Q 2381 391 2643 752 
Q 2906 1113 2906 1747 
Q 2906 2381 2643 2742 
Q 2381 3103 1925 3103 
Q 1469 3103 1208 2742 
Q 947 2381 947 1747 
z
" transform="scale(0.015625)"/>
      <path id="DejaVuSans-5f" d="M 3263 -1063 
L 3263 -1509 
L -63 -1509 
L -63 -1063 
L 3263 -1063 
z
" transform="scale(0.015625)"/>
      <path id="DejaVuSans-6b" d="M 581 4863 
L 1159 4863 
L 1159 1991 
L 2875 3500 
L 3609 3500 
L 1753 1863 
L 3688 0 
L 2938 0 
L 1159 1709 
L 1159 0 
L 581 0 
L 581 4863 
z
" transform="scale(0.015625)"/>
     </defs>
     <use xlink:href="#DejaVuSans-64"/>
     <use xlink:href="#DejaVuSans-5f" transform="translate(63.476562 0)"/>
     <use xlink:href="#DejaVuSans-6b" transform="translate(113.476562 0)"/>
     <use xlink:href="#DejaVuSans-3d" transform="translate(171.386719 0)"/>
     <use xlink:href="#DejaVuSans-32" transform="translate(255.175781 0)"/>
    </g>
   </g>
   <g id="text_7">
    <!-- vocab=12 -->
    <g style="fill: #555555" transform="translate(367.052578 45.493165) scale(0.049 -0.049)">
     <defs>
      <path id="DejaVuSans-76" d="M 191 3500 
L 800 3500 
L 1894 563 
L 2988 3500 
L 3597 3500 
L 2284 0 
L 1503 0 
L 191 3500 
z
" transform="scale(0.015625)"/>
      <path id="DejaVuSans-6f" d="M 1959 3097 
Q 1497 3097 1228 2736 
Q 959 2375 959 1747 
Q 959 1119 1226 758 
Q 1494 397 1959 397 
Q 2419 397 2687 759 
Q 2956 1122 2956 1747 
Q 2956 2369 2687 2733 
Q 2419 3097 1959 3097 
z
M 1959 3584 
Q 2709 3584 3137 3096 
Q 3566 2609 3566 1747 
Q 3566 888 3137 398 
Q 2709 -91 1959 -91 
Q 1206 -91 779 398 
Q 353 888 353 1747 
Q 353 2609 779 3096 
Q 1206 3584 1959 3584 
z
" transform="scale(0.015625)"/>
      <path id="DejaVuSans-63" d="M 3122 3366 
L 3122 2828 
Q 2878 2963 2633 3030 
Q 2388 3097 2138 3097 
Q 1578 3097 1268 2742 
Q 959 2388 959 1747 
Q 959 1106 1268 751 
Q 1578 397 2138 397 
Q 2388 397 2633 464 
Q 2878 531 3122 666 
L 3122 134 
Q 2881 22 2623 -34 
Q 2366 -91 2075 -91 
Q 1284 -91 818 406 
Q 353 903 353 1747 
Q 353 2603 823 3093 
Q 1294 3584 2113 3584 
Q 2378 3584 2631 3529 
Q 2884 3475 3122 3366 
z
" transform="scale(0.015625)"/>
      <path id="DejaVuSans-61" d="M 2194 1759 
Q 1497 1759 1228 1600 
Q 959 1441 959 1056 
Q 959 750 1161 570 
Q 1363 391 1709 391 
Q 2188 391 2477 730 
Q 2766 1069 2766 1631 
L 2766 1759 
L 2194 1759 
z
M 3341 1997 
L 3341 0 
L 2766 0 
L 2766 531 
Q 2569 213 2275 61 
Q 1981 -91 1556 -91 
Q 1019 -91 701 211 
Q 384 513 384 1019 
Q 384 1609 779 1909 
Q 1175 2209 1959 2209 
L 2766 2209 
L 2766 2266 
Q 2766 2663 2505 2880 
Q 2244 3097 1772 3097 
Q 1472 3097 1187 3025 
Q 903 2953 641 2809 
L 641 3341 
Q 956 3463 1253 3523 
Q 1550 3584 1831 3584 
Q 2591 3584 2966 3190 
Q 3341 2797 3341 1997 
z
" transform="scale(0.015625)"/>
      <path id="DejaVuSans-62" d="M 3116 1747 
Q 3116 2381 2855 2742 
Q 2594 3103 2138 3103 
Q 1681 3103 1420 2742 
Q 1159 2381 1159 1747 
Q 1159 1113 1420 752 
Q 1681 391 2138 391 
Q 2594 391 2855 752 
Q 3116 1113 3116 1747 
z
M 1159 2969 
Q 1341 3281 1617 3432 
Q 1894 3584 2278 3584 
Q 2916 3584 3314 3078 
Q 3713 2572 3713 1747 
Q 3713 922 3314 415 
Q 2916 -91 2278 -91 
Q 1894 -91 1617 61 
Q 1341 213 1159 525 
L 1159 0 
L 581 0 
L 581 4863 
L 1159 4863 
L 1159 2969 
z
" transform="scale(0.015625)"/>
      <path id="DejaVuSans-31" d="M 794 531 
L 1825 531 
L 1825 4091 
L 703 3866 
L 703 4441 
L 1819 4666 
L 2450 4666 
L 2450 531 
L 3481 531 
L 3481 0 
L 794 0 
L 794 531 
z
" transform="scale(0.015625)"/>
     </defs>
     <use xlink:href="#DejaVuSans-76"/>
     <use xlink:href="#DejaVuSans-6f" transform="translate(59.179688 0)"/>
     <use xlink:href="#DejaVuSans-63" transform="translate(120.361328 0)"/>
     <use xlink:href="#DejaVuSans-61" transform="translate(175.341797 0)"/>
     <use xlink:href="#DejaVuSans-62" transform="translate(236.621094 0)"/>
     <use xlink:href="#DejaVuSans-3d" transform="translate(300.097656 0)"/>
     <use xlink:href="#DejaVuSans-31" transform="translate(383.886719 0)"/>
     <use xlink:href="#DejaVuSans-32" transform="translate(447.509766 0)"/>
    </g>
   </g>
   <g id="patch_17">
    <path d="M 31.26 495.651476 
L 38.7 495.651476 
Q 40.56 495.651476 40.56 496.339697 
L 40.56 499.092579 
Q 40.56 499.7808 38.7 499.7808 
L 31.26 499.7808 
Q 29.4 499.7808 29.4 499.092579 
L 29.4 496.339697 
Q 29.4 495.651476 31.26 495.651476 
z
" clip-path="url(#pfe9ac5c817)" style="fill: #daeaf6; stroke: #34495e; stroke-width: 0.8; stroke-linejoin: miter"/>
   </g>
   <g id="patch_18">
    <path d="M 119.61 495.651476 
L 127.05 495.651476 
Q 128.91 495.651476 128.91 496.339697 
L 128.91 499.092579 
Q 128.91 499.7808 127.05 499.7808 
L 119.61 499.7808 
Q 117.75 499.7808 117.75 499.092579 
L 117.75 496.339697 
Q 117.75 495.651476 119.61 495.651476 
z
" clip-path="url(#pfe9ac5c817)" style="fill: #fff8e1; stroke: #34495e; stroke-width: 0.8; stroke-linejoin: miter"/>
   </g>
   <g id="patch_19">
    <path d="M 207.96 495.651476 
L 215.4 495.651476 
Q 217.26 495.651476 217.26 496.339697 
L 217.26 499.092579 
Q 217.26 499.7808 215.4 499.7808 
L 207.96 499.7808 
Q 206.1 499.7808 206.1 499.092579 
L 206.1 496.339697 
Q 206.1 495.651476 207.96 495.651476 
z
" clip-path="url(#pfe9ac5c817)" style="fill: #fadbd8; stroke: #34495e; stroke-width: 0.8; stroke-linejoin: miter"/>
   </g>
   <g id="patch_20">
    <path d="M 296.31 495.651476 
L 303.75 495.651476 
Q 305.61 495.651476 305.61 496.339697 
L 305.61 499.092579 
Q 305.61 499.7808 303.75 499.7808 
L 296.31 499.7808 
Q 294.45 499.7808 294.45 499.092579 
L 294.45 496.339697 
Q 294.45 495.651476 296.31 495.651476 
z
" clip-path="url(#pfe9ac5c817)" style="fill: #d5f5e3; stroke: #34495e; stroke-width: 0.8; stroke-linejoin: miter"/>
   </g>
   <g id="text_8">
    <!-- Input -->
    <g style="fill: #34495e" transform="translate(196.682977 31.361242) scale(0.063 -0.063)">
     <defs>
      <path id="DejaVuSans-Bold-49" d="M 588 4666 
L 1791 4666 
L 1791 0 
L 588 0 
L 588 4666 
z
" transform="scale(0.015625)"/>
      <path id="DejaVuSans-Bold-70" d="M 1656 506 
L 1656 -1331 
L 538 -1331 
L 538 3500 
L 1656 3500 
L 1656 2988 
Q 1888 3294 2169 3439 
Q 2450 3584 2816 3584 
Q 3463 3584 3878 3070 
Q 4294 2556 4294 1747 
Q 4294 938 3878 423 
Q 3463 -91 2816 -91 
Q 2450 -91 2169 54 
Q 1888 200 1656 506 
z
M 2400 2772 
Q 2041 2772 1848 2508 
Q 1656 2244 1656 1747 
Q 1656 1250 1848 986 
Q 2041 722 2400 722 
Q 2759 722 2948 984 
Q 3138 1247 3138 1747 
Q 3138 2247 2948 2509 
Q 2759 2772 2400 2772 
z
" transform="scale(0.015625)"/>
      <path id="DejaVuSans-Bold-75" d="M 500 1363 
L 500 3500 
L 1625 3500 
L 1625 3150 
Q 1625 2866 1622 2436 
Q 1619 2006 1619 1863 
Q 1619 1441 1641 1255 
Q 1663 1069 1716 984 
Q 1784 875 1895 815 
Q 2006 756 2150 756 
Q 2500 756 2700 1025 
Q 2900 1294 2900 1772 
L 2900 3500 
L 4019 3500 
L 4019 0 
L 2900 0 
L 2900 506 
Q 2647 200 2364 54 
Q 2081 -91 1741 -91 
Q 1134 -91 817 281 
Q 500 653 500 1363 
z
" transform="scale(0.015625)"/>
     </defs>
     <use xlink:href="#DejaVuSans-Bold-49"/>
     <use xlink:href="#DejaVuSans-Bold-6e" transform="translate(37.207031 0)"/>
     <use xlink:href="#DejaVuSans-Bold-70" transform="translate(108.398438 0)"/>
     <use xlink:href="#DejaVuSans-Bold-75" transform="translate(179.980469 0)"/>
     <use xlink:href="#DejaVuSans-Bold-74" transform="translate(251.171875 0)"/>
    </g>
   </g>
   <g id="text_9">
    <!-- Tokens -->
    <g style="fill: #34495e" transform="translate(193.938539 35.697032) scale(0.063 -0.063)">
     <defs>
      <path id="DejaVuSans-Bold-54" d="M 31 4666 
L 4331 4666 
L 4331 3756 
L 2784 3756 
L 2784 0 
L 1581 0 
L 1581 3756 
L 31 3756 
L 31 4666 
z
" transform="scale(0.015625)"/>
      <path id="DejaVuSans-Bold-6b" d="M 538 4863 
L 1656 4863 
L 1656 2216 
L 2944 3500 
L 4244 3500 
L 2534 1894 
L 4378 0 
L 3022 0 
L 1656 1459 
L 1656 0 
L 538 0 
L 538 4863 
z
" transform="scale(0.015625)"/>
      <path id="DejaVuSans-Bold-65" d="M 4031 1759 
L 4031 1441 
L 1416 1441 
Q 1456 1047 1700 850 
Q 1944 653 2381 653 
Q 2734 653 3104 758 
Q 3475 863 3866 1075 
L 3866 213 
Q 3469 63 3072 -14 
Q 2675 -91 2278 -91 
Q 1328 -91 801 392 
Q 275 875 275 1747 
Q 275 2603 792 3093 
Q 1309 3584 2216 3584 
Q 3041 3584 3536 3087 
Q 4031 2591 4031 1759 
z
M 2881 2131 
Q 2881 2450 2695 2645 
Q 2509 2841 2209 2841 
Q 1884 2841 1681 2658 
Q 1478 2475 1428 2131 
L 2881 2131 
z
" transform="scale(0.015625)"/>
      <path id="DejaVuSans-Bold-73" d="M 3272 3391 
L 3272 2541 
Q 2913 2691 2578 2766 
Q 2244 2841 1947 2841 
Q 1628 2841 1473 2761 
Q 1319 2681 1319 2516 
Q 1319 2381 1436 2309 
Q 1553 2238 1856 2203 
L 2053 2175 
Q 2913 2066 3209 1816 
Q 3506 1566 3506 1031 
Q 3506 472 3093 190 
Q 2681 -91 1863 -91 
Q 1516 -91 1145 -36 
Q 775 19 384 128 
L 384 978 
Q 719 816 1070 734 
Q 1422 653 1784 653 
Q 2113 653 2278 743 
Q 2444 834 2444 1013 
Q 2444 1163 2330 1236 
Q 2216 1309 1875 1350 
L 1678 1375 
Q 931 1469 631 1722 
Q 331 1975 331 2491 
Q 331 3047 712 3315 
Q 1094 3584 1881 3584 
Q 2191 3584 2531 3537 
Q 2872 3491 3272 3391 
z
" transform="scale(0.015625)"/>
     </defs>
     <use xlink:href="#DejaVuSans-Bold-54"/>
     <use xlink:href="#DejaVuSans-Bold-6f" transform="translate(54.962891 0)"/>
     <use xlink:href="#DejaVuSans-Bold-6b" transform="translate(123.664062 0)"/>
     <use xlink:href="#DejaVuSans-Bold-65" transform="translate(187.542969 0)"/>
     <use xlink:href="#DejaVuSans-Bold-6e" transform="translate(255.365234 0)"/>
     <use xlink:href="#DejaVuSans-Bold-73" transform="translate(326.556641 0)"/>
    </g>
   </g>
   <g id="text_10">
    <!-- (4,8) -->
    <g style="fill: #34495e" transform="translate(200.291969 40.816485) scale(0.049 -0.049)">
     <use xlink:href="#DejaVuSans-28"/>
     <use xlink:href="#DejaVuSans-34" transform="translate(39.013672 0)"/>
     <use xlink:href="#DejaVuSans-2c" transform="translate(102.636719 0)"/>
     <use xlink:href="#DejaVuSans-38" transform="translate(134.423828 0)"/>
     <use xlink:href="#DejaVuSans-29" transform="translate(198.046875 0)"/>
    </g>
   </g>
   <g id="text_11">
    <!-- Token Emb -->
    <g style="fill: #34495e" transform="translate(142.646875 67.196439) scale(0.056 -0.056)">
     <defs>
      <path id="DejaVuSans-Bold-20" transform="scale(0.015625)"/>
      <path id="DejaVuSans-Bold-45" d="M 588 4666 
L 3834 4666 
L 3834 3756 
L 1791 3756 
L 1791 2888 
L 3713 2888 
L 3713 1978 
L 1791 1978 
L 1791 909 
L 3903 909 
L 3903 0 
L 588 0 
L 588 4666 
z
" transform="scale(0.015625)"/>
      <path id="DejaVuSans-Bold-6d" d="M 3781 2919 
Q 3994 3244 4286 3414 
Q 4578 3584 4928 3584 
Q 5531 3584 5847 3212 
Q 6163 2841 6163 2131 
L 6163 0 
L 5038 0 
L 5038 1825 
Q 5041 1866 5042 1909 
Q 5044 1953 5044 2034 
Q 5044 2406 4934 2573 
Q 4825 2741 4581 2741 
Q 4263 2741 4089 2478 
Q 3916 2216 3909 1719 
L 3909 0 
L 2784 0 
L 2784 1825 
Q 2784 2406 2684 2573 
Q 2584 2741 2328 2741 
Q 2006 2741 1831 2477 
Q 1656 2213 1656 1722 
L 1656 0 
L 531 0 
L 531 3500 
L 1656 3500 
L 1656 2988 
Q 1863 3284 2130 3434 
Q 2397 3584 2719 3584 
Q 3081 3584 3359 3409 
Q 3638 3234 3781 2919 
z
" transform="scale(0.015625)"/>
      <path id="DejaVuSans-Bold-62" d="M 2400 722 
Q 2759 722 2948 984 
Q 3138 1247 3138 1747 
Q 3138 2247 2948 2509 
Q 2759 2772 2400 2772 
Q 2041 2772 1848 2508 
Q 1656 2244 1656 1747 
Q 1656 1250 1848 986 
Q 2041 722 2400 722 
z
M 1656 2988 
Q 1888 3294 2169 3439 
Q 2450 3584 2816 3584 
Q 3463 3584 3878 3070 
Q 4294 2556 4294 1747 
Q 4294 938 3878 423 
Q 3463 -91 2816 -91 
Q 2450 -91 2169 54 
Q 1888 200 1656 506 
L 1656 0 
L 538 0 
L 538 4863 
L 1656 4863 
L 1656 2988 
z
" transform="scale(0.015625)"/>
     </defs>
     <use xlink:href="#DejaVuSans-Bold-54"/>
     <use xlink:href="#DejaVuSans-Bold-6f" transform="translate(54.962891 0)"/>
     <use xlink:href="#DejaVuSans-Bold-6b" transform="translate(123.664062 0)"/>
     <use xlink:href="#DejaVuSans-Bold-65" transform="translate(187.542969 0)"/>
     <use xlink:href="#DejaVuSans-Bold-6e" transform="translate(255.365234 0)"/>
     <use xlink:href="#DejaVuSans-Bold-20" transform="translate(326.556641 0)"/>
     <use xlink:href="#DejaVuSans-Bold-45" transform="translate(361.371094 0)"/>
     <use xlink:href="#DejaVuSans-Bold-6d" transform="translate(429.681641 0)"/>
     <use xlink:href="#DejaVuSans-Bold-62" transform="translate(533.880859 0)"/>
    </g>
   </g>
   <g id="text_12">
    <!-- (12,2) -->
    <g style="fill: #34495e" transform="translate(153.285563 72.315892) scale(0.042 -0.042)">
     <use xlink:href="#DejaVuSans-28"/>
     <use xlink:href="#DejaVuSans-31" transform="translate(39.013672 0)"/>
     <use xlink:href="#DejaVuSans-32" transform="translate(102.636719 0)"/>
     <use xlink:href="#DejaVuSans-2c" transform="translate(166.259766 0)"/>
     <use xlink:href="#DejaVuSans-32" transform="translate(198.046875 0)"/>
     <use xlink:href="#DejaVuSans-29" transform="translate(261.669922 0)"/>
    </g>
   </g>
   <g id="text_13">
    <!-- Position Emb -->
    <g style="fill: #34495e" transform="translate(231.973188 67.196439) scale(0.056 -0.056)">
     <defs>
      <path id="DejaVuSans-Bold-50" d="M 588 4666 
L 2584 4666 
Q 3475 4666 3951 4270 
Q 4428 3875 4428 3144 
Q 4428 2409 3951 2014 
Q 3475 1619 2584 1619 
L 1791 1619 
L 1791 0 
L 588 0 
L 588 4666 
z
M 1791 3794 
L 1791 2491 
L 2456 2491 
Q 2806 2491 2997 2661 
Q 3188 2831 3188 3144 
Q 3188 3456 2997 3625 
Q 2806 3794 2456 3794 
L 1791 3794 
z
" transform="scale(0.015625)"/>
     </defs>
     <use xlink:href="#DejaVuSans-Bold-50"/>
     <use xlink:href="#DejaVuSans-Bold-6f" transform="translate(73.291016 0)"/>
     <use xlink:href="#DejaVuSans-Bold-73" transform="translate(141.992188 0)"/>
     <use xlink:href="#DejaVuSans-Bold-69" transform="translate(201.513672 0)"/>
     <use xlink:href="#DejaVuSans-Bold-74" transform="translate(235.791016 0)"/>
     <use xlink:href="#DejaVuSans-Bold-69" transform="translate(283.59375 0)"/>
     <use xlink:href="#DejaVuSans-Bold-6f" transform="translate(317.871094 0)"/>
     <use xlink:href="#DejaVuSans-Bold-6e" transform="translate(386.572266 0)"/>
     <use xlink:href="#DejaVuSans-Bold-20" transform="translate(457.763672 0)"/>
     <use xlink:href="#DejaVuSans-Bold-45" transform="translate(492.578125 0)"/>
     <use xlink:href="#DejaVuSans-Bold-6d" transform="translate(560.888672 0)"/>
     <use xlink:href="#DejaVuSans-Bold-62" transform="translate(665.087891 0)"/>
    </g>
   </g>
   <g id="text_14">
    <!-- (8,2) -->
    <g style="fill: #34495e" transform="translate(247.621688 72.315892) scale(0.042 -0.042)">
     <use xlink:href="#DejaVuSans-28"/>
     <use xlink:href="#DejaVuSans-38" transform="translate(39.013672 0)"/>
     <use xlink:href="#DejaVuSans-2c" transform="translate(102.636719 0)"/>
     <use xlink:href="#DejaVuSans-32" transform="translate(134.423828 0)"/>
     <use xlink:href="#DejaVuSans-29" transform="translate(198.046875 0)"/>
    </g>
   </g>
   <g id="text_15">
    <!-- + -->
    <g style="fill: #34495e" transform="translate(202.287242 95.622226) scale(0.091 -0.091)">
     <defs>
      <path id="DejaVuSans-Bold-2b" d="M 3053 4013 
L 3053 2375 
L 4684 2375 
L 4684 1638 
L 3053 1638 
L 3053 0 
L 2309 0 
L 2309 1638 
L 678 1638 
L 678 2375 
L 2309 2375 
L 2309 4013 
L 3053 4013 
z
" transform="scale(0.015625)"/>
     </defs>
     <use xlink:href="#DejaVuSans-Bold-2b"/>
    </g>
   </g>
   <g id="text_16">
    <!-- Q -->
    <g style="fill: #34495e" transform="translate(125.599563 124.525222) scale(0.056 -0.056)">
     <defs>
      <path id="DejaVuSans-Bold-51" d="M 2847 -84 
L 2753 -84 
Q 1600 -84 959 553 
Q 319 1191 319 2328 
Q 319 3463 958 4106 
Q 1597 4750 2719 4750 
Q 3853 4750 4486 4112 
Q 5119 3475 5119 2328 
Q 5119 1541 4783 972 
Q 4447 403 3816 116 
L 4756 -934 
L 3609 -934 
L 2847 -84 
z
M 2719 3878 
Q 2169 3878 1866 3472 
Q 1563 3066 1563 2328 
Q 1563 1578 1859 1179 
Q 2156 781 2719 781 
Q 3272 781 3575 1187 
Q 3878 1594 3878 2328 
Q 3878 3066 3575 3472 
Q 3272 3878 2719 3878 
z
" transform="scale(0.015625)"/>
     </defs>
     <use xlink:href="#DejaVuSans-Bold-51"/>
    </g>
   </g>
   <g id="text_17">
    <!-- 2→2 -->
    <g style="fill: #34495e" transform="translate(123.548016 129.644675) scale(0.042 -0.042)">
     <defs>
      <path id="DejaVuSans-2192" d="M 5050 2147 
L 5050 1866 
L 3822 638 
L 3447 1013 
L 4175 1741 
L 366 1741 
L 366 2272 
L 4175 2272 
L 3447 3000 
L 3822 3375 
L 5050 2147 
z
" transform="scale(0.015625)"/>
     </defs>
     <use xlink:href="#DejaVuSans-32"/>
     <use xlink:href="#DejaVuSans-2192" transform="translate(63.623047 0)"/>
     <use xlink:href="#DejaVuSans-32" transform="translate(147.412109 0)"/>
    </g>
   </g>
   <g id="text_18">
    <!-- K -->
    <g style="fill: #34495e" transform="translate(203.930438 124.525222) scale(0.056 -0.056)">
     <defs>
      <path id="DejaVuSans-Bold-4b" d="M 588 4666 
L 1791 4666 
L 1791 2963 
L 3525 4666 
L 4922 4666 
L 2675 2456 
L 5153 0 
L 3647 0 
L 1791 1838 
L 1791 0 
L 588 0 
L 588 4666 
z
" transform="scale(0.015625)"/>
     </defs>
     <use xlink:href="#DejaVuSans-Bold-4b"/>
    </g>
   </g>
   <g id="text_19">
    <!-- 2→2 -->
    <g style="fill: #34495e" transform="translate(201.668016 129.644675) scale(0.042 -0.042)">
     <use xlink:href="#DejaVuSans-32"/>
     <use xlink:href="#DejaVuSans-2192" transform="translate(63.623047 0)"/>
     <use xlink:href="#DejaVuSans-32" transform="translate(147.412109 0)"/>
    </g>
   </g>
   <g id="text_20">
    <!-- V -->
    <g style="fill: #34495e" transform="translate(282.053063 124.525222) scale(0.056 -0.056)">
     <defs>
      <path id="DejaVuSans-Bold-56" d="M 31 4666 
L 1241 4666 
L 2478 1222 
L 3713 4666 
L 4922 4666 
L 3194 0 
L 1759 0 
L 31 4666 
z
" transform="scale(0.015625)"/>
     </defs>
     <use xlink:href="#DejaVuSans-Bold-56"/>
    </g>
   </g>
   <g id="text_21">
    <!-- 2→2 -->
    <g style="fill: #34495e" transform="translate(279.788016 129.644675) scale(0.042 -0.042)">
     <use xlink:href="#DejaVuSans-32"/>
     <use xlink:href="#DejaVuSans-2192" transform="translate(63.623047 0)"/>
     <use xlink:href="#DejaVuSans-32" transform="translate(147.412109 0)"/>
    </g>
   </g>
   <g id="text_22">
    <!-- QKᵀ / √dₖ  →  Mask  →  Softmax -->
    <g style="fill: #34495e" transform="translate(164.304148 145.359547) scale(0.049 -0.049)">
     <defs>
      <path id="DejaVuSans-Bold-1d40" d="M 19 4700 
L 2728 4700 
L 2728 4191 
L 1753 4191 
L 1753 2088 
L 997 2088 
L 997 4191 
L 19 4191 
L 19 4700 
z
" transform="scale(0.015625)"/>
      <path id="DejaVuSans-Bold-2f" d="M 1644 4666 
L 2338 4666 
L 691 -594 
L 0 -594 
L 1644 4666 
z
" transform="scale(0.015625)"/>
      <path id="DejaVuSans-Bold-221a" d="M 3609 5356 
L 4281 5356 
L 4281 4891 
L 3981 4891 
L 2138 -128 
L 1766 -128 
L 806 2516 
L 353 2344 
L 238 2747 
L 1363 3144 
L 2059 1159 
L 3609 5356 
z
" transform="scale(0.015625)"/>
      <path id="DejaVuSans-Bold-64" d="M 2919 2988 
L 2919 4863 
L 4044 4863 
L 4044 0 
L 2919 0 
L 2919 506 
Q 2688 197 2409 53 
Q 2131 -91 1766 -91 
Q 1119 -91 703 423 
Q 288 938 288 1747 
Q 288 2556 703 3070 
Q 1119 3584 1766 3584 
Q 2128 3584 2408 3439 
Q 2688 3294 2919 2988 
z
M 2181 722 
Q 2541 722 2730 984 
Q 2919 1247 2919 1747 
Q 2919 2247 2730 2509 
Q 2541 2772 2181 2772 
Q 1825 2772 1636 2509 
Q 1447 2247 1447 1747 
Q 1447 1247 1636 984 
Q 1825 722 2181 722 
z
" transform="scale(0.015625)"/>
      <path id="DejaVuSans-Bold-2096" d="M 341 2697 
L 1047 2697 
L 1047 1216 
L 1856 1935 
L 2675 1935 
L 1600 1035 
L 2759 -24 
L 1906 -24 
L 1047 794 
L 1047 -24 
L 341 -24 
L 341 2697 
z
" transform="scale(0.015625)"/>
      <path id="DejaVuSans-Bold-2192" d="M 5050 2225 
L 5050 1788 
L 3822 559 
L 3369 1013 
L 3988 1631 
L 366 1631 
L 366 2381 
L 3988 2381 
L 3369 3000 
L 3822 3453 
L 5050 2225 
z
" transform="scale(0.015625)"/>
      <path id="DejaVuSans-Bold-4d" d="M 588 4666 
L 2119 4666 
L 3181 2169 
L 4250 4666 
L 5778 4666 
L 5778 0 
L 4641 0 
L 4641 3413 
L 3566 897 
L 2803 897 
L 1728 3413 
L 1728 0 
L 588 0 
L 588 4666 
z
" transform="scale(0.015625)"/>
      <path id="DejaVuSans-Bold-53" d="M 3834 4519 
L 3834 3531 
Q 3450 3703 3084 3790 
Q 2719 3878 2394 3878 
Q 1963 3878 1756 3759 
Q 1550 3641 1550 3391 
Q 1550 3203 1689 3098 
Q 1828 2994 2194 2919 
L 2706 2816 
Q 3484 2659 3812 2340 
Q 4141 2022 4141 1434 
Q 4141 663 3683 286 
Q 3225 -91 2284 -91 
Q 1841 -91 1394 -6 
Q 947 78 500 244 
L 500 1259 
Q 947 1022 1364 901 
Q 1781 781 2169 781 
Q 2563 781 2772 912 
Q 2981 1044 2981 1288 
Q 2981 1506 2839 1625 
Q 2697 1744 2272 1838 
L 1806 1941 
Q 1106 2091 782 2419 
Q 459 2747 459 3303 
Q 459 4000 909 4375 
Q 1359 4750 2203 4750 
Q 2588 4750 2994 4692 
Q 3400 4634 3834 4519 
z
" transform="scale(0.015625)"/>
      <path id="DejaVuSans-Bold-66" d="M 2841 4863 
L 2841 4128 
L 2222 4128 
Q 1984 4128 1890 4042 
Q 1797 3956 1797 3744 
L 1797 3500 
L 2753 3500 
L 2753 2700 
L 1797 2700 
L 1797 0 
L 678 0 
L 678 2700 
L 122 2700 
L 122 3500 
L 678 3500 
L 678 3744 
Q 678 4316 997 4589 
Q 1316 4863 1984 4863 
L 2841 4863 
z
" transform="scale(0.015625)"/>
      <path id="DejaVuSans-Bold-78" d="M 1422 1791 
L 159 3500 
L 1344 3500 
L 2059 2463 
L 2784 3500 
L 3969 3500 
L 2706 1797 
L 4031 0 
L 2847 0 
L 2059 1106 
L 1281 0 
L 97 0 
L 1422 1791 
z
" transform="scale(0.015625)"/>
     </defs>
     <use xlink:href="#DejaVuSans-Bold-51"/>
     <use xlink:href="#DejaVuSans-Bold-4b" transform="translate(85.009766 0)"/>
     <use xlink:href="#DejaVuSans-Bold-1d40" transform="translate(162.5 0)"/>
     <use xlink:href="#DejaVuSans-Bold-20" transform="translate(205.46875 0)"/>
     <use xlink:href="#DejaVuSans-Bold-2f" transform="translate(240.283203 0)"/>
     <use xlink:href="#DejaVuSans-Bold-20" transform="translate(276.806641 0)"/>
     <use xlink:href="#DejaVuSans-Bold-221a" transform="translate(311.621094 0)"/>
     <use xlink:href="#DejaVuSans-Bold-64" transform="translate(378.320312 0)"/>
     <use xlink:href="#DejaVuSans-Bold-2096" transform="translate(449.902344 0)"/>
     <use xlink:href="#DejaVuSans-Bold-20" transform="translate(498.632812 0)"/>
     <use xlink:href="#DejaVuSans-Bold-20" transform="translate(533.447266 0)"/>
     <use xlink:href="#DejaVuSans-Bold-2192" transform="translate(568.261719 0)"/>
     <use xlink:href="#DejaVuSans-Bold-20" transform="translate(652.050781 0)"/>
     <use xlink:href="#DejaVuSans-Bold-20" transform="translate(686.865234 0)"/>
     <use xlink:href="#DejaVuSans-Bold-4d" transform="translate(721.679688 0)"/>
     <use xlink:href="#DejaVuSans-Bold-61" transform="translate(821.191406 0)"/>
     <use xlink:href="#DejaVuSans-Bold-73" transform="translate(888.671875 0)"/>
     <use xlink:href="#DejaVuSans-Bold-6b" transform="translate(948.193359 0)"/>
     <use xlink:href="#DejaVuSans-Bold-20" transform="translate(1014.697266 0)"/>
     <use xlink:href="#DejaVuSans-Bold-20" transform="translate(1049.511719 0)"/>
     <use xlink:href="#DejaVuSans-Bold-2192" transform="translate(1084.326172 0)"/>
     <use xlink:href="#DejaVuSans-Bold-20" transform="translate(1168.115234 0)"/>
     <use xlink:href="#DejaVuSans-Bold-20" transform="translate(1202.929688 0)"/>
     <use xlink:href="#DejaVuSans-Bold-53" transform="translate(1237.744141 0)"/>
     <use xlink:href="#DejaVuSans-Bold-6f" transform="translate(1309.765625 0)"/>
     <use xlink:href="#DejaVuSans-Bold-66" transform="translate(1378.466797 0)"/>
     <use xlink:href="#DejaVuSans-Bold-74" transform="translate(1421.972656 0)"/>
     <use xlink:href="#DejaVuSans-Bold-6d" transform="translate(1469.775391 0)"/>
     <use xlink:href="#DejaVuSans-Bold-61" transform="translate(1573.974609 0)"/>
     <use xlink:href="#DejaVuSans-Bold-78" transform="translate(1641.455078 0)"/>
    </g>
   </g>
   <g id="text_23">
    <!-- Weights × V -->
    <g style="fill: #34495e" transform="translate(186.789188 167.517141) scale(0.056 -0.056)">
     <defs>
      <path id="DejaVuSans-Bold-57" d="M 191 4666 
L 1344 4666 
L 2150 1275 
L 2950 4666 
L 4109 4666 
L 4909 1275 
L 5716 4666 
L 6859 4666 
L 5759 0 
L 4372 0 
L 3525 3547 
L 2688 0 
L 1300 0 
L 191 4666 
z
" transform="scale(0.015625)"/>
      <path id="DejaVuSans-Bold-67" d="M 2919 594 
Q 2688 288 2409 144 
Q 2131 0 1766 0 
Q 1125 0 706 504 
Q 288 1009 288 1791 
Q 288 2575 706 3076 
Q 1125 3578 1766 3578 
Q 2131 3578 2409 3434 
Q 2688 3291 2919 2981 
L 2919 3500 
L 4044 3500 
L 4044 353 
Q 4044 -491 3511 -936 
Q 2978 -1381 1966 -1381 
Q 1638 -1381 1331 -1331 
Q 1025 -1281 716 -1178 
L 716 -306 
Q 1009 -475 1290 -558 
Q 1572 -641 1856 -641 
Q 2406 -641 2662 -400 
Q 2919 -159 2919 353 
L 2919 594 
z
M 2181 2772 
Q 1834 2772 1640 2515 
Q 1447 2259 1447 1791 
Q 1447 1309 1634 1061 
Q 1822 813 2181 813 
Q 2531 813 2725 1069 
Q 2919 1325 2919 1791 
Q 2919 2259 2725 2515 
Q 2531 2772 2181 2772 
z
" transform="scale(0.015625)"/>
      <path id="DejaVuSans-Bold-68" d="M 4056 2131 
L 4056 0 
L 2931 0 
L 2931 347 
L 2931 1625 
Q 2931 2084 2911 2256 
Q 2891 2428 2841 2509 
Q 2775 2619 2662 2680 
Q 2550 2741 2406 2741 
Q 2056 2741 1856 2470 
Q 1656 2200 1656 1722 
L 1656 0 
L 538 0 
L 538 4863 
L 1656 4863 
L 1656 2988 
Q 1909 3294 2193 3439 
Q 2478 3584 2822 3584 
Q 3428 3584 3742 3212 
Q 4056 2841 4056 2131 
z
" transform="scale(0.015625)"/>
      <path id="DejaVuSans-Bold-d7" d="M 4563 3359 
L 3206 2003 
L 4563 653 
L 4038 128 
L 2681 1478 
L 1325 128 
L 800 653 
L 2156 2003 
L 800 3359 
L 1325 3884 
L 2681 2528 
L 4038 3884 
L 4563 3359 
z
" transform="scale(0.015625)"/>
     </defs>
     <use xlink:href="#DejaVuSans-Bold-57"/>
     <use xlink:href="#DejaVuSans-Bold-65" transform="translate(106.677734 0)"/>
     <use xlink:href="#DejaVuSans-Bold-69" transform="translate(174.5 0)"/>
     <use xlink:href="#DejaVuSans-Bold-67" transform="translate(208.777344 0)"/>
     <use xlink:href="#DejaVuSans-Bold-68" transform="translate(280.359375 0)"/>
     <use xlink:href="#DejaVuSans-Bold-74" transform="translate(351.550781 0)"/>
     <use xlink:href="#DejaVuSans-Bold-73" transform="translate(399.353516 0)"/>
     <use xlink:href="#DejaVuSans-Bold-20" transform="translate(458.875 0)"/>
     <use xlink:href="#DejaVuSans-Bold-d7" transform="translate(493.689453 0)"/>
     <use xlink:href="#DejaVuSans-Bold-20" transform="translate(577.478516 0)"/>
     <use xlink:href="#DejaVuSans-Bold-56" transform="translate(612.292969 0)"/>
    </g>
   </g>
   <g id="text_24">
    <!-- + -->
    <g style="fill: #34495e" transform="translate(202.287242 195.483048) scale(0.091 -0.091)">
     <use xlink:href="#DejaVuSans-Bold-2b"/>
    </g>
   </g>
   <g id="text_25">
    <!-- skip -->
    <g style="fill: #27ae60" transform="translate(33.460266 144.780012) scale(0.063 -0.063)">
     <defs>
      <path id="DejaVuSans-Oblique-73" d="M 3200 3397 
L 3091 2853 
Q 2863 2978 2609 3040 
Q 2356 3103 2088 3103 
Q 1634 3103 1373 2948 
Q 1113 2794 1113 2528 
Q 1113 2219 1719 2053 
Q 1766 2041 1788 2034 
L 1972 1978 
Q 2547 1819 2739 1644 
Q 2931 1469 2931 1166 
Q 2931 609 2489 259 
Q 2047 -91 1331 -91 
Q 1053 -91 747 -37 
Q 441 16 72 128 
L 184 722 
Q 500 559 806 475 
Q 1113 391 1394 391 
Q 1816 391 2080 572 
Q 2344 753 2344 1031 
Q 2344 1331 1650 1516 
L 1591 1531 
L 1394 1581 
Q 956 1697 753 1886 
Q 550 2075 550 2369 
Q 550 2928 970 3256 
Q 1391 3584 2113 3584 
Q 2397 3584 2667 3537 
Q 2938 3491 3200 3397 
z
" transform="scale(0.015625)"/>
      <path id="DejaVuSans-Oblique-6b" d="M 1172 4863 
L 1747 4863 
L 1197 2028 
L 3169 3500 
L 3916 3500 
L 1716 1825 
L 3322 0 
L 2625 0 
L 1131 1709 
L 800 0 
L 225 0 
L 1172 4863 
z
" transform="scale(0.015625)"/>
      <path id="DejaVuSans-Oblique-69" d="M 1172 4863 
L 1747 4863 
L 1606 4134 
L 1031 4134 
L 1172 4863 
z
M 909 3500 
L 1484 3500 
L 800 0 
L 225 0 
L 909 3500 
z
" transform="scale(0.015625)"/>
      <path id="DejaVuSans-Oblique-70" d="M 3175 2156 
Q 3175 2616 2975 2859 
Q 2775 3103 2400 3103 
Q 2144 3103 1911 2972 
Q 1678 2841 1497 2591 
Q 1319 2344 1212 1994 
Q 1106 1644 1106 1300 
Q 1106 863 1306 627 
Q 1506 391 1875 391 
Q 2147 391 2380 519 
Q 2613 647 2778 891 
Q 2956 1147 3065 1494 
Q 3175 1841 3175 2156 
z
M 1394 2969 
Q 1625 3272 1939 3428 
Q 2253 3584 2638 3584 
Q 3175 3584 3472 3232 
Q 3769 2881 3769 2247 
Q 3769 1728 3584 1258 
Q 3400 788 3053 416 
Q 2822 169 2531 39 
Q 2241 -91 1919 -91 
Q 1547 -91 1294 64 
Q 1041 219 916 525 
L 556 -1331 
L -19 -1331 
L 922 3500 
L 1497 3500 
L 1394 2969 
z
" transform="scale(0.015625)"/>
     </defs>
     <use xlink:href="#DejaVuSans-Oblique-73"/>
     <use xlink:href="#DejaVuSans-Oblique-6b" transform="translate(52.099609 0)"/>
     <use xlink:href="#DejaVuSans-Oblique-69" transform="translate(110.009766 0)"/>
     <use xlink:href="#DejaVuSans-Oblique-70" transform="translate(137.792969 0)"/>
    </g>
   </g>
   <g id="text_26">
    <!-- Feed-Forward -->
    <g style="fill: #34495e" transform="translate(184.368063 222.837548) scale(0.056 -0.056)">
     <defs>
      <path id="DejaVuSans-Bold-46" d="M 588 4666 
L 3834 4666 
L 3834 3756 
L 1791 3756 
L 1791 2888 
L 3713 2888 
L 3713 1978 
L 1791 1978 
L 1791 0 
L 588 0 
L 588 4666 
z
" transform="scale(0.015625)"/>
      <path id="DejaVuSans-Bold-2d" d="M 347 2297 
L 2309 2297 
L 2309 1388 
L 347 1388 
L 347 2297 
z
" transform="scale(0.015625)"/>
      <path id="DejaVuSans-Bold-72" d="M 3138 2547 
Q 2991 2616 2845 2648 
Q 2700 2681 2553 2681 
Q 2122 2681 1889 2404 
Q 1656 2128 1656 1613 
L 1656 0 
L 538 0 
L 538 3500 
L 1656 3500 
L 1656 2925 
Q 1872 3269 2151 3426 
Q 2431 3584 2822 3584 
Q 2878 3584 2943 3579 
Q 3009 3575 3134 3559 
L 3138 2547 
z
" transform="scale(0.015625)"/>
      <path id="DejaVuSans-Bold-77" d="M 225 3500 
L 1313 3500 
L 1900 1088 
L 2491 3500 
L 3425 3500 
L 4013 1113 
L 4603 3500 
L 5691 3500 
L 4769 0 
L 3547 0 
L 2956 2406 
L 2369 0 
L 1147 0 
L 225 3500 
z
" transform="scale(0.015625)"/>
     </defs>
     <use xlink:href="#DejaVuSans-Bold-46"/>
     <use xlink:href="#DejaVuSans-Bold-65" transform="translate(64.310547 0)"/>
     <use xlink:href="#DejaVuSans-Bold-65" transform="translate(132.132812 0)"/>
     <use xlink:href="#DejaVuSans-Bold-64" transform="translate(199.955078 0)"/>
     <use xlink:href="#DejaVuSans-Bold-2d" transform="translate(271.537109 0)"/>
     <use xlink:href="#DejaVuSans-Bold-46" transform="translate(313.041016 0)"/>
     <use xlink:href="#DejaVuSans-Bold-6f" transform="translate(377.351562 0)"/>
     <use xlink:href="#DejaVuSans-Bold-72" transform="translate(446.052734 0)"/>
     <use xlink:href="#DejaVuSans-Bold-77" transform="translate(495.369141 0)"/>
     <use xlink:href="#DejaVuSans-Bold-61" transform="translate(587.751953 0)"/>
     <use xlink:href="#DejaVuSans-Bold-72" transform="translate(655.232422 0)"/>
     <use xlink:href="#DejaVuSans-Bold-64" transform="translate(704.548828 0)"/>
    </g>
   </g>
   <g id="text_27">
    <!-- Linear(2,32) -->
    <g style="fill: #34495e" transform="translate(193.258828 228.645222) scale(0.042 -0.042)">
     <defs>
      <path id="DejaVuSans-4c" d="M 628 4666 
L 1259 4666 
L 1259 531 
L 3531 531 
L 3531 0 
L 628 0 
L 628 4666 
z
" transform="scale(0.015625)"/>
      <path id="DejaVuSans-69" d="M 603 3500 
L 1178 3500 
L 1178 0 
L 603 0 
L 603 3500 
z
M 603 4863 
L 1178 4863 
L 1178 4134 
L 603 4134 
L 603 4863 
z
" transform="scale(0.015625)"/>
      <path id="DejaVuSans-6e" d="M 3513 2113 
L 3513 0 
L 2938 0 
L 2938 2094 
Q 2938 2591 2744 2837 
Q 2550 3084 2163 3084 
Q 1697 3084 1428 2787 
Q 1159 2491 1159 1978 
L 1159 0 
L 581 0 
L 581 3500 
L 1159 3500 
L 1159 2956 
Q 1366 3272 1645 3428 
Q 1925 3584 2291 3584 
Q 2894 3584 3203 3211 
Q 3513 2838 3513 2113 
z
" transform="scale(0.015625)"/>
      <path id="DejaVuSans-65" d="M 3597 1894 
L 3597 1613 
L 953 1613 
Q 991 1019 1311 708 
Q 1631 397 2203 397 
Q 2534 397 2845 478 
Q 3156 559 3463 722 
L 3463 178 
Q 3153 47 2828 -22 
Q 2503 -91 2169 -91 
Q 1331 -91 842 396 
Q 353 884 353 1716 
Q 353 2575 817 3079 
Q 1281 3584 2069 3584 
Q 2775 3584 3186 3129 
Q 3597 2675 3597 1894 
z
M 3022 2063 
Q 3016 2534 2758 2815 
Q 2500 3097 2075 3097 
Q 1594 3097 1305 2825 
Q 1016 2553 972 2059 
L 3022 2063 
z
" transform="scale(0.015625)"/>
      <path id="DejaVuSans-72" d="M 2631 2963 
Q 2534 3019 2420 3045 
Q 2306 3072 2169 3072 
Q 1681 3072 1420 2755 
Q 1159 2438 1159 1844 
L 1159 0 
L 581 0 
L 581 3500 
L 1159 3500 
L 1159 2956 
Q 1341 3275 1631 3429 
Q 1922 3584 2338 3584 
Q 2397 3584 2469 3576 
Q 2541 3569 2628 3553 
L 2631 2963 
z
" transform="scale(0.015625)"/>
      <path id="DejaVuSans-33" d="M 2597 2516 
Q 3050 2419 3304 2112 
Q 3559 1806 3559 1356 
Q 3559 666 3084 287 
Q 2609 -91 1734 -91 
Q 1441 -91 1130 -33 
Q 819 25 488 141 
L 488 750 
Q 750 597 1062 519 
Q 1375 441 1716 441 
Q 2309 441 2620 675 
Q 2931 909 2931 1356 
Q 2931 1769 2642 2001 
Q 2353 2234 1838 2234 
L 1294 2234 
L 1294 2753 
L 1863 2753 
Q 2328 2753 2575 2939 
Q 2822 3125 2822 3475 
Q 2822 3834 2567 4026 
Q 2313 4219 1838 4219 
Q 1578 4219 1281 4162 
Q 984 4106 628 3988 
L 628 4550 
Q 988 4650 1302 4700 
Q 1616 4750 1894 4750 
Q 2613 4750 3031 4423 
Q 3450 4097 3450 3541 
Q 3450 3153 3228 2886 
Q 3006 2619 2597 2516 
z
" transform="scale(0.015625)"/>
     </defs>
     <use xlink:href="#DejaVuSans-4c"/>
     <use xlink:href="#DejaVuSans-69" transform="translate(55.712891 0)"/>
     <use xlink:href="#DejaVuSans-6e" transform="translate(83.496094 0)"/>
     <use xlink:href="#DejaVuSans-65" transform="translate(146.875 0)"/>
     <use xlink:href="#DejaVuSans-61" transform="translate(208.398438 0)"/>
     <use xlink:href="#DejaVuSans-72" transform="translate(269.677734 0)"/>
     <use xlink:href="#DejaVuSans-28" transform="translate(310.791016 0)"/>
     <use xlink:href="#DejaVuSans-32" transform="translate(349.804688 0)"/>
     <use xlink:href="#DejaVuSans-2c" transform="translate(413.427734 0)"/>
     <use xlink:href="#DejaVuSans-33" transform="translate(445.214844 0)"/>
     <use xlink:href="#DejaVuSans-32" transform="translate(508.837891 0)"/>
     <use xlink:href="#DejaVuSans-29" transform="translate(572.460938 0)"/>
    </g>
   </g>
   <g id="text_28">
    <!-- ReLU→Linear(32,2) -->
    <g style="fill: #34495e" transform="translate(186.240234 232.774546) scale(0.042 -0.042)">
     <defs>
      <path id="DejaVuSans-52" d="M 2841 2188 
Q 3044 2119 3236 1894 
Q 3428 1669 3622 1275 
L 4263 0 
L 3584 0 
L 2988 1197 
Q 2756 1666 2539 1819 
Q 2322 1972 1947 1972 
L 1259 1972 
L 1259 0 
L 628 0 
L 628 4666 
L 2053 4666 
Q 2853 4666 3247 4331 
Q 3641 3997 3641 3322 
Q 3641 2881 3436 2590 
Q 3231 2300 2841 2188 
z
M 1259 4147 
L 1259 2491 
L 2053 2491 
Q 2509 2491 2742 2702 
Q 2975 2913 2975 3322 
Q 2975 3731 2742 3939 
Q 2509 4147 2053 4147 
L 1259 4147 
z
" transform="scale(0.015625)"/>
      <path id="DejaVuSans-55" d="M 556 4666 
L 1191 4666 
L 1191 1831 
Q 1191 1081 1462 751 
Q 1734 422 2344 422 
Q 2950 422 3222 751 
Q 3494 1081 3494 1831 
L 3494 4666 
L 4128 4666 
L 4128 1753 
Q 4128 841 3676 375 
Q 3225 -91 2344 -91 
Q 1459 -91 1007 375 
Q 556 841 556 1753 
L 556 4666 
z
" transform="scale(0.015625)"/>
     </defs>
     <use xlink:href="#DejaVuSans-52"/>
     <use xlink:href="#DejaVuSans-65" transform="translate(64.982422 0)"/>
     <use xlink:href="#DejaVuSans-4c" transform="translate(126.505859 0)"/>
     <use xlink:href="#DejaVuSans-55" transform="translate(177.21875 0)"/>
     <use xlink:href="#DejaVuSans-2192" transform="translate(250.412109 0)"/>
     <use xlink:href="#DejaVuSans-4c" transform="translate(334.201172 0)"/>
     <use xlink:href="#DejaVuSans-69" transform="translate(389.914062 0)"/>
     <use xlink:href="#DejaVuSans-6e" transform="translate(417.697266 0)"/>
     <use xlink:href="#DejaVuSans-65" transform="translate(481.076172 0)"/>
     <use xlink:href="#DejaVuSans-61" transform="translate(542.599609 0)"/>
     <use xlink:href="#DejaVuSans-72" transform="translate(603.878906 0)"/>
     <use xlink:href="#DejaVuSans-28" transform="translate(644.992188 0)"/>
     <use xlink:href="#DejaVuSans-33" transform="translate(684.005859 0)"/>
     <use xlink:href="#DejaVuSans-32" transform="translate(747.628906 0)"/>
     <use xlink:href="#DejaVuSans-2c" transform="translate(811.251953 0)"/>
     <use xlink:href="#DejaVuSans-32" transform="translate(843.039062 0)"/>
     <use xlink:href="#DejaVuSans-29" transform="translate(906.662109 0)"/>
    </g>
   </g>
   <g id="text_29">
    <!-- + -->
    <g style="fill: #34495e" transform="translate(202.287242 262.446921) scale(0.091 -0.091)">
     <use xlink:href="#DejaVuSans-Bold-2b"/>
    </g>
   </g>
   <g id="text_30">
    <!-- skip -->
    <g style="fill: #27ae60" transform="translate(33.460266 228.192359) scale(0.063 -0.063)">
     <use xlink:href="#DejaVuSans-Oblique-73"/>
     <use xlink:href="#DejaVuSans-Oblique-6b" transform="translate(52.099609 0)"/>
     <use xlink:href="#DejaVuSans-Oblique-69" transform="translate(110.009766 0)"/>
     <use xlink:href="#DejaVuSans-Oblique-70" transform="translate(137.792969 0)"/>
    </g>
   </g>
   <g id="text_31">
    <!-- LM Head -->
    <g style="fill: #34495e" transform="translate(192.4185 290.833752) scale(0.056 -0.056)">
     <defs>
      <path id="DejaVuSans-Bold-4c" d="M 588 4666 
L 1791 4666 
L 1791 909 
L 3903 909 
L 3903 0 
L 588 0 
L 588 4666 
z
" transform="scale(0.015625)"/>
      <path id="DejaVuSans-Bold-48" d="M 588 4666 
L 1791 4666 
L 1791 2888 
L 3566 2888 
L 3566 4666 
L 4769 4666 
L 4769 0 
L 3566 0 
L 3566 1978 
L 1791 1978 
L 1791 0 
L 588 0 
L 588 4666 
z
" transform="scale(0.015625)"/>
     </defs>
     <use xlink:href="#DejaVuSans-Bold-4c"/>
     <use xlink:href="#DejaVuSans-Bold-4d" transform="translate(63.720703 0)"/>
     <use xlink:href="#DejaVuSans-Bold-20" transform="translate(163.232422 0)"/>
     <use xlink:href="#DejaVuSans-Bold-48" transform="translate(198.046875 0)"/>
     <use xlink:href="#DejaVuSans-Bold-65" transform="translate(281.738281 0)"/>
     <use xlink:href="#DejaVuSans-Bold-61" transform="translate(349.560547 0)"/>
     <use xlink:href="#DejaVuSans-Bold-64" transform="translate(417.041016 0)"/>
    </g>
   </g>
   <g id="text_32">
    <!-- Linear(2,12) -->
    <g style="fill: #34495e" transform="translate(193.258828 297.329646) scale(0.042 -0.042)">
     <use xlink:href="#DejaVuSans-4c"/>
     <use xlink:href="#DejaVuSans-69" transform="translate(55.712891 0)"/>
     <use xlink:href="#DejaVuSans-6e" transform="translate(83.496094 0)"/>
     <use xlink:href="#DejaVuSans-65" transform="translate(146.875 0)"/>
     <use xlink:href="#DejaVuSans-61" transform="translate(208.398438 0)"/>
     <use xlink:href="#DejaVuSans-72" transform="translate(269.677734 0)"/>
     <use xlink:href="#DejaVuSans-28" transform="translate(310.791016 0)"/>
     <use xlink:href="#DejaVuSans-32" transform="translate(349.804688 0)"/>
     <use xlink:href="#DejaVuSans-2c" transform="translate(413.427734 0)"/>
     <use xlink:href="#DejaVuSans-31" transform="translate(445.214844 0)"/>
     <use xlink:href="#DejaVuSans-32" transform="translate(508.837891 0)"/>
     <use xlink:href="#DejaVuSans-29" transform="translate(572.460938 0)"/>
    </g>
   </g>
   <g id="text_33">
    <!-- Softmax -->
    <g style="fill: #34495e" transform="translate(159.510313 325.244787) scale(0.056 -0.056)">
     <use xlink:href="#DejaVuSans-Bold-53"/>
     <use xlink:href="#DejaVuSans-Bold-6f" transform="translate(72.021484 0)"/>
     <use xlink:href="#DejaVuSans-Bold-66" transform="translate(140.722656 0)"/>
     <use xlink:href="#DejaVuSans-Bold-74" transform="translate(184.228516 0)"/>
     <use xlink:href="#DejaVuSans-Bold-6d" transform="translate(232.03125 0)"/>
     <use xlink:href="#DejaVuSans-Bold-61" transform="translate(336.230469 0)"/>
     <use xlink:href="#DejaVuSans-Bold-78" transform="translate(403.710938 0)"/>
    </g>
   </g>
   <g id="text_34">
    <!-- P(next) -->
    <g style="fill: #34495e" transform="translate(227.931563 322.491904) scale(0.056 -0.056)">
     <defs>
      <path id="DejaVuSans-Bold-28" d="M 2413 -844 
L 1484 -844 
Q 1006 -72 778 623 
Q 550 1319 550 2003 
Q 550 2688 779 3389 
Q 1009 4091 1484 4856 
L 2413 4856 
Q 2013 4116 1813 3408 
Q 1613 2700 1613 2009 
Q 1613 1319 1811 609 
Q 2009 -100 2413 -844 
z
" transform="scale(0.015625)"/>
      <path id="DejaVuSans-Bold-29" d="M 513 -844 
Q 913 -100 1113 609 
Q 1313 1319 1313 2009 
Q 1313 2700 1113 3408 
Q 913 4116 513 4856 
L 1441 4856 
Q 1916 4091 2145 3389 
Q 2375 2688 2375 2003 
Q 2375 1319 2147 623 
Q 1919 -72 1441 -844 
L 513 -844 
z
" transform="scale(0.015625)"/>
     </defs>
     <use xlink:href="#DejaVuSans-Bold-50"/>
     <use xlink:href="#DejaVuSans-Bold-28" transform="translate(73.291016 0)"/>
     <use xlink:href="#DejaVuSans-Bold-6e" transform="translate(118.994141 0)"/>
     <use xlink:href="#DejaVuSans-Bold-65" transform="translate(190.185547 0)"/>
     <use xlink:href="#DejaVuSans-Bold-78" transform="translate(258.007812 0)"/>
     <use xlink:href="#DejaVuSans-Bold-74" transform="translate(322.509766 0)"/>
     <use xlink:href="#DejaVuSans-Bold-29" transform="translate(370.3125 0)"/>
    </g>
   </g>
   <g id="text_35">
    <!-- (4,8,12) -->
    <g style="fill: #34495e" transform="translate(231.262031 327.611357) scale(0.042 -0.042)">
     <use xlink:href="#DejaVuSans-28"/>
     <use xlink:href="#DejaVuSans-34" transform="translate(39.013672 0)"/>
     <use xlink:href="#DejaVuSans-2c" transform="translate(102.636719 0)"/>
     <use xlink:href="#DejaVuSans-38" transform="translate(134.423828 0)"/>
     <use xlink:href="#DejaVuSans-2c" transform="translate(198.046875 0)"/>
     <use xlink:href="#DejaVuSans-31" transform="translate(229.833984 0)"/>
     <use xlink:href="#DejaVuSans-32" transform="translate(293.457031 0)"/>
     <use xlink:href="#DejaVuSans-29" transform="translate(357.080078 0)"/>
    </g>
   </g>
   <g id="text_36">
    <!-- Embedding -->
    <g style="fill: #34495e" transform="translate(46.14 499.261388) scale(0.056 -0.056)">
     <defs>
      <path id="DejaVuSans-45" d="M 628 4666 
L 3578 4666 
L 3578 4134 
L 1259 4134 
L 1259 2753 
L 3481 2753 
L 3481 2222 
L 1259 2222 
L 1259 531 
L 3634 531 
L 3634 0 
L 628 0 
L 628 4666 
z
" transform="scale(0.015625)"/>
      <path id="DejaVuSans-6d" d="M 3328 2828 
Q 3544 3216 3844 3400 
Q 4144 3584 4550 3584 
Q 5097 3584 5394 3201 
Q 5691 2819 5691 2113 
L 5691 0 
L 5113 0 
L 5113 2094 
Q 5113 2597 4934 2840 
Q 4756 3084 4391 3084 
Q 3944 3084 3684 2787 
Q 3425 2491 3425 1978 
L 3425 0 
L 2847 0 
L 2847 2094 
Q 2847 2600 2669 2842 
Q 2491 3084 2119 3084 
Q 1678 3084 1418 2786 
Q 1159 2488 1159 1978 
L 1159 0 
L 581 0 
L 581 3500 
L 1159 3500 
L 1159 2956 
Q 1356 3278 1631 3431 
Q 1906 3584 2284 3584 
Q 2666 3584 2933 3390 
Q 3200 3197 3328 2828 
z
" transform="scale(0.015625)"/>
      <path id="DejaVuSans-67" d="M 2906 1791 
Q 2906 2416 2648 2759 
Q 2391 3103 1925 3103 
Q 1463 3103 1205 2759 
Q 947 2416 947 1791 
Q 947 1169 1205 825 
Q 1463 481 1925 481 
Q 2391 481 2648 825 
Q 2906 1169 2906 1791 
z
M 3481 434 
Q 3481 -459 3084 -895 
Q 2688 -1331 1869 -1331 
Q 1566 -1331 1297 -1286 
Q 1028 -1241 775 -1147 
L 775 -588 
Q 1028 -725 1275 -790 
Q 1522 -856 1778 -856 
Q 2344 -856 2625 -561 
Q 2906 -266 2906 331 
L 2906 616 
Q 2728 306 2450 153 
Q 2172 0 1784 0 
Q 1141 0 747 490 
Q 353 981 353 1791 
Q 353 2603 747 3093 
Q 1141 3584 1784 3584 
Q 2172 3584 2450 3431 
Q 2728 3278 2906 2969 
L 2906 3500 
L 3481 3500 
L 3481 434 
z
" transform="scale(0.015625)"/>
     </defs>
     <use xlink:href="#DejaVuSans-45"/>
     <use xlink:href="#DejaVuSans-6d" transform="translate(63.183594 0)"/>
     <use xlink:href="#DejaVuSans-62" transform="translate(160.595703 0)"/>
     <use xlink:href="#DejaVuSans-65" transform="translate(224.072266 0)"/>
     <use xlink:href="#DejaVuSans-64" transform="translate(285.595703 0)"/>
     <use xlink:href="#DejaVuSans-64" transform="translate(349.072266 0)"/>
     <use xlink:href="#DejaVuSans-69" transform="translate(412.548828 0)"/>
     <use xlink:href="#DejaVuSans-6e" transform="translate(440.332031 0)"/>
     <use xlink:href="#DejaVuSans-67" transform="translate(503.710938 0)"/>
    </g>
   </g>
   <g id="text_37">
    <!-- Attention -->
    <g style="fill: #34495e" transform="translate(134.49 499.261388) scale(0.056 -0.056)">
     <defs>
      <path id="DejaVuSans-41" d="M 2188 4044 
L 1331 1722 
L 3047 1722 
L 2188 4044 
z
M 1831 4666 
L 2547 4666 
L 4325 0 
L 3669 0 
L 3244 1197 
L 1141 1197 
L 716 0 
L 50 0 
L 1831 4666 
z
" transform="scale(0.015625)"/>
      <path id="DejaVuSans-74" d="M 1172 4494 
L 1172 3500 
L 2356 3500 
L 2356 3053 
L 1172 3053 
L 1172 1153 
Q 1172 725 1289 603 
Q 1406 481 1766 481 
L 2356 481 
L 2356 0 
L 1766 0 
Q 1100 0 847 248 
Q 594 497 594 1153 
L 594 3053 
L 172 3053 
L 172 3500 
L 594 3500 
L 594 4494 
L 1172 4494 
z
" transform="scale(0.015625)"/>
     </defs>
     <use xlink:href="#DejaVuSans-41"/>
     <use xlink:href="#DejaVuSans-74" transform="translate(66.658203 0)"/>
     <use xlink:href="#DejaVuSans-74" transform="translate(105.867188 0)"/>
     <use xlink:href="#DejaVuSans-65" transform="translate(145.076172 0)"/>
     <use xlink:href="#DejaVuSans-6e" transform="translate(206.599609 0)"/>
     <use xlink:href="#DejaVuSans-74" transform="translate(269.978516 0)"/>
     <use xlink:href="#DejaVuSans-69" transform="translate(309.1875 0)"/>
     <use xlink:href="#DejaVuSans-6f" transform="translate(336.970703 0)"/>
     <use xlink:href="#DejaVuSans-6e" transform="translate(398.152344 0)"/>
    </g>
   </g>
   <g id="text_38">
    <!-- Feed-Forward -->
    <g style="fill: #34495e" transform="translate(222.84 499.261388) scale(0.056 -0.056)">
     <defs>
      <path id="DejaVuSans-46" d="M 628 4666 
L 3309 4666 
L 3309 4134 
L 1259 4134 
L 1259 2759 
L 3109 2759 
L 3109 2228 
L 1259 2228 
L 1259 0 
L 628 0 
L 628 4666 
z
" transform="scale(0.015625)"/>
      <path id="DejaVuSans-2d" d="M 313 2009 
L 1997 2009 
L 1997 1497 
L 313 1497 
L 313 2009 
z
" transform="scale(0.015625)"/>
      <path id="DejaVuSans-77" d="M 269 3500 
L 844 3500 
L 1563 769 
L 2278 3500 
L 2956 3500 
L 3675 769 
L 4391 3500 
L 4966 3500 
L 4050 0 
L 3372 0 
L 2619 2869 
L 1863 0 
L 1184 0 
L 269 3500 
z
" transform="scale(0.015625)"/>
     </defs>
     <use xlink:href="#DejaVuSans-46"/>
     <use xlink:href="#DejaVuSans-65" transform="translate(52.019531 0)"/>
     <use xlink:href="#DejaVuSans-65" transform="translate(113.542969 0)"/>
     <use xlink:href="#DejaVuSans-64" transform="translate(175.066406 0)"/>
     <use xlink:href="#DejaVuSans-2d" transform="translate(238.542969 0)"/>
     <use xlink:href="#DejaVuSans-46" transform="translate(274.626953 0)"/>
     <use xlink:href="#DejaVuSans-6f" transform="translate(328.521484 0)"/>
     <use xlink:href="#DejaVuSans-72" transform="translate(389.703125 0)"/>
     <use xlink:href="#DejaVuSans-77" transform="translate(430.816406 0)"/>
     <use xlink:href="#DejaVuSans-61" transform="translate(512.603516 0)"/>
     <use xlink:href="#DejaVuSans-72" transform="translate(573.882812 0)"/>
     <use xlink:href="#DejaVuSans-64" transform="translate(613.246094 0)"/>
    </g>
   </g>
   <g id="text_39">
    <!-- Output -->
    <g style="fill: #34495e" transform="translate(311.19 499.261388) scale(0.056 -0.056)">
     <defs>
      <path id="DejaVuSans-4f" d="M 2522 4238 
Q 1834 4238 1429 3725 
Q 1025 3213 1025 2328 
Q 1025 1447 1429 934 
Q 1834 422 2522 422 
Q 3209 422 3611 934 
Q 4013 1447 4013 2328 
Q 4013 3213 3611 3725 
Q 3209 4238 2522 4238 
z
M 2522 4750 
Q 3503 4750 4090 4092 
Q 4678 3434 4678 2328 
Q 4678 1225 4090 567 
Q 3503 -91 2522 -91 
Q 1538 -91 948 565 
Q 359 1222 359 2328 
Q 359 3434 948 4092 
Q 1538 4750 2522 4750 
z
" transform="scale(0.015625)"/>
      <path id="DejaVuSans-75" d="M 544 1381 
L 544 3500 
L 1119 3500 
L 1119 1403 
Q 1119 906 1312 657 
Q 1506 409 1894 409 
Q 2359 409 2629 706 
Q 2900 1003 2900 1516 
L 2900 3500 
L 3475 3500 
L 3475 0 
L 2900 0 
L 2900 538 
Q 2691 219 2414 64 
Q 2138 -91 1772 -91 
Q 1169 -91 856 284 
Q 544 659 544 1381 
z
M 1991 3584 
L 1991 3584 
z
" transform="scale(0.015625)"/>
      <path id="DejaVuSans-70" d="M 1159 525 
L 1159 -1331 
L 581 -1331 
L 581 3500 
L 1159 3500 
L 1159 2969 
Q 1341 3281 1617 3432 
Q 1894 3584 2278 3584 
Q 2916 3584 3314 3078 
Q 3713 2572 3713 1747 
Q 3713 922 3314 415 
Q 2916 -91 2278 -91 
Q 1894 -91 1617 61 
Q 1341 213 1159 525 
z
M 3116 1747 
Q 3116 2381 2855 2742 
Q 2594 3103 2138 3103 
Q 1681 3103 1420 2742 
Q 1159 2381 1159 1747 
Q 1159 1113 1420 752 
Q 1681 391 2138 391 
Q 2594 391 2855 752 
Q 3116 1113 3116 1747 
z
" transform="scale(0.015625)"/>
     </defs>
     <use xlink:href="#DejaVuSans-4f"/>
     <use xlink:href="#DejaVuSans-75" transform="translate(78.710938 0)"/>
     <use xlink:href="#DejaVuSans-74" transform="translate(142.089844 0)"/>
     <use xlink:href="#DejaVuSans-70" transform="translate(181.298828 0)"/>
     <use xlink:href="#DejaVuSans-75" transform="translate(244.775391 0)"/>
     <use xlink:href="#DejaVuSans-74" transform="translate(308.154297 0)"/>
    </g>
   </g>
   <g id="patch_21">
    <path d="M 204.206964 45.172826 
Q 181.903482 52.83118 161.50338 59.83597 
" style="fill: none; stroke: #34495e; stroke-width: 1.8; stroke-linecap: round"/>
    <path d="M 166.822626 60.547041 
L 161.50338 59.83597 
L 165.263784 56.007216 
z
" style="fill: #34495e; stroke: #34495e; stroke-width: 1.8; stroke-linecap: round"/>
   </g>
   <g id="patch_22">
    <path d="M 207.993036 45.172826 
Q 230.296518 52.83118 250.69662 59.83597 
" style="fill: none; stroke: #34495e; stroke-width: 1.8; stroke-linecap: round"/>
    <path d="M 246.936216 56.007216 
L 250.69662 59.83597 
L 245.377374 60.547041 
z
" style="fill: #34495e; stroke: #34495e; stroke-width: 1.8; stroke-linecap: round"/>
   </g>
   <g id="patch_23">
    <path d="M 161.520623 76.880671 
Q 180.061037 82.306433 196.669998 87.166965 
" style="fill: none; stroke: #34495e; stroke-width: 1.8; stroke-linecap: round"/>
    <path d="M 192.737288 83.515418 
L 196.669998 87.166965 
L 191.389134 88.122205 
z
" style="fill: #34495e; stroke: #34495e; stroke-width: 1.8; stroke-linecap: round"/>
   </g>
   <g id="patch_24">
    <path d="M 250.679377 76.880671 
Q 232.138963 82.306433 215.530002 87.166965 
" style="fill: none; stroke: #34495e; stroke-width: 1.8; stroke-linecap: round"/>
    <path d="M 220.810866 88.122205 
L 215.530002 87.166965 
L 219.462712 83.515418 
z
" style="fill: #34495e; stroke: #34495e; stroke-width: 1.8; stroke-linecap: round"/>
   </g>
   <g id="line2d_5">
    <path d="M 206.1 97.928739 
L 206.1 104.742124 
" clip-path="url(#pfe9ac5c817)" style="fill: none; stroke: #34495e; stroke-width: 1.8; stroke-linecap: round"/>
   </g>
   <g id="line2d_6">
    <path d="M 206.1 104.742124 
L 127.98 104.742124 
" clip-path="url(#pfe9ac5c817)" style="fill: none; stroke: #34495e; stroke-width: 1.8; stroke-linecap: round"/>
   </g>
   <g id="patch_25">
    <path d="M 127.98 104.742124 
Q 127.98 112.312552 127.98 117.870518 
" style="fill: none; stroke: #34495e; stroke-width: 1.8; stroke-linecap: round"/>
    <path d="M 130.38 113.070518 
L 127.98 117.870518 
L 125.58 113.070518 
z
" style="fill: #34495e; stroke: #34495e; stroke-width: 1.8; stroke-linecap: round"/>
   </g>
   <g id="line2d_7">
    <path d="M 206.1 104.742124 
L 206.1 104.742124 
" clip-path="url(#pfe9ac5c817)" style="fill: none; stroke: #34495e; stroke-width: 1.8; stroke-linecap: round"/>
   </g>
   <g id="patch_26">
    <path d="M 206.1 104.742124 
Q 206.1 112.312552 206.1 117.870518 
" style="fill: none; stroke: #34495e; stroke-width: 1.8; stroke-linecap: round"/>
    <path d="M 208.5 113.070518 
L 206.1 117.870518 
L 203.7 113.070518 
z
" style="fill: #34495e; stroke: #34495e; stroke-width: 1.8; stroke-linecap: round"/>
   </g>
   <g id="line2d_8">
    <path d="M 206.1 104.742124 
L 284.22 104.742124 
" clip-path="url(#pfe9ac5c817)" style="fill: none; stroke: #34495e; stroke-width: 1.8; stroke-linecap: round"/>
   </g>
   <g id="patch_27">
    <path d="M 284.22 104.742124 
Q 284.22 112.312552 284.22 117.870518 
" style="fill: none; stroke: #34495e; stroke-width: 1.8; stroke-linecap: round"/>
    <path d="M 286.62 113.070518 
L 284.22 117.870518 
L 281.82 113.070518 
z
" style="fill: #34495e; stroke: #34495e; stroke-width: 1.8; stroke-linecap: round"/>
   </g>
   <g id="patch_28">
    <path d="M 129.963175 131.82733 
Q 154.081588 134.802024 176.202673 137.530373 
" style="fill: none; stroke: #34495e; stroke-width: 1.8; stroke-linecap: round"/>
    <path d="M 171.732554 134.560856 
L 176.202673 137.530373 
L 171.144988 139.324758 
z
" style="fill: #34495e; stroke: #34495e; stroke-width: 1.8; stroke-linecap: round"/>
   </g>
   <g id="patch_29">
    <path d="M 208.051501 132.015977 
Q 221.025751 134.896347 232.035372 137.340557 
" style="fill: none; stroke: #34495e; stroke-width: 1.8; stroke-linecap: round"/>
    <path d="M 227.869612 133.957297 
L 232.035372 137.340557 
L 226.829308 138.643209 
z
" style="fill: #34495e; stroke: #34495e; stroke-width: 1.8; stroke-linecap: round"/>
   </g>
   <g id="patch_30">
    <path d="M 206.1 150.16469 
Q 206.1 154.982234 206.1 157.787318 
" style="fill: none; stroke: #34495e; stroke-width: 1.8; stroke-linecap: round"/>
    <path d="M 208.5 152.987318 
L 206.1 157.787318 
L 203.7 152.987318 
z
" style="fill: #34495e; stroke: #34495e; stroke-width: 1.8; stroke-linecap: round"/>
   </g>
   <g id="line2d_9">
    <path d="M 284.22 131.582731 
L 284.22 165.993766 
" clip-path="url(#pfe9ac5c817)" style="fill: none; stroke: #34495e; stroke-width: 1.8; stroke-linecap: round"/>
   </g>
   <g id="line2d_10">
    <path d="M 284.22 165.993766 
L 254.46 165.993766 
" clip-path="url(#pfe9ac5c817)" style="fill: none; stroke: #34495e; stroke-width: 1.8; stroke-linecap: round"/>
   </g>
   <g id="patch_31">
    <path d="M 254.46 165.993766 
Q 253.53 165.993766 254.612461 165.993766 
" style="fill: none; stroke: #34495e; stroke-width: 1.8; stroke-linecap: round"/>
    <path d="M 259.412461 168.393766 
L 254.612461 165.993766 
L 259.412461 163.593766 
z
" style="fill: #34495e; stroke: #34495e; stroke-width: 1.8; stroke-linecap: round"/>
   </g>
   <g id="patch_32">
    <path d="M 206.1 174.18749 
Q 206.1 181.170981 206.1 186.142011 
" style="fill: none; stroke: #34495e; stroke-width: 1.8; stroke-linecap: round"/>
    <path d="M 208.5 181.342011 
L 206.1 186.142011 
L 203.7 181.342011 
z
" style="fill: #34495e; stroke: #34495e; stroke-width: 1.8; stroke-linecap: round"/>
   </g>
   <g id="patch_33">
    <path d="M 51.857422 192.972017 
Q 121.466689 192.972017 189.063495 192.972017 
" style="fill: none; stroke: #27ae60; stroke-width: 1.8; stroke-linecap: round"/>
    <path d="M 184.263495 190.572017 
L 189.063495 192.972017 
L 184.263495 195.372017 
z
" style="fill: #27ae60; stroke: #27ae60; stroke-width: 1.8; stroke-linecap: round"/>
   </g>
   <g id="patch_34">
    <path d="M 206.1 199.79003 
Q 206.1 207.272116 206.1 212.74174 
" style="fill: none; stroke: #34495e; stroke-width: 1.8; stroke-linecap: round"/>
    <path d="M 208.5 207.94174 
L 206.1 212.74174 
L 203.7 207.94174 
z
" style="fill: #34495e; stroke: #34495e; stroke-width: 1.8; stroke-linecap: round"/>
   </g>
   <g id="patch_35">
    <path d="M 206.1 240.154174 
Q 206.1 247.636259 206.1 253.105884 
" style="fill: none; stroke: #34495e; stroke-width: 1.8; stroke-linecap: round"/>
    <path d="M 208.5 248.305884 
L 206.1 253.105884 
L 203.7 248.305884 
z
" style="fill: #34495e; stroke: #34495e; stroke-width: 1.8; stroke-linecap: round"/>
   </g>
   <g id="patch_36">
    <path d="M 51.857422 259.93589 
Q 121.466689 259.93589 189.063495 259.93589 
" style="fill: none; stroke: #27ae60; stroke-width: 1.8; stroke-linecap: round"/>
    <path d="M 184.263495 257.53589 
L 189.063495 259.93589 
L 184.263495 262.33589 
z
" style="fill: #27ae60; stroke: #27ae60; stroke-width: 1.8; stroke-linecap: round"/>
   </g>
   <g id="patch_37">
    <path d="M 206.1 266.753904 
Q 206.1 274.235989 206.1 279.705613 
" style="fill: none; stroke: #34495e; stroke-width: 1.8; stroke-linecap: round"/>
    <path d="M 208.5 274.905613 
L 206.1 279.705613 
L 203.7 274.905613 
z
" style="fill: #34495e; stroke: #34495e; stroke-width: 1.8; stroke-linecap: round"/>
   </g>
   <g id="patch_38">
    <path d="M 204.183237 304.312455 
Q 188.401619 309.016396 174.548613 313.145486 
" style="fill: none; stroke: #34495e; stroke-width: 1.8; stroke-linecap: round"/>
    <path d="M 179.834172 314.074391 
L 174.548613 313.145486 
L 178.463072 309.474381 
z
" style="fill: #34495e; stroke: #34495e; stroke-width: 1.8; stroke-linecap: round"/>
   </g>
   <g id="patch_39">
    <path d="M 200.52 323.699537 
Q 206.1 323.699537 209.667539 323.699537 
" style="fill: none; stroke: #34495e; stroke-width: 1.8; stroke-linecap: round"/>
    <path d="M 204.867539 321.299537 
L 209.667539 323.699537 
L 204.867539 326.099537 
z
" style="fill: #34495e; stroke: #34495e; stroke-width: 1.8; stroke-linecap: round"/>
   </g>
   <g id="text_40">
    <g id="patch_40">
     <path d="M 123.0345 113.615566 
L 132.9255 113.615566 
Q 134.1855 113.615566 134.1855 112.355566 
L 134.1855 106.118566 
Q 134.1855 104.858566 132.9255 104.858566 
L 123.0345 104.858566 
Q 121.7745 104.858566 121.7745 106.118566 
L 121.7745 112.355566 
Q 121.7745 113.615566 123.0345 113.615566 
z
" style="fill: #ffffff; opacity: 0.9"/>
    </g>
    <!-- $W_Q$ -->
    <g style="fill: #34495e" transform="translate(123.0345 110.717566) scale(0.063 -0.063)">
     <defs>
      <path id="DejaVuSans-Oblique-57" d="M 616 4666 
L 1228 4666 
L 1453 697 
L 3213 4666 
L 3916 4666 
L 4147 697 
L 5888 4666 
L 6528 4666 
L 4453 0 
L 3659 0 
L 3444 3891 
L 1697 0 
L 903 0 
L 616 4666 
z
" transform="scale(0.015625)"/>
      <path id="DejaVuSans-Oblique-51" d="M 2309 -84 
Q 2275 -88 2237 -89 
Q 2200 -91 2125 -91 
Q 1250 -91 756 411 
Q 263 913 263 1797 
Q 263 2319 452 2844 
Q 641 3369 978 3788 
Q 1369 4269 1858 4509 
Q 2347 4750 2938 4750 
Q 3794 4750 4287 4245 
Q 4781 3741 4781 2869 
Q 4781 1928 4265 1147 
Q 3750 366 2919 44 
L 3553 -825 
L 2847 -825 
L 2309 -84 
z
M 2919 4238 
Q 2400 4238 2003 3986 
Q 1606 3734 1313 3219 
Q 1125 2891 1026 2522 
Q 928 2153 928 1778 
Q 928 1128 1239 775 
Q 1550 422 2119 422 
Q 2631 422 3032 676 
Q 3434 931 3719 1434 
Q 3909 1772 4009 2142 
Q 4109 2513 4109 2881 
Q 4109 3528 3796 3883 
Q 3484 4238 2919 4238 
z
" transform="scale(0.015625)"/>
     </defs>
     <use xlink:href="#DejaVuSans-Oblique-57" transform="translate(0 0.09375)"/>
     <use xlink:href="#DejaVuSans-Oblique-51" transform="translate(98.876953 -16.3125) scale(0.7)"/>
    </g>
   </g>
   <g id="text_41">
    <g id="patch_41">
     <path d="M 201.438 113.475784 
L 210.762 113.475784 
Q 212.022 113.475784 212.022 112.215784 
L 212.022 106.118566 
Q 212.022 104.858566 210.762 104.858566 
L 201.438 104.858566 
Q 200.178 104.858566 200.178 106.118566 
L 200.178 112.215784 
Q 200.178 113.475784 201.438 113.475784 
z
" style="fill: #ffffff; opacity: 0.9"/>
    </g>
    <!-- $W_K$ -->
    <g style="fill: #34495e" transform="translate(201.438 110.905581) scale(0.063 -0.063)">
     <defs>
      <path id="DejaVuSans-Oblique-4b" d="M 1081 4666 
L 1716 4666 
L 1331 2700 
L 3781 4666 
L 4622 4666 
L 1850 2438 
L 3878 0 
L 3109 0 
L 1247 2272 
L 806 0 
L 172 0 
L 1081 4666 
z
" transform="scale(0.015625)"/>
     </defs>
     <use xlink:href="#DejaVuSans-Oblique-57" transform="translate(0 0.09375)"/>
     <use xlink:href="#DejaVuSans-Oblique-4b" transform="translate(98.876953 -16.3125) scale(0.7)"/>
    </g>
   </g>
   <g id="text_42">
    <g id="patch_42">
     <path d="M 279.495 113.475784 
L 288.945 113.475784 
Q 290.205 113.475784 290.205 112.215784 
L 290.205 106.118566 
Q 290.205 104.858566 288.945 104.858566 
L 279.495 104.858566 
Q 278.235 104.858566 278.235 106.118566 
L 278.235 112.215784 
Q 278.235 113.475784 279.495 113.475784 
z
" style="fill: #ffffff; opacity: 0.9"/>
    </g>
    <!-- $W_V$ -->
    <g style="fill: #34495e" transform="translate(279.495 110.905581) scale(0.063 -0.063)">
     <defs>
      <path id="DejaVuSans-Oblique-56" d="M 1319 0 
L 500 4666 
L 1119 4666 
L 1797 653 
L 4063 4666 
L 4750 4666 
L 2053 0 
L 1319 0 
z
" transform="scale(0.015625)"/>
     </defs>
     <use xlink:href="#DejaVuSans-Oblique-57" transform="translate(0 0.09375)"/>
     <use xlink:href="#DejaVuSans-Oblique-56" transform="translate(98.876953 -16.3125) scale(0.7)"/>
    </g>
   </g>
   <g id="text_43">
    <g id="patch_43">
     <path d="M 211.68 157.147987 
L 265.198008 157.147987 
Q 266.248008 157.147987 266.248008 156.097987 
L 266.248008 150.975955 
Q 266.248008 149.925955 265.198008 149.925955 
L 211.68 149.925955 
Q 210.63 149.925955 210.63 150.975955 
L 210.63 156.097987 
Q 210.63 157.147987 211.68 157.147987 
z
" style="fill: #ffffff; opacity: 0.95"/>
    </g>
    <!-- Attention Weights -->
    <g style="fill: #555555" transform="translate(211.68 154.965135) scale(0.0525 -0.0525)">
     <defs>
      <path id="DejaVuSans-BoldOblique-41" d="M 3144 850 
L 1281 850 
L 819 0 
L -416 0 
L 2222 4666 
L 3597 4666 
L 4422 0 
L 3278 0 
L 3144 850 
z
M 1734 1697 
L 2988 1697 
L 2706 3494 
L 1734 1697 
z
" transform="scale(0.015625)"/>
      <path id="DejaVuSans-BoldOblique-74" d="M 2303 4494 
L 2113 3500 
L 3256 3500 
L 3097 2700 
L 1953 2700 
L 1666 1219 
Q 1653 1169 1648 1134 
Q 1644 1100 1644 1069 
Q 1644 925 1739 862 
Q 1834 800 2059 800 
L 2638 800 
L 2478 0 
L 1538 0 
Q 1031 0 765 212 
Q 500 425 500 825 
Q 500 913 509 1013 
Q 519 1113 538 1216 
L 825 2700 
L 275 2700 
L 428 3500 
L 984 3500 
L 1178 4494 
L 2303 4494 
z
" transform="scale(0.015625)"/>
      <path id="DejaVuSans-BoldOblique-65" d="M 4025 1619 
L 3988 1441 
L 1369 1441 
Q 1369 1422 1366 1386 
Q 1363 1350 1363 1331 
Q 1363 991 1567 822 
Q 1772 653 2181 653 
Q 2534 653 2926 759 
Q 3319 866 3750 1075 
L 3578 206 
Q 3169 56 2764 -17 
Q 2359 -91 1941 -91 
Q 1122 -91 676 287 
Q 231 666 231 1356 
Q 231 1756 373 2132 
Q 516 2509 788 2822 
Q 1109 3197 1557 3390 
Q 2006 3584 2553 3584 
Q 3263 3584 3680 3206 
Q 4097 2828 4097 2188 
Q 4097 2063 4080 1923 
Q 4063 1784 4025 1619 
z
M 2969 2131 
Q 2978 2172 2983 2214 
Q 2988 2256 2988 2297 
Q 2988 2547 2838 2694 
Q 2688 2841 2431 2841 
Q 2103 2841 1873 2661 
Q 1644 2481 1522 2131 
L 2969 2131 
z
" transform="scale(0.015625)"/>
      <path id="DejaVuSans-BoldOblique-6e" d="M 4128 2131 
L 3713 0 
L 2591 0 
L 2944 1825 
Q 2981 2003 3001 2126 
Q 3022 2250 3022 2322 
Q 3022 2522 2911 2631 
Q 2800 2741 2597 2741 
Q 2250 2741 2001 2470 
Q 1753 2200 1656 1722 
L 1319 0 
L 197 0 
L 878 3500 
L 2003 3500 
L 1900 2988 
Q 2209 3291 2521 3437 
Q 2834 3584 3175 3584 
Q 3659 3584 3921 3331 
Q 4184 3078 4184 2619 
Q 4184 2519 4170 2397 
Q 4156 2275 4128 2131 
z
" transform="scale(0.015625)"/>
      <path id="DejaVuSans-BoldOblique-69" d="M 878 3500 
L 2003 3500 
L 1319 0 
L 197 0 
L 878 3500 
z
M 1141 4863 
L 2266 4863 
L 2088 3950 
L 959 3950 
L 1141 4863 
z
" transform="scale(0.015625)"/>
      <path id="DejaVuSans-BoldOblique-6f" d="M 2400 2784 
Q 1966 2784 1684 2390 
Q 1403 1997 1403 1388 
Q 1403 1056 1554 882 
Q 1706 709 1997 709 
Q 2431 709 2712 1104 
Q 2994 1500 2994 2113 
Q 2994 2441 2842 2612 
Q 2691 2784 2400 2784 
z
M 2491 3584 
Q 3272 3584 3719 3187 
Q 4166 2791 4166 2106 
Q 4166 1709 4025 1336 
Q 3884 963 3616 653 
Q 3297 284 2862 96 
Q 2428 -91 1894 -91 
Q 1122 -91 676 306 
Q 231 703 231 1388 
Q 231 1781 375 2157 
Q 519 2534 788 2847 
Q 1100 3209 1533 3396 
Q 1966 3584 2491 3584 
z
" transform="scale(0.015625)"/>
      <path id="DejaVuSans-BoldOblique-20" transform="scale(0.015625)"/>
      <path id="DejaVuSans-BoldOblique-57" d="M 684 4666 
L 1797 4666 
L 1941 1275 
L 3406 4666 
L 4550 4666 
L 4703 1275 
L 6119 4666 
L 7316 4666 
L 5306 0 
L 3944 0 
L 3788 3547 
L 2278 0 
L 884 0 
L 684 4666 
z
" transform="scale(0.015625)"/>
      <path id="DejaVuSans-BoldOblique-67" d="M 2675 594 
Q 2406 288 2128 144 
Q 1850 0 1522 0 
Q 928 0 583 383 
Q 238 766 238 1428 
Q 238 1781 358 2136 
Q 478 2491 703 2803 
Q 978 3181 1334 3379 
Q 1691 3578 2100 3578 
Q 2469 3578 2720 3434 
Q 2972 3291 3144 2981 
L 3238 3500 
L 4366 3500 
L 3775 459 
Q 3594 -481 3000 -931 
Q 2406 -1381 1350 -1381 
Q 1025 -1381 723 -1331 
Q 422 -1281 128 -1178 
L 294 -306 
Q 559 -475 825 -558 
Q 1091 -641 1369 -641 
Q 1925 -641 2223 -403 
Q 2522 -166 2625 353 
L 2675 594 
z
M 2363 2772 
Q 1950 2772 1676 2400 
Q 1403 2028 1403 1466 
Q 1403 1147 1550 980 
Q 1697 813 1978 813 
Q 2388 813 2663 1183 
Q 2938 1553 2938 2106 
Q 2938 2431 2791 2601 
Q 2644 2772 2363 2772 
z
" transform="scale(0.015625)"/>
      <path id="DejaVuSans-BoldOblique-68" d="M 4128 2131 
L 3713 0 
L 2591 0 
L 2944 1825 
Q 2981 2003 3001 2126 
Q 3022 2250 3022 2322 
Q 3022 2522 2911 2631 
Q 2800 2741 2597 2741 
Q 2250 2741 2001 2470 
Q 1753 2200 1656 1722 
L 1319 0 
L 197 0 
L 1141 4863 
L 2266 4863 
L 1900 2988 
Q 2209 3291 2521 3437 
Q 2834 3584 3175 3584 
Q 3659 3584 3921 3331 
Q 4184 3078 4184 2619 
Q 4184 2519 4170 2397 
Q 4156 2275 4128 2131 
z
" transform="scale(0.015625)"/>
      <path id="DejaVuSans-BoldOblique-73" d="M 3584 3391 
L 3419 2522 
Q 3091 2678 2766 2759 
Q 2441 2841 2150 2841 
Q 1819 2841 1639 2755 
Q 1459 2669 1459 2509 
Q 1459 2416 1559 2359 
Q 1659 2303 1953 2241 
L 2156 2203 
Q 2834 2059 3106 1832 
Q 3378 1606 3378 1203 
Q 3378 594 2900 251 
Q 2422 -91 1563 -91 
Q 1203 -91 828 -34 
Q 453 22 63 134 
L 231 1013 
Q 534 834 879 743 
Q 1225 653 1588 653 
Q 1941 653 2119 737 
Q 2297 822 2297 984 
Q 2297 1097 2197 1159 
Q 2097 1222 1784 1288 
L 1581 1325 
Q 981 1450 725 1694 
Q 469 1938 469 2369 
Q 469 2953 911 3268 
Q 1353 3584 2175 3584 
Q 2534 3584 2882 3536 
Q 3231 3488 3584 3391 
z
" transform="scale(0.015625)"/>
     </defs>
     <use xlink:href="#DejaVuSans-BoldOblique-41"/>
     <use xlink:href="#DejaVuSans-BoldOblique-74" transform="translate(71.892578 0)"/>
     <use xlink:href="#DejaVuSans-BoldOblique-74" transform="translate(119.695312 0)"/>
     <use xlink:href="#DejaVuSans-BoldOblique-65" transform="translate(167.498047 0)"/>
     <use xlink:href="#DejaVuSans-BoldOblique-6e" transform="translate(235.320312 0)"/>
     <use xlink:href="#DejaVuSans-BoldOblique-74" transform="translate(306.511719 0)"/>
     <use xlink:href="#DejaVuSans-BoldOblique-69" transform="translate(354.314453 0)"/>
     <use xlink:href="#DejaVuSans-BoldOblique-6f" transform="translate(388.591797 0)"/>
     <use xlink:href="#DejaVuSans-BoldOblique-6e" transform="translate(457.292969 0)"/>
     <use xlink:href="#DejaVuSans-BoldOblique-20" transform="translate(528.484375 0)"/>
     <use xlink:href="#DejaVuSans-BoldOblique-57" transform="translate(563.298828 0)"/>
     <use xlink:href="#DejaVuSans-BoldOblique-65" transform="translate(667.226562 0)"/>
     <use xlink:href="#DejaVuSans-BoldOblique-69" transform="translate(735.048828 0)"/>
     <use xlink:href="#DejaVuSans-BoldOblique-67" transform="translate(769.326172 0)"/>
     <use xlink:href="#DejaVuSans-BoldOblique-68" transform="translate(840.908203 0)"/>
     <use xlink:href="#DejaVuSans-BoldOblique-74" transform="translate(912.099609 0)"/>
     <use xlink:href="#DejaVuSans-BoldOblique-73" transform="translate(959.902344 0)"/>
    </g>
   </g>
   <g id="text_44">
    <g id="patch_44">
     <path d="M 211.68 182.164948 
L 261.966797 182.164948 
Q 263.016797 182.164948 263.016797 181.114948 
L 263.016797 176.033932 
Q 263.016797 174.983932 261.966797 174.983932 
L 211.68 174.983932 
Q 210.63 174.983932 210.63 176.033932 
L 210.63 181.114948 
Q 210.63 182.164948 211.68 182.164948 
z
" style="fill: #ffffff; opacity: 0.95"/>
    </g>
    <!-- Attention Output -->
    <g style="fill: #555555" transform="translate(211.68 180.023112) scale(0.0525 -0.0525)">
     <defs>
      <path id="DejaVuSans-BoldOblique-4f" d="M 3938 2753 
Q 3938 3303 3689 3590 
Q 3441 3878 2969 3878 
Q 2344 3878 1920 3317 
Q 1497 2756 1497 1913 
Q 1497 1375 1744 1078 
Q 1991 781 2431 781 
Q 2791 781 3070 932 
Q 3350 1084 3547 1381 
Q 3734 1666 3836 2022 
Q 3938 2378 3938 2753 
z
M 3144 4750 
Q 4075 4750 4642 4233 
Q 5209 3716 5209 2881 
Q 5209 2313 5036 1806 
Q 4863 1300 4531 897 
Q 4125 400 3570 154 
Q 3016 -91 2291 -91 
Q 1363 -91 797 425 
Q 231 941 231 1778 
Q 231 2350 403 2856 
Q 575 3363 909 3769 
Q 1309 4263 1864 4506 
Q 2419 4750 3144 4750 
z
" transform="scale(0.015625)"/>
      <path id="DejaVuSans-BoldOblique-75" d="M 434 1363 
L 844 3500 
L 1966 3500 
L 1613 1678 
Q 1575 1500 1556 1375 
Q 1538 1250 1538 1178 
Q 1538 981 1647 872 
Q 1756 763 1959 763 
Q 2306 763 2556 1031 
Q 2806 1300 2900 1778 
L 3238 3500 
L 4359 3500 
L 3681 0 
L 2553 0 
L 2656 513 
Q 2369 209 2053 59 
Q 1738 -91 1388 -91 
Q 909 -91 646 162 
Q 384 416 384 878 
Q 384 988 396 1109 
Q 409 1231 434 1363 
z
" transform="scale(0.015625)"/>
      <path id="DejaVuSans-BoldOblique-70" d="M 1422 506 
L 1063 -1331 
L -63 -1331 
L 878 3500 
L 2003 3500 
L 1900 2988 
Q 2156 3294 2437 3439 
Q 2719 3584 3053 3584 
Q 3644 3584 3987 3209 
Q 4331 2834 4331 2188 
Q 4331 1784 4211 1403 
Q 4091 1022 3866 709 
Q 3581 316 3223 112 
Q 2866 -91 2456 -91 
Q 2097 -91 1845 54 
Q 1594 200 1422 506 
z
M 2597 2772 
Q 2166 2772 1892 2373 
Q 1619 1975 1619 1338 
Q 1619 1050 1773 886 
Q 1928 722 2203 722 
Q 2625 722 2900 1114 
Q 3175 1506 3175 2119 
Q 3175 2438 3026 2605 
Q 2878 2772 2597 2772 
z
" transform="scale(0.015625)"/>
     </defs>
     <use xlink:href="#DejaVuSans-BoldOblique-41"/>
     <use xlink:href="#DejaVuSans-BoldOblique-74" transform="translate(71.892578 0)"/>
     <use xlink:href="#DejaVuSans-BoldOblique-74" transform="translate(119.695312 0)"/>
     <use xlink:href="#DejaVuSans-BoldOblique-65" transform="translate(167.498047 0)"/>
     <use xlink:href="#DejaVuSans-BoldOblique-6e" transform="translate(235.320312 0)"/>
     <use xlink:href="#DejaVuSans-BoldOblique-74" transform="translate(306.511719 0)"/>
     <use xlink:href="#DejaVuSans-BoldOblique-69" transform="translate(354.314453 0)"/>
     <use xlink:href="#DejaVuSans-BoldOblique-6f" transform="translate(388.591797 0)"/>
     <use xlink:href="#DejaVuSans-BoldOblique-6e" transform="translate(457.292969 0)"/>
     <use xlink:href="#DejaVuSans-BoldOblique-20" transform="translate(528.484375 0)"/>
     <use xlink:href="#DejaVuSans-BoldOblique-4f" transform="translate(563.298828 0)"/>
     <use xlink:href="#DejaVuSans-BoldOblique-75" transform="translate(648.308594 0)"/>
     <use xlink:href="#DejaVuSans-BoldOblique-74" transform="translate(719.5 0)"/>
     <use xlink:href="#DejaVuSans-BoldOblique-70" transform="translate(767.302734 0)"/>
     <use xlink:href="#DejaVuSans-BoldOblique-75" transform="translate(838.884766 0)"/>
     <use xlink:href="#DejaVuSans-BoldOblique-74" transform="translate(910.076172 0)"/>
    </g>
   </g>
  </g>
 </g>
 <defs>
  <clipPath id="pfe9ac5c817">
   <rect x="10.8" y="10.8" width="390.6" height="498.96"/>
  </clipPath>
 </defs>
</svg>
