<?xml version="1.0" encoding="utf-8" standalone="no"?>
<!DOCTYPE svg PUBLIC "-//W3C//DTD SVG 1.1//EN"
  "http://www.w3.org/Graphics/SVG/1.1/DTD/svg11.dtd">
<svg xmlns:xlink="http://www.w3.org/1999/xlink" width="412.2pt" height="520.56pt" viewBox="0 0 412.2 520.56" xmlns="http://www.w3.org/2000/svg" version="1.1">
 <metadata>
  <rdf:RDF xmlns:dc="http://purl.org/dc/elements/1.1/" xmlns:cc="http://creativecommons.org/ns#" xmlns:rdf="http://www.w3.org/1999/02/22-rdf-syntax-ns#">
   <cc:Work>
    <dc:type rdf:resource="http://purl.org/dc/dcmitype/StillImage"/>
    <dc:date>2026-02-22T15:38:42.296829</dc:date>
    <dc:format>image/svg+xml</dc:format>
    <dc:creator>
     <cc:Agent>
      <dc:title>Matplotlib v3.10.7, https://matplotlib.org/</dc:title>
     </cc:Agent>
    </dc:creator>
   </cc:Work>
  </rdf:RDF>
 </metadata>
 <defs>
  <style type="text/css">*{stroke-linejoin: round; stroke-linecap: butt}</style>
 </defs>
 <g id="figure_1">
  <g id="patch_1">
   <path d="M 0 520.56 
L 412.2 520.56 
L 412.2 0 
L 0 0 
z
" style="fill: #ffffff"/>
  </g>
  <g id="axes_1">
   <g id="line2d_1">
    <path d="M 193.08 111.0456 
L 49.86 111.0456 
" style="fill: none; stroke-dasharray: 6.66,2.88; stroke-dashoffset: 0; stroke: #27ae60; stroke-width: 1.8"/>
   </g>
   <g id="line2d_2">
    <path d="M 49.86 111.0456 
L 49.86 195.1884 
" style="fill: none; stroke-dasharray: 6.66,2.88; stroke-dashoffset: 0; stroke: #27ae60; stroke-width: 1.8"/>
   </g>
   <g id="line2d_3">
    <path d="M 193.08 195.1884 
L 49.86 195.1884 
" style="fill: none; stroke-dasharray: 6.66,2.88; stroke-dashoffset: 0; stroke: #27ae60; stroke-width: 1.8"/>
   </g>
   <g id="line2d_4">
    <path d="M 49.86 195.1884 
L 49.86 262.7748 
" style="fill: none; stroke-dasharray: 6.66,2.88; stroke-dashoffset: 0; stroke: #27ae60; stroke-width: 1.8"/>
   </g>
   <g id="patch_2">
    <path d="M 161.46 28.944 
L 250.74 28.944 
Q 257.25 28.944 257.25 32.1192 
L 257.25 52.0776 
Q 257.25 55.2528 250.74 55.2528 
L 161.46 55.2528 
Q 154.95 55.2528 154.95 52.0776 
L 154.95 32.1192 
Q 154.95 28.944 161.46 28.944 
z
" clip-path="url(#p45a05457f9)" style="fill: #e8f4fd; stroke: #34495e; stroke-width: 1.4; stroke-linejoin: miter"/>
   </g>
   <g id="patch_3">
    <path d="M 128.91 71.5824 
L 190.29 71.5824 
Q 196.8 71.5824 196.8 74.7576 
L 196.8 89.2728 
Q 196.8 92.448 190.29 92.448 
L 128.91 92.448 
Q 122.4 92.448 122.4 89.2728 
L 122.4 74.7576 
Q 122.4 71.5824 128.91 71.5824 
z
" clip-path="url(#p45a05457f9)" style="fill: #daeaf6; stroke: #34495e; stroke-width: 1.4; stroke-linejoin: miter"/>
   </g>
   <g id="patch_4">
    <path d="M 221.91 71.5824 
L 283.29 71.5824 
Q 289.8 71.5824 289.8 74.7576 
L 289.8 89.2728 
Q 289.8 92.448 283.29 92.448 
L 221.91 92.448 
Q 215.4 92.448 215.4 89.2728 
L 215.4 74.7576 
Q 215.4 71.5824 221.91 71.5824 
z
" clip-path="url(#p45a05457f9)" style="fill: #daeaf6; stroke: #34495e; stroke-width: 1.4; stroke-linejoin: miter"/>
   </g>
   <g id="patch_5">
    <path d="M 206.1 104.6952 
C 209.552944 104.6952 212.86493 105.364318 215.30653 106.555189 
C 217.748131 107.74606 219.12 109.361454 219.12 111.0456 
C 219.12 112.729746 217.748131 114.34514 215.30653 115.536011 
C 212.86493 116.726882 209.552944 117.396 206.1 117.396 
C 202.647056 117.396 199.33507 116.726882 196.89347 115.536011 
C 194.451869 114.34514 193.08 112.729746 193.08 111.0456 
C 193.08 109.361454 194.451869 107.74606 196.89347 106.555189 
C 199.33507 105.364318 202.647056 104.6952 206.1 104.6952 
z
" clip-path="url(#p45a05457f9)" style="fill: #ffffff; stroke: #34495e; stroke-width: 1.6; stroke-linejoin: miter"/>
   </g>
   <g id="text_1">
    <!-- x: (8,8,2) -->
    <g style="fill: #555555" transform="translate(226.56 112.397694) scale(0.049 -0.049)">
     <defs>
      <path id="DejaVuSans-78" d="M 3513 3500 
L 2247 1797 
L 3578 0 
L 2900 0 
L 1881 1375 
L 863 0 
L 184 0 
L 1544 1831 
L 300 3500 
L 978 3500 
L 1906 2253 
L 2834 3500 
L 3513 3500 
z
" transform="scale(0.015625)"/>
      <path id="DejaVuSans-3a" d="M 750 794 
L 1409 794 
L 1409 0 
L 750 0 
L 750 794 
z
M 750 3309 
L 1409 3309 
L 1409 2516 
L 750 2516 
L 750 3309 
z
" transform="scale(0.015625)"/>
      <path id="DejaVuSans-20" transform="scale(0.015625)"/>
      <path id="DejaVuSans-28" d="M 1984 4856 
Q 1566 4138 1362 3434 
Q 1159 2731 1159 2009 
Q 1159 1288 1364 580 
Q 1569 -128 1984 -844 
L 1484 -844 
Q 1016 -109 783 600 
Q 550 1309 550 2009 
Q 550 2706 781 3412 
Q 1013 4119 1484 4856 
L 1984 4856 
z
" transform="scale(0.015625)"/>
      <path id="DejaVuSans-38" d="M 2034 2216 
Q 1584 2216 1326 1975 
Q 1069 1734 1069 1313 
Q 1069 891 1326 650 
Q 1584 409 2034 409 
Q 2484 409 2743 651 
Q 3003 894 3003 1313 
Q 3003 1734 2745 1975 
Q 2488 2216 2034 2216 
z
M 1403 2484 
Q 997 2584 770 2862 
Q 544 3141 544 3541 
Q 544 4100 942 4425 
Q 1341 4750 2034 4750 
Q 2731 4750 3128 4425 
Q 3525 4100 3525 3541 
Q 3525 3141 3298 2862 
Q 3072 2584 2669 2484 
Q 3125 2378 3379 2068 
Q 3634 1759 3634 1313 
Q 3634 634 3220 271 
Q 2806 -91 2034 -91 
Q 1263 -91 848 271 
Q 434 634 434 1313 
Q 434 1759 690 2068 
Q 947 2378 1403 2484 
z
M 1172 3481 
Q 1172 3119 1398 2916 
Q 1625 2713 2034 2713 
Q 2441 2713 2670 2916 
Q 2900 3119 2900 3481 
Q 2900 3844 2670 4047 
Q 2441 4250 2034 4250 
Q 1625 4250 1398 4047 
Q 1172 3844 1172 3481 
z
" transform="scale(0.015625)"/>
      <path id="DejaVuSans-2c" d="M 750 794 
L 1409 794 
L 1409 256 
L 897 -744 
L 494 -744 
L 750 256 
L 750 794 
z
" transform="scale(0.015625)"/>
      <path id="DejaVuSans-32" d="M 1228 531 
L 3431 531 
L 3431 0 
L 469 0 
L 469 531 
Q 828 903 1448 1529 
Q 2069 2156 2228 2338 
Q 2531 2678 2651 2914 
Q 2772 3150 2772 3378 
Q 2772 3750 2511 3984 
Q 2250 4219 1831 4219 
Q 1534 4219 1204 4116 
Q 875 4013 500 3803 
L 500 4441 
Q 881 4594 1212 4672 
Q 1544 4750 1819 4750 
Q 2544 4750 2975 4387 
Q 3406 4025 3406 3419 
Q 3406 3131 3298 2873 
Q 3191 2616 2906 2266 
Q 2828 2175 2409 1742 
Q 1991 1309 1228 531 
z
" transform="scale(0.015625)"/>
      <path id="DejaVuSans-29" d="M 513 4856 
L 1013 4856 
Q 1481 4119 1714 3412 
Q 1947 2706 1947 2009 
Q 1947 1309 1714 600 
Q 1481 -109 1013 -844 
L 513 -844 
Q 928 -128 1133 580 
Q 1338 1288 1338 2009 
Q 1338 2731 1133 3434 
Q 928 4138 513 4856 
z
" transform="scale(0.015625)"/>
     </defs>
     <use xlink:href="#DejaVuSans-78"/>
     <use xlink:href="#DejaVuSans-3a" transform="translate(59.179688 0)"/>
     <use xlink:href="#DejaVuSans-20" transform="translate(92.871094 0)"/>
     <use xlink:href="#DejaVuSans-28" transform="translate(124.658203 0)"/>
     <use xlink:href="#DejaVuSans-38" transform="translate(163.671875 0)"/>
     <use xlink:href="#DejaVuSans-2c" transform="translate(227.294922 0)"/>
     <use xlink:href="#DejaVuSans-38" transform="translate(259.082031 0)"/>
     <use xlink:href="#DejaVuSans-2c" transform="translate(322.705078 0)"/>
     <use xlink:href="#DejaVuSans-32" transform="translate(354.492188 0)"/>
     <use xlink:href="#DejaVuSans-29" transform="translate(418.115234 0)"/>
    </g>
   </g>
   <g id="patch_6">
    <path d="M 132.63 133.7256 
L 167.97 133.7256 
Q 174.48 133.7256 174.48 136.9008 
L 174.48 145.9728 
Q 174.48 149.148 167.97 149.148 
L 132.63 149.148 
Q 126.12 149.148 126.12 145.9728 
L 126.12 136.9008 
Q 126.12 133.7256 132.63 133.7256 
z
" clip-path="url(#p45a05457f9)" style="fill: #fff8e1; stroke: #34495e; stroke-width: 1.4; stroke-linejoin: miter"/>
   </g>
   <g id="patch_7">
    <path d="M 188.43 133.7256 
L 223.77 133.7256 
Q 230.28 133.7256 230.28 136.9008 
L 230.28 145.9728 
Q 230.28 149.148 223.77 149.148 
L 188.43 149.148 
Q 181.92 149.148 181.92 145.9728 
L 181.92 136.9008 
Q 181.92 133.7256 188.43 133.7256 
z
" clip-path="url(#p45a05457f9)" style="fill: #fff8e1; stroke: #34495e; stroke-width: 1.4; stroke-linejoin: miter"/>
   </g>
   <g id="patch_8">
    <path d="M 244.23 133.7256 
L 279.57 133.7256 
Q 286.08 133.7256 286.08 136.9008 
L 286.08 145.9728 
Q 286.08 149.148 279.57 149.148 
L 244.23 149.148 
Q 237.72 149.148 237.72 145.9728 
L 237.72 136.9008 
Q 237.72 133.7256 244.23 133.7256 
z
" clip-path="url(#p45a05457f9)" style="fill: #fff8e1; stroke: #34495e; stroke-width: 1.4; stroke-linejoin: miter"/>
   </g>
   <g id="patch_9">
    <path d="M 126.12 156.4056 
L 167.04 156.4056 
Q 173.55 156.4056 173.55 159.5808 
L 173.55 171.3744 
Q 173.55 174.5496 167.04 174.5496 
L 126.12 174.5496 
Q 119.61 174.5496 119.61 171.3744 
L 119.61 159.5808 
Q 119.61 156.4056 126.12 156.4056 
z
" clip-path="url(#p45a05457f9)" style="fill: #fff8e1; stroke: #34495e; stroke-width: 1.4; stroke-linejoin: miter"/>
   </g>
   <g id="patch_10">
    <path d="M 185.64 156.4056 
L 226.56 156.4056 
Q 233.07 156.4056 233.07 159.5808 
L 233.07 171.3744 
Q 233.07 174.5496 226.56 174.5496 
L 185.64 174.5496 
Q 179.13 174.5496 179.13 171.3744 
L 179.13 159.5808 
Q 179.13 156.4056 185.64 156.4056 
z
" clip-path="url(#p45a05457f9)" style="fill: #fff8e1; stroke: #34495e; stroke-width: 1.4; stroke-linejoin: miter"/>
   </g>
   <g id="patch_11">
    <path d="M 245.16 156.4056 
L 286.08 156.4056 
Q 292.59 156.4056 292.59 159.5808 
L 292.59 171.3744 
Q 292.59 174.5496 286.08 174.5496 
L 245.16 174.5496 
Q 238.65 174.5496 238.65 171.3744 
L 238.65 159.5808 
Q 238.65 156.4056 245.16 156.4056 
z
" clip-path="url(#p45a05457f9)" style="fill: #fff8e1; stroke: #34495e; stroke-width: 1.4; stroke-linejoin: miter"/>
   </g>
   <g id="patch_12">
    <path d="M 206.1 188.838 
C 209.552944 188.838 212.86493 189.507118 215.30653 190.697989 
C 217.748131 191.88886 219.12 193.504254 219.12 195.1884 
C 219.12 196.872546 217.748131 198.48794 215.30653 199.678811 
C 212.86493 200.869682 209.552944 201.5388 206.1 201.5388 
C 202.647056 201.5388 199.33507 200.869682 196.89347 199.678811 
C 194.451869 198.48794 193.08 196.872546 193.08 195.1884 
C 193.08 193.504254 194.451869 191.88886 196.89347 190.697989 
C 199.33507 189.507118 202.647056 188.838 206.1 188.838 
z
" clip-path="url(#p45a05457f9)" style="fill: #ffffff; stroke: #34495e; stroke-width: 1.6; stroke-linejoin: miter"/>
   </g>
   <g id="patch_13">
    <path d="M 147.51 215.8272 
L 264.69 215.8272 
Q 271.2 215.8272 271.2 219.0024 
L 271.2 238.9608 
Q 271.2 242.136 264.69 242.136 
L 147.51 242.136 
Q 141 242.136 141 238.9608 
L 141 219.0024 
Q 141 215.8272 147.51 215.8272 
z
" clip-path="url(#p45a05457f9)" style="fill: #fadbd8; stroke: #34495e; stroke-width: 1.4; stroke-linejoin: miter"/>
   </g>
   <g id="patch_14">
    <path d="M 206.1 256.4244 
C 209.552944 256.4244 212.86493 257.093518 215.30653 258.284389 
C 217.748131 259.47526 219.12 261.090654 219.12 262.7748 
C 219.12 264.458946 217.748131 266.07434 215.30653 267.265211 
C 212.86493 268.456082 209.552944 269.1252 206.1 269.1252 
C 202.647056 269.1252 199.33507 268.456082 196.89347 267.265211 
C 194.451869 266.07434 193.08 264.458946 193.08 262.7748 
C 193.08 261.090654 194.451869 259.47526 196.89347 258.284389 
C 199.33507 257.093518 202.647056 256.4244 206.1 256.4244 
z
" clip-path="url(#p45a05457f9)" style="fill: #ffffff; stroke: #34495e; stroke-width: 1.6; stroke-linejoin: miter"/>
   </g>
   <g id="patch_15">
    <path d="M 166.11 283.4136 
L 246.09 283.4136 
Q 252.6 283.4136 252.6 286.5888 
L 252.6 306.5472 
Q 252.6 309.7224 246.09 309.7224 
L 166.11 309.7224 
Q 159.6 309.7224 159.6 306.5472 
L 159.6 286.5888 
Q 159.6 283.4136 166.11 283.4136 
z
" clip-path="url(#p45a05457f9)" style="fill: #d5f5e3; stroke: #34495e; stroke-width: 1.4; stroke-linejoin: miter"/>
   </g>
   <g id="patch_16">
    <path d="M 151.23 319.9284 
L 194.01 319.9284 
Q 200.52 319.9284 200.52 323.1036 
L 200.52 343.062 
Q 200.52 346.2372 194.01 346.2372 
L 151.23 346.2372 
Q 144.72 346.2372 144.72 343.062 
L 144.72 323.1036 
Q 144.72 319.9284 151.23 319.9284 
z
" clip-path="url(#p45a05457f9)" style="fill: #d5f5e3; stroke: #34495e; stroke-width: 1.4; stroke-linejoin: miter"/>
   </g>
   <g id="patch_17">
    <path d="M 218.19 319.9284 
L 260.97 319.9284 
Q 267.48 319.9284 267.48 323.1036 
L 267.48 343.062 
Q 267.48 346.2372 260.97 346.2372 
L 218.19 346.2372 
Q 211.68 346.2372 211.68 343.062 
L 211.68 323.1036 
Q 211.68 319.9284 218.19 319.9284 
z
" clip-path="url(#p45a05457f9)" style="fill: #d5f5e3; stroke: #34495e; stroke-width: 1.4; stroke-linejoin: miter"/>
   </g>
   <g id="text_2">
    <!-- Notation -->
    <g style="fill: #34495e" transform="translate(364.680125 24.127125) scale(0.056 -0.056)">
     <defs>
      <path id="DejaVuSans-Bold-4e" d="M 588 4666 
L 1931 4666 
L 3628 1466 
L 3628 4666 
L 4769 4666 
L 4769 0 
L 3425 0 
L 1728 3200 
L 1728 0 
L 588 0 
L 588 4666 
z
" transform="scale(0.015625)"/>
      <path id="DejaVuSans-Bold-6f" d="M 2203 2784 
Q 1831 2784 1636 2517 
Q 1441 2250 1441 1747 
Q 1441 1244 1636 976 
Q 1831 709 2203 709 
Q 2569 709 2762 976 
Q 2956 1244 2956 1747 
Q 2956 2250 2762 2517 
Q 2569 2784 2203 2784 
z
M 2203 3584 
Q 3106 3584 3614 3096 
Q 4122 2609 4122 1747 
Q 4122 884 3614 396 
Q 3106 -91 2203 -91 
Q 1297 -91 786 396 
Q 275 884 275 1747 
Q 275 2609 786 3096 
Q 1297 3584 2203 3584 
z
" transform="scale(0.015625)"/>
      <path id="DejaVuSans-Bold-74" d="M 1759 4494 
L 1759 3500 
L 2913 3500 
L 2913 2700 
L 1759 2700 
L 1759 1216 
Q 1759 972 1856 886 
Q 1953 800 2241 800 
L 2816 800 
L 2816 0 
L 1856 0 
Q 1194 0 917 276 
Q 641 553 641 1216 
L 641 2700 
L 84 2700 
L 84 3500 
L 641 3500 
L 641 4494 
L 1759 4494 
z
" transform="scale(0.015625)"/>
      <path id="DejaVuSans-Bold-61" d="M 2106 1575 
Q 1756 1575 1579 1456 
Q 1403 1338 1403 1106 
Q 1403 894 1545 773 
Q 1688 653 1941 653 
Q 2256 653 2472 879 
Q 2688 1106 2688 1447 
L 2688 1575 
L 2106 1575 
z
M 3816 1997 
L 3816 0 
L 2688 0 
L 2688 519 
Q 2463 200 2181 54 
Q 1900 -91 1497 -91 
Q 953 -91 614 226 
Q 275 544 275 1050 
Q 275 1666 698 1953 
Q 1122 2241 2028 2241 
L 2688 2241 
L 2688 2328 
Q 2688 2594 2478 2717 
Q 2269 2841 1825 2841 
Q 1466 2841 1156 2769 
Q 847 2697 581 2553 
L 581 3406 
Q 941 3494 1303 3539 
Q 1666 3584 2028 3584 
Q 2975 3584 3395 3211 
Q 3816 2838 3816 1997 
z
" transform="scale(0.015625)"/>
      <path id="DejaVuSans-Bold-69" d="M 538 3500 
L 1656 3500 
L 1656 0 
L 538 0 
L 538 3500 
z
M 538 4863 
L 1656 4863 
L 1656 3950 
L 538 3950 
L 538 4863 
z
" transform="scale(0.015625)"/>
      <path id="DejaVuSans-Bold-6e" d="M 4056 2131 
L 4056 0 
L 2931 0 
L 2931 347 
L 2931 1631 
Q 2931 2084 2911 2256 
Q 2891 2428 2841 2509 
Q 2775 2619 2662 2680 
Q 2550 2741 2406 2741 
Q 2056 2741 1856 2470 
Q 1656 2200 1656 1722 
L 1656 0 
L 538 0 
L 538 3500 
L 1656 3500 
L 1656 2988 
Q 1909 3294 2193 3439 
Q 2478 3584 2822 3584 
Q 3428 3584 3742 3212 
Q 4056 2841 4056 2131 
z
" transform="scale(0.015625)"/>
     </defs>
     <use xlink:href="#DejaVuSans-Bold-4e"/>
     <use xlink:href="#DejaVuSans-Bold-6f" transform="translate(83.691406 0)"/>
     <use xlink:href="#DejaVuSans-Bold-74" transform="translate(152.392578 0)"/>
     <use xlink:href="#DejaVuSans-Bold-61" transform="translate(200.195312 0)"/>
     <use xlink:href="#DejaVuSans-Bold-74" transform="translate(267.675781 0)"/>
     <use xlink:href="#DejaVuSans-Bold-69" transform="translate(315.478516 0)"/>
     <use xlink:href="#DejaVuSans-Bold-6f" transform="translate(349.755859 0)"/>
     <use xlink:href="#DejaVuSans-Bold-6e" transform="translate(418.457031 0)"/>
    </g>
   </g>
   <g id="text_3">
    <!-- B=8 -->
    <g style="fill: #555555" transform="translate(381.514469 29.945634) scale(0.049 -0.049)">
     <defs>
      <path id="DejaVuSans-42" d="M 1259 2228 
L 1259 519 
L 2272 519 
Q 2781 519 3026 730 
Q 3272 941 3272 1375 
Q 3272 1813 3026 2020 
Q 2781 2228 2272 2228 
L 1259 2228 
z
M 1259 4147 
L 1259 2741 
L 2194 2741 
Q 2656 2741 2882 2914 
Q 3109 3088 3109 3444 
Q 3109 3797 2882 3972 
Q 2656 4147 2194 4147 
L 1259 4147 
z
M 628 4666 
L 2241 4666 
Q 2963 4666 3353 4366 
Q 3744 4066 3744 3513 
Q 3744 3084 3544 2831 
Q 3344 2578 2956 2516 
Q 3422 2416 3680 2098 
Q 3938 1781 3938 1306 
Q 3938 681 3513 340 
Q 3088 0 2303 0 
L 628 0 
L 628 4666 
z
" transform="scale(0.015625)"/>
      <path id="DejaVuSans-3d" d="M 678 2906 
L 4684 2906 
L 4684 2381 
L 678 2381 
L 678 2906 
z
M 678 1631 
L 4684 1631 
L 4684 1100 
L 678 1100 
L 678 1631 
z
" transform="scale(0.015625)"/>
     </defs>
     <use xlink:href="#DejaVuSans-42"/>
     <use xlink:href="#DejaVuSans-3d" transform="translate(68.603516 0)"/>
     <use xlink:href="#DejaVuSans-38" transform="translate(152.392578 0)"/>
    </g>
   </g>
   <g id="text_4">
    <!-- T=8 -->
    <g style="fill: #555555" transform="translate(381.8835 36.296034) scale(0.049 -0.049)">
     <defs>
      <path id="DejaVuSans-54" d="M -19 4666 
L 3928 4666 
L 3928 4134 
L 2272 4134 
L 2272 0 
L 1638 0 
L 1638 4134 
L -19 4134 
L -19 4666 
z
" transform="scale(0.015625)"/>
     </defs>
     <use xlink:href="#DejaVuSans-54"/>
     <use xlink:href="#DejaVuSans-3d" transform="translate(61.083984 0)"/>
     <use xlink:href="#DejaVuSans-38" transform="translate(144.873047 0)"/>
    </g>
   </g>
   <g id="text_5">
    <!-- C=2 -->
    <g style="fill: #555555" transform="translate(381.45475 42.646434) scale(0.049 -0.049)">
     <defs>
      <path id="DejaVuSans-43" d="M 4122 4306 
L 4122 3641 
Q 3803 3938 3442 4084 
Q 3081 4231 2675 4231 
Q 1875 4231 1450 3742 
Q 1025 3253 1025 2328 
Q 1025 1406 1450 917 
Q 1875 428 2675 428 
Q 3081 428 3442 575 
Q 3803 722 4122 1019 
L 4122 359 
Q 3791 134 3420 21 
Q 3050 -91 2638 -91 
Q 1578 -91 968 557 
Q 359 1206 359 2328 
Q 359 3453 968 4101 
Q 1578 4750 2638 4750 
Q 3056 4750 3426 4639 
Q 3797 4528 4122 4306 
z
" transform="scale(0.015625)"/>
     </defs>
     <use xlink:href="#DejaVuSans-43"/>
     <use xlink:href="#DejaVuSans-3d" transform="translate(69.824219 0)"/>
     <use xlink:href="#DejaVuSans-32" transform="translate(153.613281 0)"/>
    </g>
   </g>
   <g id="text_6">
    <!-- d_k=2 -->
    <g style="fill: #555555" transform="translate(376.478188 48.996834) scale(0.049 -0.049)">
     <defs>
      <path id="DejaVuSans-64" d="M 2906 2969 
L 2906 4863 
L 3481 4863 
L 3481 0 
L 2906 0 
L 2906 525 
Q 2725 213 2448 61 
Q 2172 -91 1784 -91 
Q 1150 -91 751 415 
Q 353 922 353 1747 
Q 353 2572 751 3078 
Q 1150 3584 1784 3584 
Q 2172 3584 2448 3432 
Q 2725 3281 2906 2969 
z
M 947 1747 
Q 947 1113 1208 752 
Q 1469 391 1925 391 
Q 2381 391 2643 752 
Q 2906 1113 2906 1747 
Q 2906 2381 2643 2742 
Q 2381 3103 1925 3103 
Q 1469 3103 1208 2742 
Q 947 2381 947 1747 
z
" transform="scale(0.015625)"/>
      <path id="DejaVuSans-5f" d="M 3263 -1063 
L 3263 -1509 
L -63 -1509 
L -63 -1063 
L 3263 -1063 
z
" transform="scale(0.015625)"/>
      <path id="DejaVuSans-6b" d="M 581 4863 
L 1159 4863 
L 1159 1991 
L 2875 3500 
L 3609 3500 
L 1753 1863 
L 3688 0 
L 2938 0 
L 1159 1709 
L 1159 0 
L 581 0 
L 581 4863 
z
" transform="scale(0.015625)"/>
     </defs>
     <use xlink:href="#DejaVuSans-64"/>
     <use xlink:href="#DejaVuSans-5f" transform="translate(63.476562 0)"/>
     <use xlink:href="#DejaVuSans-6b" transform="translate(113.476562 0)"/>
     <use xlink:href="#DejaVuSans-3d" transform="translate(171.386719 0)"/>
     <use xlink:href="#DejaVuSans-32" transform="translate(255.175781 0)"/>
    </g>
   </g>
   <g id="text_7">
    <!-- vocab=12 -->
    <g style="fill: #555555" transform="translate(367.052578 55.347234) scale(0.049 -0.049)">
     <defs>
      <path id="DejaVuSans-76" d="M 191 3500 
L 800 3500 
L 1894 563 
L 2988 3500 
L 3597 3500 
L 2284 0 
L 1503 0 
L 191 3500 
z
" transform="scale(0.015625)"/>
      <path id="DejaVuSans-6f" d="M 1959 3097 
Q 1497 3097 1228 2736 
Q 959 2375 959 1747 
Q 959 1119 1226 758 
Q 1494 397 1959 397 
Q 2419 397 2687 759 
Q 2956 1122 2956 1747 
Q 2956 2369 2687 2733 
Q 2419 3097 1959 3097 
z
M 1959 3584 
Q 2709 3584 3137 3096 
Q 3566 2609 3566 1747 
Q 3566 888 3137 398 
Q 2709 -91 1959 -91 
Q 1206 -91 779 398 
Q 353 888 353 1747 
Q 353 2609 779 3096 
Q 1206 3584 1959 3584 
z
" transform="scale(0.015625)"/>
      <path id="DejaVuSans-63" d="M 3122 3366 
L 3122 2828 
Q 2878 2963 2633 3030 
Q 2388 3097 2138 3097 
Q 1578 3097 1268 2742 
Q 959 2388 959 1747 
Q 959 1106 1268 751 
Q 1578 397 2138 397 
Q 2388 397 2633 464 
Q 2878 531 3122 666 
L 3122 134 
Q 2881 22 2623 -34 
Q 2366 -91 2075 -91 
Q 1284 -91 818 406 
Q 353 903 353 1747 
Q 353 2603 823 3093 
Q 1294 3584 2113 3584 
Q 2378 3584 2631 3529 
Q 2884 3475 3122 3366 
z
" transform="scale(0.015625)"/>
      <path id="DejaVuSans-61" d="M 2194 1759 
Q 1497 1759 1228 1600 
Q 959 1441 959 1056 
Q 959 750 1161 570 
Q 1363 391 1709 391 
Q 2188 391 2477 730 
Q 2766 1069 2766 1631 
L 2766 1759 
L 2194 1759 
z
M 3341 1997 
L 3341 0 
L 2766 0 
L 2766 531 
Q 2569 213 2275 61 
Q 1981 -91 1556 -91 
Q 1019 -91 701 211 
Q 384 513 384 1019 
Q 384 1609 779 1909 
Q 1175 2209 1959 2209 
L 2766 2209 
L 2766 2266 
Q 2766 2663 2505 2880 
Q 2244 3097 1772 3097 
Q 1472 3097 1187 3025 
Q 903 2953 641 2809 
L 641 3341 
Q 956 3463 1253 3523 
Q 1550 3584 1831 3584 
Q 2591 3584 2966 3190 
Q 3341 2797 3341 1997 
z
" transform="scale(0.015625)"/>
      <path id="DejaVuSans-62" d="M 3116 1747 
Q 3116 2381 2855 2742 
Q 2594 3103 2138 3103 
Q 1681 3103 1420 2742 
Q 1159 2381 1159 1747 
Q 1159 1113 1420 752 
Q 1681 391 2138 391 
Q 2594 391 2855 752 
Q 3116 1113 3116 1747 
z
M 1159 2969 
Q 1341 3281 1617 3432 
Q 1894 3584 2278 3584 
Q 2916 3584 3314 3078 
Q 3713 2572 3713 1747 
Q 3713 922 3314 415 
Q 2916 -91 2278 -91 
Q 1894 -91 1617 61 
Q 1341 213 1159 525 
L 1159 0 
L 581 0 
L 581 4863 
L 1159 4863 
L 1159 2969 
z
" transform="scale(0.015625)"/>
      <path id="DejaVuSans-31" d="M 794 531 
L 1825 531 
L 1825 4091 
L 703 3866 
L 703 4441 
L 1819 4666 
L 2450 4666 
L 2450 531 
L 3481 531 
L 3481 0 
L 794 0 
L 794 531 
z
" transform="scale(0.015625)"/>
     </defs>
     <use xlink:href="#DejaVuSans-76"/>
     <use xlink:href="#DejaVuSans-6f" transform="translate(59.179688 0)"/>
     <use xlink:href="#DejaVuSans-63" transform="translate(120.361328 0)"/>
     <use xlink:href="#DejaVuSans-61" transform="translate(175.341797 0)"/>
     <use xlink:href="#DejaVuSans-62" transform="translate(236.621094 0)"/>
     <use xlink:href="#DejaVuSans-3d" transform="translate(300.097656 0)"/>
     <use xlink:href="#DejaVuSans-31" transform="translate(383.886719 0)"/>
     <use xlink:href="#DejaVuSans-32" transform="translate(447.509766 0)"/>
    </g>
   </g>
   <g id="patch_18">
    <path d="M 31.26 491.1624 
L 38.7 491.1624 
Q 40.56 491.1624 40.56 492.0696 
L 40.56 495.6984 
Q 40.56 496.6056 38.7 496.6056 
L 31.26 496.6056 
Q 29.4 496.6056 29.4 495.6984 
L 29.4 492.0696 
Q 29.4 491.1624 31.26 491.1624 
z
" clip-path="url(#p45a05457f9)" style="fill: #daeaf6; stroke: #34495e; stroke-width: 0.8; stroke-linejoin: miter"/>
   </g>
   <g id="patch_19">
    <path d="M 119.61 491.1624 
L 127.05 491.1624 
Q 128.91 491.1624 128.91 492.0696 
L 128.91 495.6984 
Q 128.91 496.6056 127.05 496.6056 
L 119.61 496.6056 
Q 117.75 496.6056 117.75 495.6984 
L 117.75 492.0696 
Q 117.75 491.1624 119.61 491.1624 
z
" clip-path="url(#p45a05457f9)" style="fill: #fff8e1; stroke: #34495e; stroke-width: 0.8; stroke-linejoin: miter"/>
   </g>
   <g id="patch_20">
    <path d="M 207.96 491.1624 
L 215.4 491.1624 
Q 217.26 491.1624 217.26 492.0696 
L 217.26 495.6984 
Q 217.26 496.6056 215.4 496.6056 
L 207.96 496.6056 
Q 206.1 496.6056 206.1 495.6984 
L 206.1 492.0696 
Q 206.1 491.1624 207.96 491.1624 
z
" clip-path="url(#p45a05457f9)" style="fill: #fadbd8; stroke: #34495e; stroke-width: 0.8; stroke-linejoin: miter"/>
   </g>
   <g id="patch_21">
    <path d="M 296.31 491.1624 
L 303.75 491.1624 
Q 305.61 491.1624 305.61 492.0696 
L 305.61 495.6984 
Q 305.61 496.6056 303.75 496.6056 
L 296.31 496.6056 
Q 294.45 496.6056 294.45 495.6984 
L 294.45 492.0696 
Q 294.45 491.1624 296.31 491.1624 
z
" clip-path="url(#p45a05457f9)" style="fill: #d5f5e3; stroke: #34495e; stroke-width: 0.8; stroke-linejoin: miter"/>
   </g>
   <g id="text_8">
    <!-- Input -->
    <g style="fill: #34495e" transform="translate(196.682977 37.350326) scale(0.063 -0.063)">
     <defs>
      <path id="DejaVuSans-Bold-49" d="M 588 4666 
L 1791 4666 
L 1791 0 
L 588 0 
L 588 4666 
z
" transform="scale(0.015625)"/>
      <path id="DejaVuSans-Bold-70" d="M 1656 506 
L 1656 -1331 
L 538 -1331 
L 538 3500 
L 1656 3500 
L 1656 2988 
Q 1888 3294 2169 3439 
Q 2450 3584 2816 3584 
Q 3463 3584 3878 3070 
Q 4294 2556 4294 1747 
Q 4294 938 3878 423 
Q 3463 -91 2816 -91 
Q 2450 -91 2169 54 
Q 1888 200 1656 506 
z
M 2400 2772 
Q 2041 2772 1848 2508 
Q 1656 2244 1656 1747 
Q 1656 1250 1848 986 
Q 2041 722 2400 722 
Q 2759 722 2948 984 
Q 3138 1247 3138 1747 
Q 3138 2247 2948 2509 
Q 2759 2772 2400 2772 
z
" transform="scale(0.015625)"/>
      <path id="DejaVuSans-Bold-75" d="M 500 1363 
L 500 3500 
L 1625 3500 
L 1625 3150 
Q 1625 2866 1622 2436 
Q 1619 2006 1619 1863 
Q 1619 1441 1641 1255 
Q 1663 1069 1716 984 
Q 1784 875 1895 815 
Q 2006 756 2150 756 
Q 2500 756 2700 1025 
Q 2900 1294 2900 1772 
L 2900 3500 
L 4019 3500 
L 4019 0 
L 2900 0 
L 2900 506 
Q 2647 200 2364 54 
Q 2081 -91 1741 -91 
Q 1134 -91 817 281 
Q 500 653 500 1363 
z
" transform="scale(0.015625)"/>
     </defs>
     <use xlink:href="#DejaVuSans-Bold-49"/>
     <use xlink:href="#DejaVuSans-Bold-6e" transform="translate(37.207031 0)"/>
     <use xlink:href="#DejaVuSans-Bold-70" transform="translate(108.398438 0)"/>
     <use xlink:href="#DejaVuSans-Bold-75" transform="translate(179.980469 0)"/>
     <use xlink:href="#DejaVuSans-Bold-74" transform="translate(251.171875 0)"/>
    </g>
   </g>
   <g id="text_9">
    <!-- Tokens -->
    <g style="fill: #34495e" transform="translate(193.938539 43.065686) scale(0.063 -0.063)">
     <defs>
      <path id="DejaVuSans-Bold-54" d="M 31 4666 
L 4331 4666 
L 4331 3756 
L 2784 3756 
L 2784 0 
L 1581 0 
L 1581 3756 
L 31 3756 
L 31 4666 
z
" transform="scale(0.015625)"/>
      <path id="DejaVuSans-Bold-6b" d="M 538 4863 
L 1656 4863 
L 1656 2216 
L 2944 3500 
L 4244 3500 
L 2534 1894 
L 4378 0 
L 3022 0 
L 1656 1459 
L 1656 0 
L 538 0 
L 538 4863 
z
" transform="scale(0.015625)"/>
      <path id="DejaVuSans-Bold-65" d="M 4031 1759 
L 4031 1441 
L 1416 1441 
Q 1456 1047 1700 850 
Q 1944 653 2381 653 
Q 2734 653 3104 758 
Q 3475 863 3866 1075 
L 3866 213 
Q 3469 63 3072 -14 
Q 2675 -91 2278 -91 
Q 1328 -91 801 392 
Q 275 875 275 1747 
Q 275 2603 792 3093 
Q 1309 3584 2216 3584 
Q 3041 3584 3536 3087 
Q 4031 2591 4031 1759 
z
M 2881 2131 
Q 2881 2450 2695 2645 
Q 2509 2841 2209 2841 
Q 1884 2841 1681 2658 
Q 1478 2475 1428 2131 
L 2881 2131 
z
" transform="scale(0.015625)"/>
      <path id="DejaVuSans-Bold-73" d="M 3272 3391 
L 3272 2541 
Q 2913 2691 2578 2766 
Q 2244 2841 1947 2841 
Q 1628 2841 1473 2761 
Q 1319 2681 1319 2516 
Q 1319 2381 1436 2309 
Q 1553 2238 1856 2203 
L 2053 2175 
Q 2913 2066 3209 1816 
Q 3506 1566 3506 1031 
Q 3506 472 3093 190 
Q 2681 -91 1863 -91 
Q 1516 -91 1145 -36 
Q 775 19 384 128 
L 384 978 
Q 719 816 1070 734 
Q 1422 653 1784 653 
Q 2113 653 2278 743 
Q 2444 834 2444 1013 
Q 2444 1163 2330 1236 
Q 2216 1309 1875 1350 
L 1678 1375 
Q 931 1469 631 1722 
Q 331 1975 331 2491 
Q 331 3047 712 3315 
Q 1094 3584 1881 3584 
Q 2191 3584 2531 3537 
Q 2872 3491 3272 3391 
z
" transform="scale(0.015625)"/>
     </defs>
     <use xlink:href="#DejaVuSans-Bold-54"/>
     <use xlink:href="#DejaVuSans-Bold-6f" transform="translate(54.962891 0)"/>
     <use xlink:href="#DejaVuSans-Bold-6b" transform="translate(123.664062 0)"/>
     <use xlink:href="#DejaVuSans-Bold-65" transform="translate(187.542969 0)"/>
     <use xlink:href="#DejaVuSans-Bold-6e" transform="translate(255.365234 0)"/>
     <use xlink:href="#DejaVuSans-Bold-73" transform="translate(326.556641 0)"/>
    </g>
   </g>
   <g id="text_10">
    <!-- (8,8) -->
    <g style="fill: #666666" transform="translate(200.291969 49.936974) scale(0.049 -0.049)">
     <use xlink:href="#DejaVuSans-28"/>
     <use xlink:href="#DejaVuSans-38" transform="translate(39.013672 0)"/>
     <use xlink:href="#DejaVuSans-2c" transform="translate(102.636719 0)"/>
     <use xlink:href="#DejaVuSans-38" transform="translate(134.423828 0)"/>
     <use xlink:href="#DejaVuSans-29" transform="translate(198.046875 0)"/>
    </g>
   </g>
   <g id="text_11">
    <!-- Token Emb -->
    <g style="fill: #34495e" transform="translate(142.646875 79.93165) scale(0.056 -0.056)">
     <defs>
      <path id="DejaVuSans-Bold-20" transform="scale(0.015625)"/>
      <path id="DejaVuSans-Bold-45" d="M 588 4666 
L 3834 4666 
L 3834 3756 
L 1791 3756 
L 1791 2888 
L 3713 2888 
L 3713 1978 
L 1791 1978 
L 1791 909 
L 3903 909 
L 3903 0 
L 588 0 
L 588 4666 
z
" transform="scale(0.015625)"/>
      <path id="DejaVuSans-Bold-6d" d="M 3781 2919 
Q 3994 3244 4286 3414 
Q 4578 3584 4928 3584 
Q 5531 3584 5847 3212 
Q 6163 2841 6163 2131 
L 6163 0 
L 5038 0 
L 5038 1825 
Q 5041 1866 5042 1909 
Q 5044 1953 5044 2034 
Q 5044 2406 4934 2573 
Q 4825 2741 4581 2741 
Q 4263 2741 4089 2478 
Q 3916 2216 3909 1719 
L 3909 0 
L 2784 0 
L 2784 1825 
Q 2784 2406 2684 2573 
Q 2584 2741 2328 2741 
Q 2006 2741 1831 2477 
Q 1656 2213 1656 1722 
L 1656 0 
L 531 0 
L 531 3500 
L 1656 3500 
L 1656 2988 
Q 1863 3284 2130 3434 
Q 2397 3584 2719 3584 
Q 3081 3584 3359 3409 
Q 3638 3234 3781 2919 
z
" transform="scale(0.015625)"/>
      <path id="DejaVuSans-Bold-62" d="M 2400 722 
Q 2759 722 2948 984 
Q 3138 1247 3138 1747 
Q 3138 2247 2948 2509 
Q 2759 2772 2400 2772 
Q 2041 2772 1848 2508 
Q 1656 2244 1656 1747 
Q 1656 1250 1848 986 
Q 2041 722 2400 722 
z
M 1656 2988 
Q 1888 3294 2169 3439 
Q 2450 3584 2816 3584 
Q 3463 3584 3878 3070 
Q 4294 2556 4294 1747 
Q 4294 938 3878 423 
Q 3463 -91 2816 -91 
Q 2450 -91 2169 54 
Q 1888 200 1656 506 
L 1656 0 
L 538 0 
L 538 4863 
L 1656 4863 
L 1656 2988 
z
" transform="scale(0.015625)"/>
     </defs>
     <use xlink:href="#DejaVuSans-Bold-54"/>
     <use xlink:href="#DejaVuSans-Bold-6f" transform="translate(54.962891 0)"/>
     <use xlink:href="#DejaVuSans-Bold-6b" transform="translate(123.664062 0)"/>
     <use xlink:href="#DejaVuSans-Bold-65" transform="translate(187.542969 0)"/>
     <use xlink:href="#DejaVuSans-Bold-6e" transform="translate(255.365234 0)"/>
     <use xlink:href="#DejaVuSans-Bold-20" transform="translate(326.556641 0)"/>
     <use xlink:href="#DejaVuSans-Bold-45" transform="translate(361.371094 0)"/>
     <use xlink:href="#DejaVuSans-Bold-6d" transform="translate(429.681641 0)"/>
     <use xlink:href="#DejaVuSans-Bold-62" transform="translate(533.880859 0)"/>
    </g>
   </g>
   <g id="text_12">
    <!-- (12,2) -->
    <g style="fill: #666666" transform="translate(153.285563 86.802937) scale(0.042 -0.042)">
     <use xlink:href="#DejaVuSans-28"/>
     <use xlink:href="#DejaVuSans-31" transform="translate(39.013672 0)"/>
     <use xlink:href="#DejaVuSans-32" transform="translate(102.636719 0)"/>
     <use xlink:href="#DejaVuSans-2c" transform="translate(166.259766 0)"/>
     <use xlink:href="#DejaVuSans-32" transform="translate(198.046875 0)"/>
     <use xlink:href="#DejaVuSans-29" transform="translate(261.669922 0)"/>
    </g>
   </g>
   <g id="text_13">
    <!-- Position Emb -->
    <g style="fill: #34495e" transform="translate(231.973188 79.93165) scale(0.056 -0.056)">
     <defs>
      <path id="DejaVuSans-Bold-50" d="M 588 4666 
L 2584 4666 
Q 3475 4666 3951 4270 
Q 4428 3875 4428 3144 
Q 4428 2409 3951 2014 
Q 3475 1619 2584 1619 
L 1791 1619 
L 1791 0 
L 588 0 
L 588 4666 
z
M 1791 3794 
L 1791 2491 
L 2456 2491 
Q 2806 2491 2997 2661 
Q 3188 2831 3188 3144 
Q 3188 3456 2997 3625 
Q 2806 3794 2456 3794 
L 1791 3794 
z
" transform="scale(0.015625)"/>
     </defs>
     <use xlink:href="#DejaVuSans-Bold-50"/>
     <use xlink:href="#DejaVuSans-Bold-6f" transform="translate(73.291016 0)"/>
     <use xlink:href="#DejaVuSans-Bold-73" transform="translate(141.992188 0)"/>
     <use xlink:href="#DejaVuSans-Bold-69" transform="translate(201.513672 0)"/>
     <use xlink:href="#DejaVuSans-Bold-74" transform="translate(235.791016 0)"/>
     <use xlink:href="#DejaVuSans-Bold-69" transform="translate(283.59375 0)"/>
     <use xlink:href="#DejaVuSans-Bold-6f" transform="translate(317.871094 0)"/>
     <use xlink:href="#DejaVuSans-Bold-6e" transform="translate(386.572266 0)"/>
     <use xlink:href="#DejaVuSans-Bold-20" transform="translate(457.763672 0)"/>
     <use xlink:href="#DejaVuSans-Bold-45" transform="translate(492.578125 0)"/>
     <use xlink:href="#DejaVuSans-Bold-6d" transform="translate(560.888672 0)"/>
     <use xlink:href="#DejaVuSans-Bold-62" transform="translate(665.087891 0)"/>
    </g>
   </g>
   <g id="text_14">
    <!-- (8,2) -->
    <g style="fill: #666666" transform="translate(247.621688 86.802937) scale(0.042 -0.042)">
     <use xlink:href="#DejaVuSans-28"/>
     <use xlink:href="#DejaVuSans-38" transform="translate(39.013672 0)"/>
     <use xlink:href="#DejaVuSans-2c" transform="translate(102.636719 0)"/>
     <use xlink:href="#DejaVuSans-32" transform="translate(134.423828 0)"/>
     <use xlink:href="#DejaVuSans-29" transform="translate(198.046875 0)"/>
    </g>
   </g>
   <g id="text_15">
    <!-- + -->
    <g style="fill: #34495e" transform="translate(202.287242 113.556631) scale(0.091 -0.091)">
     <defs>
      <path id="DejaVuSans-Bold-2b" d="M 3053 4013 
L 3053 2375 
L 4684 2375 
L 4684 1638 
L 3053 1638 
L 3053 0 
L 2309 0 
L 2309 1638 
L 678 1638 
L 678 2375 
L 2309 2375 
L 2309 4013 
L 3053 4013 
z
" transform="scale(0.015625)"/>
     </defs>
     <use xlink:href="#DejaVuSans-Bold-2b"/>
    </g>
   </g>
   <g id="text_16">
    <!-- W_Q -->
    <g style="fill: #34495e" transform="translate(144.289844 139.048695) scale(0.049 -0.049)">
     <defs>
      <path id="DejaVuSans-Bold-57" d="M 191 4666 
L 1344 4666 
L 2150 1275 
L 2950 4666 
L 4109 4666 
L 4909 1275 
L 5716 4666 
L 6859 4666 
L 5759 0 
L 4372 0 
L 3525 3547 
L 2688 0 
L 1300 0 
L 191 4666 
z
" transform="scale(0.015625)"/>
      <path id="DejaVuSans-Bold-5f" d="M 3200 -916 
L 3200 -1509 
L 0 -1509 
L 0 -916 
L 3200 -916 
z
" transform="scale(0.015625)"/>
      <path id="DejaVuSans-Bold-51" d="M 2847 -84 
L 2753 -84 
Q 1600 -84 959 553 
Q 319 1191 319 2328 
Q 319 3463 958 4106 
Q 1597 4750 2719 4750 
Q 3853 4750 4486 4112 
Q 5119 3475 5119 2328 
Q 5119 1541 4783 972 
Q 4447 403 3816 116 
L 4756 -934 
L 3609 -934 
L 2847 -84 
z
M 2719 3878 
Q 2169 3878 1866 3472 
Q 1563 3066 1563 2328 
Q 1563 1578 1859 1179 
Q 2156 781 2719 781 
Q 3272 781 3575 1187 
Q 3878 1594 3878 2328 
Q 3878 3066 3575 3472 
Q 3272 3878 2719 3878 
z
" transform="scale(0.015625)"/>
     </defs>
     <use xlink:href="#DejaVuSans-Bold-57"/>
     <use xlink:href="#DejaVuSans-Bold-5f" transform="translate(110.302734 0)"/>
     <use xlink:href="#DejaVuSans-Bold-51" transform="translate(160.302734 0)"/>
    </g>
   </g>
   <g id="text_17">
    <!-- 2→2 -->
    <g style="fill: #666666" transform="translate(145.868016 146.224537) scale(0.042 -0.042)">
     <defs>
      <path id="DejaVuSans-2192" d="M 5050 2147 
L 5050 1866 
L 3822 638 
L 3447 1013 
L 4175 1741 
L 366 1741 
L 366 2272 
L 4175 2272 
L 3447 3000 
L 3822 3375 
L 5050 2147 
z
" transform="scale(0.015625)"/>
     </defs>
     <use xlink:href="#DejaVuSans-32"/>
     <use xlink:href="#DejaVuSans-2192" transform="translate(63.623047 0)"/>
     <use xlink:href="#DejaVuSans-32" transform="translate(147.412109 0)"/>
    </g>
   </g>
   <g id="text_18">
    <!-- W_K -->
    <g style="fill: #34495e" transform="translate(200.274359 139.023813) scale(0.049 -0.049)">
     <defs>
      <path id="DejaVuSans-Bold-4b" d="M 588 4666 
L 1791 4666 
L 1791 2963 
L 3525 4666 
L 4922 4666 
L 2675 2456 
L 5153 0 
L 3647 0 
L 1791 1838 
L 1791 0 
L 588 0 
L 588 4666 
z
" transform="scale(0.015625)"/>
     </defs>
     <use xlink:href="#DejaVuSans-Bold-57"/>
     <use xlink:href="#DejaVuSans-Bold-5f" transform="translate(110.302734 0)"/>
     <use xlink:href="#DejaVuSans-Bold-4b" transform="translate(160.302734 0)"/>
    </g>
   </g>
   <g id="text_19">
    <!-- 2→2 -->
    <g style="fill: #666666" transform="translate(201.668016 146.224537) scale(0.042 -0.042)">
     <use xlink:href="#DejaVuSans-32"/>
     <use xlink:href="#DejaVuSans-2192" transform="translate(63.623047 0)"/>
     <use xlink:href="#DejaVuSans-32" transform="translate(147.412109 0)"/>
    </g>
   </g>
   <g id="text_20">
    <!-- W_V -->
    <g style="fill: #34495e" transform="translate(256.076656 139.023813) scale(0.049 -0.049)">
     <defs>
      <path id="DejaVuSans-Bold-56" d="M 31 4666 
L 1241 4666 
L 2478 1222 
L 3713 4666 
L 4922 4666 
L 3194 0 
L 1759 0 
L 31 4666 
z
" transform="scale(0.015625)"/>
     </defs>
     <use xlink:href="#DejaVuSans-Bold-57"/>
     <use xlink:href="#DejaVuSans-Bold-5f" transform="translate(110.302734 0)"/>
     <use xlink:href="#DejaVuSans-Bold-56" transform="translate(160.302734 0)"/>
    </g>
   </g>
   <g id="text_21">
    <!-- 2→2 -->
    <g style="fill: #666666" transform="translate(257.468016 146.224537) scale(0.042 -0.042)">
     <use xlink:href="#DejaVuSans-32"/>
     <use xlink:href="#DejaVuSans-2192" transform="translate(63.623047 0)"/>
     <use xlink:href="#DejaVuSans-32" transform="translate(147.412109 0)"/>
    </g>
   </g>
   <g id="text_22">
    <!-- QKᵀ/√dₖ -->
    <g style="fill: #34495e" transform="translate(136.069117 166.866444) scale(0.049 -0.049)">
     <defs>
      <path id="DejaVuSans-Bold-1d40" d="M 19 4700 
L 2728 4700 
L 2728 4191 
L 1753 4191 
L 1753 2088 
L 997 2088 
L 997 4191 
L 19 4191 
L 19 4700 
z
" transform="scale(0.015625)"/>
      <path id="DejaVuSans-Bold-2f" d="M 1644 4666 
L 2338 4666 
L 691 -594 
L 0 -594 
L 1644 4666 
z
" transform="scale(0.015625)"/>
      <path id="DejaVuSans-Bold-221a" d="M 3609 5356 
L 4281 5356 
L 4281 4891 
L 3981 4891 
L 2138 -128 
L 1766 -128 
L 806 2516 
L 353 2344 
L 238 2747 
L 1363 3144 
L 2059 1159 
L 3609 5356 
z
" transform="scale(0.015625)"/>
      <path id="DejaVuSans-Bold-64" d="M 2919 2988 
L 2919 4863 
L 4044 4863 
L 4044 0 
L 2919 0 
L 2919 506 
Q 2688 197 2409 53 
Q 2131 -91 1766 -91 
Q 1119 -91 703 423 
Q 288 938 288 1747 
Q 288 2556 703 3070 
Q 1119 3584 1766 3584 
Q 2128 3584 2408 3439 
Q 2688 3294 2919 2988 
z
M 2181 722 
Q 2541 722 2730 984 
Q 2919 1247 2919 1747 
Q 2919 2247 2730 2509 
Q 2541 2772 2181 2772 
Q 1825 2772 1636 2509 
Q 1447 2247 1447 1747 
Q 1447 1247 1636 984 
Q 1825 722 2181 722 
z
" transform="scale(0.015625)"/>
      <path id="DejaVuSans-Bold-2096" d="M 341 2697 
L 1047 2697 
L 1047 1216 
L 1856 1935 
L 2675 1935 
L 1600 1035 
L 2759 -24 
L 1906 -24 
L 1047 794 
L 1047 -24 
L 341 -24 
L 341 2697 
z
" transform="scale(0.015625)"/>
     </defs>
     <use xlink:href="#DejaVuSans-Bold-51"/>
     <use xlink:href="#DejaVuSans-Bold-4b" transform="translate(85.009766 0)"/>
     <use xlink:href="#DejaVuSans-Bold-1d40" transform="translate(162.5 0)"/>
     <use xlink:href="#DejaVuSans-Bold-2f" transform="translate(205.46875 0)"/>
     <use xlink:href="#DejaVuSans-Bold-221a" transform="translate(241.992188 0)"/>
     <use xlink:href="#DejaVuSans-Bold-64" transform="translate(308.691406 0)"/>
     <use xlink:href="#DejaVuSans-Bold-2096" transform="translate(380.273438 0)"/>
    </g>
   </g>
   <g id="text_23">
    <!-- Mask -->
    <g style="fill: #34495e" transform="translate(199.433895 164.669236) scale(0.0455 -0.0455)">
     <defs>
      <path id="DejaVuSans-Bold-4d" d="M 588 4666 
L 2119 4666 
L 3181 2169 
L 4250 4666 
L 5778 4666 
L 5778 0 
L 4641 0 
L 4641 3413 
L 3566 897 
L 2803 897 
L 1728 3413 
L 1728 0 
L 588 0 
L 588 4666 
z
" transform="scale(0.015625)"/>
     </defs>
     <use xlink:href="#DejaVuSans-Bold-4d"/>
     <use xlink:href="#DejaVuSans-Bold-61" transform="translate(99.511719 0)"/>
     <use xlink:href="#DejaVuSans-Bold-73" transform="translate(166.992188 0)"/>
     <use xlink:href="#DejaVuSans-Bold-6b" transform="translate(226.513672 0)"/>
    </g>
   </g>
   <g id="text_24">
    <!-- +Softmax -->
    <g style="fill: #34495e" transform="translate(193.542 168.796996) scale(0.0455 -0.0455)">
     <defs>
      <path id="DejaVuSans-Bold-53" d="M 3834 4519 
L 3834 3531 
Q 3450 3703 3084 3790 
Q 2719 3878 2394 3878 
Q 1963 3878 1756 3759 
Q 1550 3641 1550 3391 
Q 1550 3203 1689 3098 
Q 1828 2994 2194 2919 
L 2706 2816 
Q 3484 2659 3812 2340 
Q 4141 2022 4141 1434 
Q 4141 663 3683 286 
Q 3225 -91 2284 -91 
Q 1841 -91 1394 -6 
Q 947 78 500 244 
L 500 1259 
Q 947 1022 1364 901 
Q 1781 781 2169 781 
Q 2563 781 2772 912 
Q 2981 1044 2981 1288 
Q 2981 1506 2839 1625 
Q 2697 1744 2272 1838 
L 1806 1941 
Q 1106 2091 782 2419 
Q 459 2747 459 3303 
Q 459 4000 909 4375 
Q 1359 4750 2203 4750 
Q 2588 4750 2994 4692 
Q 3400 4634 3834 4519 
z
" transform="scale(0.015625)"/>
      <path id="DejaVuSans-Bold-66" d="M 2841 4863 
L 2841 4128 
L 2222 4128 
Q 1984 4128 1890 4042 
Q 1797 3956 1797 3744 
L 1797 3500 
L 2753 3500 
L 2753 2700 
L 1797 2700 
L 1797 0 
L 678 0 
L 678 2700 
L 122 2700 
L 122 3500 
L 678 3500 
L 678 3744 
Q 678 4316 997 4589 
Q 1316 4863 1984 4863 
L 2841 4863 
z
" transform="scale(0.015625)"/>
      <path id="DejaVuSans-Bold-78" d="M 1422 1791 
L 159 3500 
L 1344 3500 
L 2059 2463 
L 2784 3500 
L 3969 3500 
L 2706 1797 
L 4031 0 
L 2847 0 
L 2059 1106 
L 1281 0 
L 97 0 
L 1422 1791 
z
" transform="scale(0.015625)"/>
     </defs>
     <use xlink:href="#DejaVuSans-Bold-2b"/>
     <use xlink:href="#DejaVuSans-Bold-53" transform="translate(83.789062 0)"/>
     <use xlink:href="#DejaVuSans-Bold-6f" transform="translate(155.810547 0)"/>
     <use xlink:href="#DejaVuSans-Bold-66" transform="translate(224.511719 0)"/>
     <use xlink:href="#DejaVuSans-Bold-74" transform="translate(268.017578 0)"/>
     <use xlink:href="#DejaVuSans-Bold-6d" transform="translate(315.820312 0)"/>
     <use xlink:href="#DejaVuSans-Bold-61" transform="translate(420.019531 0)"/>
     <use xlink:href="#DejaVuSans-Bold-78" transform="translate(487.5 0)"/>
    </g>
   </g>
   <g id="text_25">
    <!-- Attn×V -->
    <g style="fill: #34495e" transform="translate(255.688695 166.829694) scale(0.049 -0.049)">
     <defs>
      <path id="DejaVuSans-Bold-41" d="M 3419 850 
L 1538 850 
L 1241 0 
L 31 0 
L 1759 4666 
L 3194 4666 
L 4922 0 
L 3713 0 
L 3419 850 
z
M 1838 1716 
L 3116 1716 
L 2478 3572 
L 1838 1716 
z
" transform="scale(0.015625)"/>
      <path id="DejaVuSans-Bold-d7" d="M 4563 3359 
L 3206 2003 
L 4563 653 
L 4038 128 
L 2681 1478 
L 1325 128 
L 800 653 
L 2156 2003 
L 800 3359 
L 1325 3884 
L 2681 2528 
L 4038 3884 
L 4563 3359 
z
" transform="scale(0.015625)"/>
     </defs>
     <use xlink:href="#DejaVuSans-Bold-41"/>
     <use xlink:href="#DejaVuSans-Bold-74" transform="translate(77.392578 0)"/>
     <use xlink:href="#DejaVuSans-Bold-74" transform="translate(125.195312 0)"/>
     <use xlink:href="#DejaVuSans-Bold-6e" transform="translate(172.998047 0)"/>
     <use xlink:href="#DejaVuSans-Bold-d7" transform="translate(244.189453 0)"/>
     <use xlink:href="#DejaVuSans-Bold-56" transform="translate(327.978516 0)"/>
    </g>
   </g>
   <g id="text_26">
    <!-- + -->
    <g style="fill: #34495e" transform="translate(202.287242 197.699431) scale(0.091 -0.091)">
     <use xlink:href="#DejaVuSans-Bold-2b"/>
    </g>
   </g>
   <g id="text_27">
    <!-- skip -->
    <g style="fill: #27ae60" transform="translate(33.460266 154.855406) scale(0.063 -0.063)">
     <defs>
      <path id="DejaVuSans-Oblique-73" d="M 3200 3397 
L 3091 2853 
Q 2863 2978 2609 3040 
Q 2356 3103 2088 3103 
Q 1634 3103 1373 2948 
Q 1113 2794 1113 2528 
Q 1113 2219 1719 2053 
Q 1766 2041 1788 2034 
L 1972 1978 
Q 2547 1819 2739 1644 
Q 2931 1469 2931 1166 
Q 2931 609 2489 259 
Q 2047 -91 1331 -91 
Q 1053 -91 747 -37 
Q 441 16 72 128 
L 184 722 
Q 500 559 806 475 
Q 1113 391 1394 391 
Q 1816 391 2080 572 
Q 2344 753 2344 1031 
Q 2344 1331 1650 1516 
L 1591 1531 
L 1394 1581 
Q 956 1697 753 1886 
Q 550 2075 550 2369 
Q 550 2928 970 3256 
Q 1391 3584 2113 3584 
Q 2397 3584 2667 3537 
Q 2938 3491 3200 3397 
z
" transform="scale(0.015625)"/>
      <path id="DejaVuSans-Oblique-6b" d="M 1172 4863 
L 1747 4863 
L 1197 2028 
L 3169 3500 
L 3916 3500 
L 1716 1825 
L 3322 0 
L 2625 0 
L 1131 1709 
L 800 0 
L 225 0 
L 1172 4863 
z
" transform="scale(0.015625)"/>
      <path id="DejaVuSans-Oblique-69" d="M 1172 4863 
L 1747 4863 
L 1606 4134 
L 1031 4134 
L 1172 4863 
z
M 909 3500 
L 1484 3500 
L 800 0 
L 225 0 
L 909 3500 
z
" transform="scale(0.015625)"/>
      <path id="DejaVuSans-Oblique-70" d="M 3175 2156 
Q 3175 2616 2975 2859 
Q 2775 3103 2400 3103 
Q 2144 3103 1911 2972 
Q 1678 2841 1497 2591 
Q 1319 2344 1212 1994 
Q 1106 1644 1106 1300 
Q 1106 863 1306 627 
Q 1506 391 1875 391 
Q 2147 391 2380 519 
Q 2613 647 2778 891 
Q 2956 1147 3065 1494 
Q 3175 1841 3175 2156 
z
M 1394 2969 
Q 1625 3272 1939 3428 
Q 2253 3584 2638 3584 
Q 3175 3584 3472 3232 
Q 3769 2881 3769 2247 
Q 3769 1728 3584 1258 
Q 3400 788 3053 416 
Q 2822 169 2531 39 
Q 2241 -91 1919 -91 
Q 1547 -91 1294 64 
Q 1041 219 916 525 
L 556 -1331 
L -19 -1331 
L 922 3500 
L 1497 3500 
L 1394 2969 
z
" transform="scale(0.015625)"/>
     </defs>
     <use xlink:href="#DejaVuSans-Oblique-73"/>
     <use xlink:href="#DejaVuSans-Oblique-6b" transform="translate(52.099609 0)"/>
     <use xlink:href="#DejaVuSans-Oblique-69" transform="translate(110.009766 0)"/>
     <use xlink:href="#DejaVuSans-Oblique-70" transform="translate(137.792969 0)"/>
    </g>
   </g>
   <g id="text_28">
    <!-- Feed-Forward -->
    <g style="fill: #34495e" transform="translate(184.368063 225.12901) scale(0.056 -0.056)">
     <defs>
      <path id="DejaVuSans-Bold-46" d="M 588 4666 
L 3834 4666 
L 3834 3756 
L 1791 3756 
L 1791 2888 
L 3713 2888 
L 3713 1978 
L 1791 1978 
L 1791 0 
L 588 0 
L 588 4666 
z
" transform="scale(0.015625)"/>
      <path id="DejaVuSans-Bold-2d" d="M 347 2297 
L 2309 2297 
L 2309 1388 
L 347 1388 
L 347 2297 
z
" transform="scale(0.015625)"/>
      <path id="DejaVuSans-Bold-72" d="M 3138 2547 
Q 2991 2616 2845 2648 
Q 2700 2681 2553 2681 
Q 2122 2681 1889 2404 
Q 1656 2128 1656 1613 
L 1656 0 
L 538 0 
L 538 3500 
L 1656 3500 
L 1656 2925 
Q 1872 3269 2151 3426 
Q 2431 3584 2822 3584 
Q 2878 3584 2943 3579 
Q 3009 3575 3134 3559 
L 3138 2547 
z
" transform="scale(0.015625)"/>
      <path id="DejaVuSans-Bold-77" d="M 225 3500 
L 1313 3500 
L 1900 1088 
L 2491 3500 
L 3425 3500 
L 4013 1113 
L 4603 3500 
L 5691 3500 
L 4769 0 
L 3547 0 
L 2956 2406 
L 2369 0 
L 1147 0 
L 225 3500 
z
" transform="scale(0.015625)"/>
     </defs>
     <use xlink:href="#DejaVuSans-Bold-46"/>
     <use xlink:href="#DejaVuSans-Bold-65" transform="translate(64.310547 0)"/>
     <use xlink:href="#DejaVuSans-Bold-65" transform="translate(132.132812 0)"/>
     <use xlink:href="#DejaVuSans-Bold-64" transform="translate(199.955078 0)"/>
     <use xlink:href="#DejaVuSans-Bold-2d" transform="translate(271.537109 0)"/>
     <use xlink:href="#DejaVuSans-Bold-46" transform="translate(313.041016 0)"/>
     <use xlink:href="#DejaVuSans-Bold-6f" transform="translate(377.351562 0)"/>
     <use xlink:href="#DejaVuSans-Bold-72" transform="translate(446.052734 0)"/>
     <use xlink:href="#DejaVuSans-Bold-77" transform="translate(495.369141 0)"/>
     <use xlink:href="#DejaVuSans-Bold-61" transform="translate(587.751953 0)"/>
     <use xlink:href="#DejaVuSans-Bold-72" transform="translate(655.232422 0)"/>
     <use xlink:href="#DejaVuSans-Bold-64" transform="translate(704.548828 0)"/>
    </g>
   </g>
   <g id="text_29">
    <!-- Linear(2,32) -->
    <g style="fill: #666666" transform="translate(193.258828 232.000297) scale(0.042 -0.042)">
     <defs>
      <path id="DejaVuSans-4c" d="M 628 4666 
L 1259 4666 
L 1259 531 
L 3531 531 
L 3531 0 
L 628 0 
L 628 4666 
z
" transform="scale(0.015625)"/>
      <path id="DejaVuSans-69" d="M 603 3500 
L 1178 3500 
L 1178 0 
L 603 0 
L 603 3500 
z
M 603 4863 
L 1178 4863 
L 1178 4134 
L 603 4134 
L 603 4863 
z
" transform="scale(0.015625)"/>
      <path id="DejaVuSans-6e" d="M 3513 2113 
L 3513 0 
L 2938 0 
L 2938 2094 
Q 2938 2591 2744 2837 
Q 2550 3084 2163 3084 
Q 1697 3084 1428 2787 
Q 1159 2491 1159 1978 
L 1159 0 
L 581 0 
L 581 3500 
L 1159 3500 
L 1159 2956 
Q 1366 3272 1645 3428 
Q 1925 3584 2291 3584 
Q 2894 3584 3203 3211 
Q 3513 2838 3513 2113 
z
" transform="scale(0.015625)"/>
      <path id="DejaVuSans-65" d="M 3597 1894 
L 3597 1613 
L 953 1613 
Q 991 1019 1311 708 
Q 1631 397 2203 397 
Q 2534 397 2845 478 
Q 3156 559 3463 722 
L 3463 178 
Q 3153 47 2828 -22 
Q 2503 -91 2169 -91 
Q 1331 -91 842 396 
Q 353 884 353 1716 
Q 353 2575 817 3079 
Q 1281 3584 2069 3584 
Q 2775 3584 3186 3129 
Q 3597 2675 3597 1894 
z
M 3022 2063 
Q 3016 2534 2758 2815 
Q 2500 3097 2075 3097 
Q 1594 3097 1305 2825 
Q 1016 2553 972 2059 
L 3022 2063 
z
" transform="scale(0.015625)"/>
      <path id="DejaVuSans-72" d="M 2631 2963 
Q 2534 3019 2420 3045 
Q 2306 3072 2169 3072 
Q 1681 3072 1420 2755 
Q 1159 2438 1159 1844 
L 1159 0 
L 581 0 
L 581 3500 
L 1159 3500 
L 1159 2956 
Q 1341 3275 1631 3429 
Q 1922 3584 2338 3584 
Q 2397 3584 2469 3576 
Q 2541 3569 2628 3553 
L 2631 2963 
z
" transform="scale(0.015625)"/>
      <path id="DejaVuSans-33" d="M 2597 2516 
Q 3050 2419 3304 2112 
Q 3559 1806 3559 1356 
Q 3559 666 3084 287 
Q 2609 -91 1734 -91 
Q 1441 -91 1130 -33 
Q 819 25 488 141 
L 488 750 
Q 750 597 1062 519 
Q 1375 441 1716 441 
Q 2309 441 2620 675 
Q 2931 909 2931 1356 
Q 2931 1769 2642 2001 
Q 2353 2234 1838 2234 
L 1294 2234 
L 1294 2753 
L 1863 2753 
Q 2328 2753 2575 2939 
Q 2822 3125 2822 3475 
Q 2822 3834 2567 4026 
Q 2313 4219 1838 4219 
Q 1578 4219 1281 4162 
Q 984 4106 628 3988 
L 628 4550 
Q 988 4650 1302 4700 
Q 1616 4750 1894 4750 
Q 2613 4750 3031 4423 
Q 3450 4097 3450 3541 
Q 3450 3153 3228 2886 
Q 3006 2619 2597 2516 
z
" transform="scale(0.015625)"/>
     </defs>
     <use xlink:href="#DejaVuSans-4c"/>
     <use xlink:href="#DejaVuSans-69" transform="translate(55.712891 0)"/>
     <use xlink:href="#DejaVuSans-6e" transform="translate(83.496094 0)"/>
     <use xlink:href="#DejaVuSans-65" transform="translate(146.875 0)"/>
     <use xlink:href="#DejaVuSans-61" transform="translate(208.398438 0)"/>
     <use xlink:href="#DejaVuSans-72" transform="translate(269.677734 0)"/>
     <use xlink:href="#DejaVuSans-28" transform="translate(310.791016 0)"/>
     <use xlink:href="#DejaVuSans-32" transform="translate(349.804688 0)"/>
     <use xlink:href="#DejaVuSans-2c" transform="translate(413.427734 0)"/>
     <use xlink:href="#DejaVuSans-33" transform="translate(445.214844 0)"/>
     <use xlink:href="#DejaVuSans-32" transform="translate(508.837891 0)"/>
     <use xlink:href="#DejaVuSans-29" transform="translate(572.460938 0)"/>
    </g>
   </g>
   <g id="text_30">
    <!-- ReLU→Linear(32,2) -->
    <g style="fill: #666666" transform="translate(186.240234 235.538378) scale(0.042 -0.042)">
     <defs>
      <path id="DejaVuSans-52" d="M 2841 2188 
Q 3044 2119 3236 1894 
Q 3428 1669 3622 1275 
L 4263 0 
L 3584 0 
L 2988 1197 
Q 2756 1666 2539 1819 
Q 2322 1972 1947 1972 
L 1259 1972 
L 1259 0 
L 628 0 
L 628 4666 
L 2053 4666 
Q 2853 4666 3247 4331 
Q 3641 3997 3641 3322 
Q 3641 2881 3436 2590 
Q 3231 2300 2841 2188 
z
M 1259 4147 
L 1259 2491 
L 2053 2491 
Q 2509 2491 2742 2702 
Q 2975 2913 2975 3322 
Q 2975 3731 2742 3939 
Q 2509 4147 2053 4147 
L 1259 4147 
z
" transform="scale(0.015625)"/>
      <path id="DejaVuSans-55" d="M 556 4666 
L 1191 4666 
L 1191 1831 
Q 1191 1081 1462 751 
Q 1734 422 2344 422 
Q 2950 422 3222 751 
Q 3494 1081 3494 1831 
L 3494 4666 
L 4128 4666 
L 4128 1753 
Q 4128 841 3676 375 
Q 3225 -91 2344 -91 
Q 1459 -91 1007 375 
Q 556 841 556 1753 
L 556 4666 
z
" transform="scale(0.015625)"/>
     </defs>
     <use xlink:href="#DejaVuSans-52"/>
     <use xlink:href="#DejaVuSans-65" transform="translate(64.982422 0)"/>
     <use xlink:href="#DejaVuSans-4c" transform="translate(126.505859 0)"/>
     <use xlink:href="#DejaVuSans-55" transform="translate(177.21875 0)"/>
     <use xlink:href="#DejaVuSans-2192" transform="translate(250.412109 0)"/>
     <use xlink:href="#DejaVuSans-4c" transform="translate(334.201172 0)"/>
     <use xlink:href="#DejaVuSans-69" transform="translate(389.914062 0)"/>
     <use xlink:href="#DejaVuSans-6e" transform="translate(417.697266 0)"/>
     <use xlink:href="#DejaVuSans-65" transform="translate(481.076172 0)"/>
     <use xlink:href="#DejaVuSans-61" transform="translate(542.599609 0)"/>
     <use xlink:href="#DejaVuSans-72" transform="translate(603.878906 0)"/>
     <use xlink:href="#DejaVuSans-28" transform="translate(644.992188 0)"/>
     <use xlink:href="#DejaVuSans-33" transform="translate(684.005859 0)"/>
     <use xlink:href="#DejaVuSans-32" transform="translate(747.628906 0)"/>
     <use xlink:href="#DejaVuSans-2c" transform="translate(811.251953 0)"/>
     <use xlink:href="#DejaVuSans-32" transform="translate(843.039062 0)"/>
     <use xlink:href="#DejaVuSans-29" transform="translate(906.662109 0)"/>
    </g>
   </g>
   <g id="text_31">
    <!-- + -->
    <g style="fill: #34495e" transform="translate(202.287242 265.285831) scale(0.091 -0.091)">
     <use xlink:href="#DejaVuSans-Bold-2b"/>
    </g>
   </g>
   <g id="text_32">
    <!-- skip -->
    <g style="fill: #27ae60" transform="translate(33.460266 230.720006) scale(0.063 -0.063)">
     <use xlink:href="#DejaVuSans-Oblique-73"/>
     <use xlink:href="#DejaVuSans-Oblique-6b" transform="translate(52.099609 0)"/>
     <use xlink:href="#DejaVuSans-Oblique-69" transform="translate(110.009766 0)"/>
     <use xlink:href="#DejaVuSans-Oblique-70" transform="translate(137.792969 0)"/>
    </g>
   </g>
   <g id="text_33">
    <!-- LM Head -->
    <g style="fill: #34495e" transform="translate(192.4185 294.48445) scale(0.056 -0.056)">
     <defs>
      <path id="DejaVuSans-Bold-4c" d="M 588 4666 
L 1791 4666 
L 1791 909 
L 3903 909 
L 3903 0 
L 588 0 
L 588 4666 
z
" transform="scale(0.015625)"/>
      <path id="DejaVuSans-Bold-48" d="M 588 4666 
L 1791 4666 
L 1791 2888 
L 3566 2888 
L 3566 4666 
L 4769 4666 
L 4769 0 
L 3566 0 
L 3566 1978 
L 1791 1978 
L 1791 0 
L 588 0 
L 588 4666 
z
" transform="scale(0.015625)"/>
     </defs>
     <use xlink:href="#DejaVuSans-Bold-4c"/>
     <use xlink:href="#DejaVuSans-Bold-4d" transform="translate(63.720703 0)"/>
     <use xlink:href="#DejaVuSans-Bold-20" transform="translate(163.232422 0)"/>
     <use xlink:href="#DejaVuSans-Bold-48" transform="translate(198.046875 0)"/>
     <use xlink:href="#DejaVuSans-Bold-65" transform="translate(281.738281 0)"/>
     <use xlink:href="#DejaVuSans-Bold-61" transform="translate(349.560547 0)"/>
     <use xlink:href="#DejaVuSans-Bold-64" transform="translate(417.041016 0)"/>
    </g>
   </g>
   <g id="text_34">
    <!-- Linear(2,12) -->
    <g style="fill: #666666" transform="translate(193.258828 301.355738) scale(0.042 -0.042)">
     <use xlink:href="#DejaVuSans-4c"/>
     <use xlink:href="#DejaVuSans-69" transform="translate(55.712891 0)"/>
     <use xlink:href="#DejaVuSans-6e" transform="translate(83.496094 0)"/>
     <use xlink:href="#DejaVuSans-65" transform="translate(146.875 0)"/>
     <use xlink:href="#DejaVuSans-61" transform="translate(208.398438 0)"/>
     <use xlink:href="#DejaVuSans-72" transform="translate(269.677734 0)"/>
     <use xlink:href="#DejaVuSans-28" transform="translate(310.791016 0)"/>
     <use xlink:href="#DejaVuSans-32" transform="translate(349.804688 0)"/>
     <use xlink:href="#DejaVuSans-2c" transform="translate(413.427734 0)"/>
     <use xlink:href="#DejaVuSans-31" transform="translate(445.214844 0)"/>
     <use xlink:href="#DejaVuSans-32" transform="translate(508.837891 0)"/>
     <use xlink:href="#DejaVuSans-29" transform="translate(572.460938 0)"/>
    </g>
   </g>
   <g id="text_35">
    <!-- Softmax -->
    <g style="fill: #34495e" transform="translate(159.510313 334.62805) scale(0.056 -0.056)">
     <use xlink:href="#DejaVuSans-Bold-53"/>
     <use xlink:href="#DejaVuSans-Bold-6f" transform="translate(72.021484 0)"/>
     <use xlink:href="#DejaVuSans-Bold-66" transform="translate(140.722656 0)"/>
     <use xlink:href="#DejaVuSans-Bold-74" transform="translate(184.228516 0)"/>
     <use xlink:href="#DejaVuSans-Bold-6d" transform="translate(232.03125 0)"/>
     <use xlink:href="#DejaVuSans-Bold-61" transform="translate(336.230469 0)"/>
     <use xlink:href="#DejaVuSans-Bold-78" transform="translate(403.710938 0)"/>
    </g>
   </g>
   <g id="text_36">
    <!-- P(next) -->
    <g style="fill: #34495e" transform="translate(227.931563 330.99925) scale(0.056 -0.056)">
     <defs>
      <path id="DejaVuSans-Bold-28" d="M 2413 -844 
L 1484 -844 
Q 1006 -72 778 623 
Q 550 1319 550 2003 
Q 550 2688 779 3389 
Q 1009 4091 1484 4856 
L 2413 4856 
Q 2013 4116 1813 3408 
Q 1613 2700 1613 2009 
Q 1613 1319 1811 609 
Q 2009 -100 2413 -844 
z
" transform="scale(0.015625)"/>
      <path id="DejaVuSans-Bold-29" d="M 513 -844 
Q 913 -100 1113 609 
Q 1313 1319 1313 2009 
Q 1313 2700 1113 3408 
Q 913 4116 513 4856 
L 1441 4856 
Q 1916 4091 2145 3389 
Q 2375 2688 2375 2003 
Q 2375 1319 2147 623 
Q 1919 -72 1441 -844 
L 513 -844 
z
" transform="scale(0.015625)"/>
     </defs>
     <use xlink:href="#DejaVuSans-Bold-50"/>
     <use xlink:href="#DejaVuSans-Bold-28" transform="translate(73.291016 0)"/>
     <use xlink:href="#DejaVuSans-Bold-6e" transform="translate(118.994141 0)"/>
     <use xlink:href="#DejaVuSans-Bold-65" transform="translate(190.185547 0)"/>
     <use xlink:href="#DejaVuSans-Bold-78" transform="translate(258.007812 0)"/>
     <use xlink:href="#DejaVuSans-Bold-74" transform="translate(322.509766 0)"/>
     <use xlink:href="#DejaVuSans-Bold-29" transform="translate(370.3125 0)"/>
    </g>
   </g>
   <g id="text_37">
    <!-- (8,8,12) -->
    <g style="fill: #666666" transform="translate(231.262031 337.870538) scale(0.042 -0.042)">
     <use xlink:href="#DejaVuSans-28"/>
     <use xlink:href="#DejaVuSans-38" transform="translate(39.013672 0)"/>
     <use xlink:href="#DejaVuSans-2c" transform="translate(102.636719 0)"/>
     <use xlink:href="#DejaVuSans-38" transform="translate(134.423828 0)"/>
     <use xlink:href="#DejaVuSans-2c" transform="translate(198.046875 0)"/>
     <use xlink:href="#DejaVuSans-31" transform="translate(229.833984 0)"/>
     <use xlink:href="#DejaVuSans-32" transform="translate(293.457031 0)"/>
     <use xlink:href="#DejaVuSans-29" transform="translate(357.080078 0)"/>
    </g>
   </g>
   <g id="text_38">
    <!-- Embedding -->
    <g style="fill: #34495e" transform="translate(46.14 495.42925) scale(0.056 -0.056)">
     <defs>
      <path id="DejaVuSans-45" d="M 628 4666 
L 3578 4666 
L 3578 4134 
L 1259 4134 
L 1259 2753 
L 3481 2753 
L 3481 2222 
L 1259 2222 
L 1259 531 
L 3634 531 
L 3634 0 
L 628 0 
L 628 4666 
z
" transform="scale(0.015625)"/>
      <path id="DejaVuSans-6d" d="M 3328 2828 
Q 3544 3216 3844 3400 
Q 4144 3584 4550 3584 
Q 5097 3584 5394 3201 
Q 5691 2819 5691 2113 
L 5691 0 
L 5113 0 
L 5113 2094 
Q 5113 2597 4934 2840 
Q 4756 3084 4391 3084 
Q 3944 3084 3684 2787 
Q 3425 2491 3425 1978 
L 3425 0 
L 2847 0 
L 2847 2094 
Q 2847 2600 2669 2842 
Q 2491 3084 2119 3084 
Q 1678 3084 1418 2786 
Q 1159 2488 1159 1978 
L 1159 0 
L 581 0 
L 581 3500 
L 1159 3500 
L 1159 2956 
Q 1356 3278 1631 3431 
Q 1906 3584 2284 3584 
Q 2666 3584 2933 3390 
Q 3200 3197 3328 2828 
z
" transform="scale(0.015625)"/>
      <path id="DejaVuSans-67" d="M 2906 1791 
Q 2906 2416 2648 2759 
Q 2391 3103 1925 3103 
Q 1463 3103 1205 2759 
Q 947 2416 947 1791 
Q 947 1169 1205 825 
Q 1463 481 1925 481 
Q 2391 481 2648 825 
Q 2906 1169 2906 1791 
z
M 3481 434 
Q 3481 -459 3084 -895 
Q 2688 -1331 1869 -1331 
Q 1566 -1331 1297 -1286 
Q 1028 -1241 775 -1147 
L 775 -588 
Q 1028 -725 1275 -790 
Q 1522 -856 1778 -856 
Q 2344 -856 2625 -561 
Q 2906 -266 2906 331 
L 2906 616 
Q 2728 306 2450 153 
Q 2172 0 1784 0 
Q 1141 0 747 490 
Q 353 981 353 1791 
Q 353 2603 747 3093 
Q 1141 3584 1784 3584 
Q 2172 3584 2450 3431 
Q 2728 3278 2906 2969 
L 2906 3500 
L 3481 3500 
L 3481 434 
z
" transform="scale(0.015625)"/>
     </defs>
     <use xlink:href="#DejaVuSans-45"/>
     <use xlink:href="#DejaVuSans-6d" transform="translate(63.183594 0)"/>
     <use xlink:href="#DejaVuSans-62" transform="translate(160.595703 0)"/>
     <use xlink:href="#DejaVuSans-65" transform="translate(224.072266 0)"/>
     <use xlink:href="#DejaVuSans-64" transform="translate(285.595703 0)"/>
     <use xlink:href="#DejaVuSans-64" transform="translate(349.072266 0)"/>
     <use xlink:href="#DejaVuSans-69" transform="translate(412.548828 0)"/>
     <use xlink:href="#DejaVuSans-6e" transform="translate(440.332031 0)"/>
     <use xlink:href="#DejaVuSans-67" transform="translate(503.710938 0)"/>
    </g>
   </g>
   <g id="text_39">
    <!-- Attention -->
    <g style="fill: #34495e" transform="translate(134.49 495.42925) scale(0.056 -0.056)">
     <defs>
      <path id="DejaVuSans-41" d="M 2188 4044 
L 1331 1722 
L 3047 1722 
L 2188 4044 
z
M 1831 4666 
L 2547 4666 
L 4325 0 
L 3669 0 
L 3244 1197 
L 1141 1197 
L 716 0 
L 50 0 
L 1831 4666 
z
" transform="scale(0.015625)"/>
      <path id="DejaVuSans-74" d="M 1172 4494 
L 1172 3500 
L 2356 3500 
L 2356 3053 
L 1172 3053 
L 1172 1153 
Q 1172 725 1289 603 
Q 1406 481 1766 481 
L 2356 481 
L 2356 0 
L 1766 0 
Q 1100 0 847 248 
Q 594 497 594 1153 
L 594 3053 
L 172 3053 
L 172 3500 
L 594 3500 
L 594 4494 
L 1172 4494 
z
" transform="scale(0.015625)"/>
     </defs>
     <use xlink:href="#DejaVuSans-41"/>
     <use xlink:href="#DejaVuSans-74" transform="translate(66.658203 0)"/>
     <use xlink:href="#DejaVuSans-74" transform="translate(105.867188 0)"/>
     <use xlink:href="#DejaVuSans-65" transform="translate(145.076172 0)"/>
     <use xlink:href="#DejaVuSans-6e" transform="translate(206.599609 0)"/>
     <use xlink:href="#DejaVuSans-74" transform="translate(269.978516 0)"/>
     <use xlink:href="#DejaVuSans-69" transform="translate(309.1875 0)"/>
     <use xlink:href="#DejaVuSans-6f" transform="translate(336.970703 0)"/>
     <use xlink:href="#DejaVuSans-6e" transform="translate(398.152344 0)"/>
    </g>
   </g>
   <g id="text_40">
    <!-- Feed-Forward -->
    <g style="fill: #34495e" transform="translate(222.84 495.42925) scale(0.056 -0.056)">
     <defs>
      <path id="DejaVuSans-46" d="M 628 4666 
L 3309 4666 
L 3309 4134 
L 1259 4134 
L 1259 2759 
L 3109 2759 
L 3109 2228 
L 1259 2228 
L 1259 0 
L 628 0 
L 628 4666 
z
" transform="scale(0.015625)"/>
      <path id="DejaVuSans-2d" d="M 313 2009 
L 1997 2009 
L 1997 1497 
L 313 1497 
L 313 2009 
z
" transform="scale(0.015625)"/>
      <path id="DejaVuSans-77" d="M 269 3500 
L 844 3500 
L 1563 769 
L 2278 3500 
L 2956 3500 
L 3675 769 
L 4391 3500 
L 4966 3500 
L 4050 0 
L 3372 0 
L 2619 2869 
L 1863 0 
L 1184 0 
L 269 3500 
z
" transform="scale(0.015625)"/>
     </defs>
     <use xlink:href="#DejaVuSans-46"/>
     <use xlink:href="#DejaVuSans-65" transform="translate(52.019531 0)"/>
     <use xlink:href="#DejaVuSans-65" transform="translate(113.542969 0)"/>
     <use xlink:href="#DejaVuSans-64" transform="translate(175.066406 0)"/>
     <use xlink:href="#DejaVuSans-2d" transform="translate(238.542969 0)"/>
     <use xlink:href="#DejaVuSans-46" transform="translate(274.626953 0)"/>
     <use xlink:href="#DejaVuSans-6f" transform="translate(328.521484 0)"/>
     <use xlink:href="#DejaVuSans-72" transform="translate(389.703125 0)"/>
     <use xlink:href="#DejaVuSans-77" transform="translate(430.816406 0)"/>
     <use xlink:href="#DejaVuSans-61" transform="translate(512.603516 0)"/>
     <use xlink:href="#DejaVuSans-72" transform="translate(573.882812 0)"/>
     <use xlink:href="#DejaVuSans-64" transform="translate(613.246094 0)"/>
    </g>
   </g>
   <g id="text_41">
    <!-- Output -->
    <g style="fill: #34495e" transform="translate(311.19 495.42925) scale(0.056 -0.056)">
     <defs>
      <path id="DejaVuSans-4f" d="M 2522 4238 
Q 1834 4238 1429 3725 
Q 1025 3213 1025 2328 
Q 1025 1447 1429 934 
Q 1834 422 2522 422 
Q 3209 422 3611 934 
Q 4013 1447 4013 2328 
Q 4013 3213 3611 3725 
Q 3209 4238 2522 4238 
z
M 2522 4750 
Q 3503 4750 4090 4092 
Q 4678 3434 4678 2328 
Q 4678 1225 4090 567 
Q 3503 -91 2522 -91 
Q 1538 -91 948 565 
Q 359 1222 359 2328 
Q 359 3434 948 4092 
Q 1538 4750 2522 4750 
z
" transform="scale(0.015625)"/>
      <path id="DejaVuSans-75" d="M 544 1381 
L 544 3500 
L 1119 3500 
L 1119 1403 
Q 1119 906 1312 657 
Q 1506 409 1894 409 
Q 2359 409 2629 706 
Q 2900 1003 2900 1516 
L 2900 3500 
L 3475 3500 
L 3475 0 
L 2900 0 
L 2900 538 
Q 2691 219 2414 64 
Q 2138 -91 1772 -91 
Q 1169 -91 856 284 
Q 544 659 544 1381 
z
M 1991 3584 
L 1991 3584 
z
" transform="scale(0.015625)"/>
      <path id="DejaVuSans-70" d="M 1159 525 
L 1159 -1331 
L 581 -1331 
L 581 3500 
L 1159 3500 
L 1159 2969 
Q 1341 3281 1617 3432 
Q 1894 3584 2278 3584 
Q 2916 3584 3314 3078 
Q 3713 2572 3713 1747 
Q 3713 922 3314 415 
Q 2916 -91 2278 -91 
Q 1894 -91 1617 61 
Q 1341 213 1159 525 
z
M 3116 1747 
Q 3116 2381 2855 2742 
Q 2594 3103 2138 3103 
Q 1681 3103 1420 2742 
Q 1159 2381 1159 1747 
Q 1159 1113 1420 752 
Q 1681 391 2138 391 
Q 2594 391 2855 752 
Q 3116 1113 3116 1747 
z
" transform="scale(0.015625)"/>
     </defs>
     <use xlink:href="#DejaVuSans-4f"/>
     <use xlink:href="#DejaVuSans-75" transform="translate(78.710938 0)"/>
     <use xlink:href="#DejaVuSans-74" transform="translate(142.089844 0)"/>
     <use xlink:href="#DejaVuSans-70" transform="translate(181.298828 0)"/>
     <use xlink:href="#DejaVuSans-75" transform="translate(244.775391 0)"/>
     <use xlink:href="#DejaVuSans-74" transform="translate(308.154297 0)"/>
    </g>
   </g>
   <g id="patch_22">
    <path d="M 204.21264 55.915592 
Q 182.849819 63.417664 163.385779 70.252932 
" style="fill: none; stroke: #34495e; stroke-width: 1.8; stroke-linecap: round"/>
    <path d="M 166.491486 70.646105 
L 163.385779 70.252932 
L 165.563742 68.004271 
" style="fill: none; stroke: #34495e; stroke-width: 1.8; stroke-linecap: round"/>
   </g>
   <g id="patch_23">
    <path d="M 207.98736 55.915592 
Q 229.350181 63.417664 248.814221 70.252932 
" style="fill: none; stroke: #34495e; stroke-width: 1.8; stroke-linecap: round"/>
    <path d="M 246.636258 68.004271 
L 248.814221 70.252932 
L 245.708514 70.646105 
" style="fill: none; stroke: #34495e; stroke-width: 1.8; stroke-linecap: round"/>
   </g>
   <g id="patch_24">
    <path d="M 161.515627 93.02134 
Q 180.058417 98.571126 196.673245 103.543881 
" style="fill: none; stroke: #34495e; stroke-width: 1.8; stroke-linecap: round"/>
    <path d="M 194.392233 101.399823 
L 196.673245 103.543881 
L 193.589391 104.082255 
" style="fill: none; stroke: #34495e; stroke-width: 1.8; stroke-linecap: round"/>
   </g>
   <g id="patch_25">
    <path d="M 250.684373 93.02134 
Q 232.141583 98.571126 215.526755 103.543881 
" style="fill: none; stroke: #34495e; stroke-width: 1.8; stroke-linecap: round"/>
    <path d="M 218.610609 104.082255 
L 215.526755 103.543881 
L 217.807767 101.399823 
" style="fill: none; stroke: #34495e; stroke-width: 1.8; stroke-linecap: round"/>
   </g>
   <g id="line2d_5">
    <path d="M 206.1 117.396 
L 206.1 129.1896 
" clip-path="url(#p45a05457f9)" style="fill: none; stroke: #34495e; stroke-width: 1.8; stroke-linecap: round"/>
   </g>
   <g id="line2d_6">
    <path d="M 206.1 129.1896 
L 150.3 129.1896 
" clip-path="url(#p45a05457f9)" style="fill: none; stroke: #34495e; stroke-width: 1.8; stroke-linecap: round"/>
   </g>
   <g id="patch_26">
    <path d="M 150.3 131.187389 
Q 150.3 131.45757 150.3 129.715289 
" style="fill: none; stroke: #34495e; stroke-width: 1.8; stroke-linecap: round"/>
    <path d="M 151.7 126.915289 
L 150.3 129.715289 
L 148.9 126.915289 
" style="fill: none; stroke: #34495e; stroke-width: 1.8; stroke-linecap: round"/>
   </g>
   <g id="line2d_7">
    <path d="M 206.1 129.1896 
L 206.1 129.1896 
" clip-path="url(#p45a05457f9)" style="fill: none; stroke: #34495e; stroke-width: 1.8; stroke-linecap: round"/>
   </g>
   <g id="patch_27">
    <path d="M 206.1 131.187389 
Q 206.1 131.45757 206.1 129.715289 
" style="fill: none; stroke: #34495e; stroke-width: 1.8; stroke-linecap: round"/>
    <path d="M 207.5 126.915289 
L 206.1 129.715289 
L 204.7 126.915289 
" style="fill: none; stroke: #34495e; stroke-width: 1.8; stroke-linecap: round"/>
   </g>
   <g id="line2d_8">
    <path d="M 206.1 129.1896 
L 261.9 129.1896 
" clip-path="url(#p45a05457f9)" style="fill: none; stroke: #34495e; stroke-width: 1.8; stroke-linecap: round"/>
   </g>
   <g id="patch_28">
    <path d="M 261.9 131.187389 
Q 261.9 131.45757 261.9 129.715289 
" style="fill: none; stroke: #34495e; stroke-width: 1.8; stroke-linecap: round"/>
    <path d="M 263.3 126.915289 
L 261.9 129.715289 
L 260.5 126.915289 
" style="fill: none; stroke: #34495e; stroke-width: 1.8; stroke-linecap: round"/>
   </g>
   <g id="patch_29">
    <path d="M 149.386348 150.930506 
Q 148.438794 152.779152 148.4092 152.836891 
" style="fill: none; stroke: #34495e; stroke-width: 1.8; stroke-linecap: round"/>
    <path d="M 150.932257 150.983737 
L 148.4092 152.836891 
L 148.440511 149.706552 
" style="fill: none; stroke: #34495e; stroke-width: 1.8; stroke-linecap: round"/>
   </g>
   <g id="patch_30">
    <path d="M 204.119663 149.42397 
Q 180.059043 152.776933 157.991623 155.852135 
" style="fill: none; stroke: #34495e; stroke-width: 1.8; stroke-linecap: round"/>
    <path d="M 160.958055 156.852277 
L 157.991623 155.852135 
L 160.571596 154.079075 
" style="fill: none; stroke: #34495e; stroke-width: 1.8; stroke-linecap: round"/>
   </g>
   <g id="patch_31">
    <path d="M 262.813652 150.930506 
Q 263.761206 152.779152 263.7908 152.836891 
" style="fill: none; stroke: #34495e; stroke-width: 1.8; stroke-linecap: round"/>
    <path d="M 263.759489 149.706552 
L 263.7908 152.836891 
L 261.267743 150.983737 
" style="fill: none; stroke: #34495e; stroke-width: 1.8; stroke-linecap: round"/>
   </g>
   <g id="patch_32">
    <path d="M 175.552588 165.4776 
Q 176.340387 165.4776 175.115725 165.4776 
" style="fill: none; stroke: #34495e; stroke-width: 1.8; stroke-linecap: round"/>
    <path d="M 172.315725 164.0776 
L 175.115725 165.4776 
L 172.315725 166.8776 
" style="fill: none; stroke: #34495e; stroke-width: 1.8; stroke-linecap: round"/>
   </g>
   <g id="patch_33">
    <path d="M 235.072588 165.4776 
Q 235.860387 165.4776 234.635725 165.4776 
" style="fill: none; stroke: #34495e; stroke-width: 1.8; stroke-linecap: round"/>
    <path d="M 231.835725 164.0776 
L 234.635725 165.4776 
L 231.835725 166.8776 
" style="fill: none; stroke: #34495e; stroke-width: 1.8; stroke-linecap: round"/>
   </g>
   <g id="patch_34">
    <path d="M 263.676445 175.016171 
Q 235.859895 181.693825 210.00021 187.901714 
" style="fill: none; stroke: #34495e; stroke-width: 1.8; stroke-linecap: round"/>
    <path d="M 213.049657 188.609437 
L 210.00021 187.901714 
L 212.396058 185.88679 
" style="fill: none; stroke: #34495e; stroke-width: 1.8; stroke-linecap: round"/>
   </g>
   <g id="patch_35">
    <path d="M 51.857422 195.1884 
Q 121.466689 195.1884 189.063495 195.1884 
" style="fill: none; stroke: #27ae60; stroke-width: 1.8; stroke-linecap: round"/>
    <path d="M 186.263495 193.7884 
L 189.063495 195.1884 
L 186.263495 196.5884 
" style="fill: none; stroke: #27ae60; stroke-width: 1.8; stroke-linecap: round"/>
   </g>
   <g id="patch_36">
    <path d="M 206.1 203.537641 
Q 206.1 208.681794 206.1 211.813485 
" style="fill: none; stroke: #34495e; stroke-width: 1.8; stroke-linecap: round"/>
    <path d="M 207.5 209.013485 
L 206.1 211.813485 
L 204.7 209.013485 
" style="fill: none; stroke: #34495e; stroke-width: 1.8; stroke-linecap: round"/>
   </g>
   <g id="patch_37">
    <path d="M 206.1 244.134841 
Q 206.1 249.278994 206.1 252.410685 
" style="fill: none; stroke: #34495e; stroke-width: 1.8; stroke-linecap: round"/>
    <path d="M 207.5 249.610685 
L 206.1 252.410685 
L 204.7 249.610685 
" style="fill: none; stroke: #34495e; stroke-width: 1.8; stroke-linecap: round"/>
   </g>
   <g id="patch_38">
    <path d="M 51.857422 262.7748 
Q 121.466689 262.7748 189.063495 262.7748 
" style="fill: none; stroke: #27ae60; stroke-width: 1.8; stroke-linecap: round"/>
    <path d="M 186.263495 261.3748 
L 189.063495 262.7748 
L 186.263495 264.1748 
" style="fill: none; stroke: #27ae60; stroke-width: 1.8; stroke-linecap: round"/>
   </g>
   <g id="patch_39">
    <path d="M 206.1 271.124041 
Q 206.1 276.268194 206.1 279.399885 
" style="fill: none; stroke: #34495e; stroke-width: 1.8; stroke-linecap: round"/>
    <path d="M 207.5 276.599885 
L 206.1 279.399885 
L 204.7 276.599885 
" style="fill: none; stroke: #34495e; stroke-width: 1.8; stroke-linecap: round"/>
   </g>
   <g id="patch_40">
    <path d="M 204.183237 310.306703 
Q 189.359073 314.825683 176.459914 318.757846 
" style="fill: none; stroke: #34495e; stroke-width: 1.8; stroke-linecap: round"/>
    <path d="M 179.546462 319.28055 
L 176.459914 318.757846 
L 178.730006 316.60223 
" style="fill: none; stroke: #34495e; stroke-width: 1.8; stroke-linecap: round"/>
   </g>
   <g id="patch_41">
    <path d="M 202.522588 333.0828 
Q 206.101938 333.0828 207.668826 333.0828 
" style="fill: none; stroke: #34495e; stroke-width: 1.8; stroke-linecap: round"/>
    <path d="M 204.868826 331.6828 
L 207.668826 333.0828 
L 204.868826 334.4828 
" style="fill: none; stroke: #34495e; stroke-width: 1.8; stroke-linecap: round"/>
   </g>
  </g>
 </g>
 <defs>
  <clipPath id="p45a05457f9">
   <rect x="10.8" y="10.8" width="390.6" height="498.96"/>
  </clipPath>
 </defs>
</svg>
